<?xml version="1.0" encoding="UTF-8" standalone="no"?>
<!DOCTYPE svg PUBLIC "-//W3C//DTD SVG 1.1//EN" "http://www.w3.org/Graphics/SVG/1.1/DTD/svg11.dtd">
<svg xmlns="http://www.w3.org/2000/svg" version="1.1" viewBox="0 0 264 265" width="264.0pt" height="265.0pt">
<path d="M 0.00 0.00 L 264.00 0.00 L 264.00 265.00 L 0.00 265.00 L 0.00 0.00 Z" fill="#ffffff" />
<path d="M 157.05 24.11 C 156.09 24.91 155.13 25.70 154.17 26.50 C 131.69 21.92 107.30 24.48 86.63 34.62 C 67.45 43.79 50.62 58.49 39.88 76.92 C 30.87 91.20 26.65 107.33 24.98 124.00 C 24.01 133.83 25.11 143.49 26.76 153.18 C 28.51 163.01 32.15 172.49 36.62 181.39 C 40.87 189.91 46.88 197.72 53.19 204.82 C 61.54 214.14 71.50 221.50 82.33 227.68 C 87.38 230.43 93.02 232.54 98.23 234.78 C 93.85 234.27 88.94 233.94 84.91 232.09 C 65.40 222.97 49.13 207.47 37.62 189.39 C 33.46 182.54 30.42 174.90 27.58 167.43 C 18.25 140.43 20.01 109.50 32.97 83.97 C 38.44 71.75 46.65 61.47 56.11 52.13 C 63.76 44.85 72.28 38.36 81.87 33.86 C 93.41 28.22 106.20 23.46 119.06 22.36 C 131.83 20.28 144.47 21.53 157.05 24.11 Z" fill="#6d98c8" />
<path d="M 159.06 24.77 C 185.84 30.84 208.90 48.20 224.54 70.47 C 236.17 88.32 243.19 109.59 242.92 131.00 C 243.24 146.28 240.34 161.32 234.39 175.38 C 230.13 184.92 224.51 193.88 218.22 202.21 C 210.20 211.46 200.78 219.89 190.33 226.30 C 186.31 228.81 181.97 229.52 177.81 231.80 C 174.98 233.30 172.27 235.65 169.18 236.40 C 164.43 237.55 159.95 237.30 155.39 239.38 C 149.60 242.04 142.28 241.74 136.00 242.15 C 130.89 242.53 126.03 241.53 121.01 240.77 C 117.81 240.21 114.07 241.21 111.21 239.74 C 108.40 238.49 105.47 237.62 102.63 236.46 C 106.19 236.79 109.55 238.22 113.17 238.79 C 124.13 240.26 135.00 241.27 146.01 239.57 C 157.02 238.54 166.47 234.43 176.71 230.68 C 185.16 227.76 192.89 221.39 200.02 216.05 C 215.61 203.10 228.04 185.80 234.54 166.54 C 241.06 148.08 241.66 128.28 237.76 109.19 C 234.23 92.33 226.39 76.80 215.63 63.41 C 204.40 50.44 190.79 39.82 175.00 32.98 C 168.90 30.68 162.71 28.56 156.47 26.66 C 157.33 26.02 158.20 25.39 159.06 24.77 Z" fill="#6d98c8" />
<path d="M 102.97 52.93 C 108.04 52.33 114.03 51.72 118.64 54.37 C 119.97 55.26 121.83 56.02 121.26 57.98 C 120.49 64.41 116.17 67.38 111.93 71.59 C 115.91 73.12 120.99 74.86 123.79 78.23 C 125.75 80.54 125.71 83.13 125.77 86.00 C 125.74 97.02 125.76 108.02 125.77 119.03 C 125.92 121.73 124.59 123.92 122.77 125.78 C 119.97 128.52 116.64 130.70 112.88 131.86 C 101.37 135.78 88.00 135.70 75.99 134.84 C 66.03 133.47 55.26 131.55 48.86 122.96 C 49.20 109.63 49.26 96.31 49.26 82.97 C 49.17 79.96 51.17 78.09 53.03 76.01 C 58.86 69.92 66.03 66.22 73.42 62.42 C 82.72 57.88 92.74 54.59 102.97 52.93 Z" fill="#6d98c8" />
<path d="M 109.00 56.01 C 112.21 55.89 114.84 56.35 117.76 57.66 C 116.50 60.75 115.52 63.64 112.81 65.80 C 101.61 74.87 87.61 80.93 73.80 84.78 C 67.17 86.70 60.74 86.37 53.94 86.04 C 53.55 84.46 52.08 82.92 53.50 81.49 C 60.33 72.66 71.57 66.79 81.76 62.70 C 90.65 59.25 99.38 56.45 109.00 56.01 Z" fill="#ffffff" />
<path d="M 205.01 69.63 C 209.73 69.96 214.81 73.21 215.66 78.12 C 216.42 83.23 215.79 88.68 215.71 93.84 C 212.84 94.39 208.17 93.87 206.05 96.14 C 204.99 99.44 205.39 102.69 203.24 105.69 C 210.09 112.30 215.72 120.09 215.83 129.99 C 216.07 135.96 213.07 140.21 210.08 145.04 C 197.50 163.80 184.85 182.51 172.25 201.26 C 170.21 204.22 168.08 207.21 164.55 208.49 C 159.13 210.51 152.78 211.89 147.01 210.92 C 138.25 209.22 130.22 205.26 123.19 199.81 C 118.05 195.91 114.00 190.54 111.32 184.70 C 108.52 178.28 107.61 170.65 111.44 164.44 C 116.49 156.20 121.61 148.05 127.26 140.26 C 134.25 130.49 140.28 120.09 147.35 110.37 C 151.31 105.08 151.29 98.59 155.26 93.31 C 161.90 83.98 172.74 77.50 183.13 73.13 C 190.03 70.64 197.66 69.00 205.01 69.63 Z" fill="#6d98c8" />
<path d="M 200.00 73.08 C 203.56 73.04 208.17 73.65 210.87 76.20 C 212.99 80.08 212.07 85.86 211.93 90.13 C 209.86 90.60 207.71 90.95 205.73 91.71 C 202.54 93.50 201.92 96.77 200.80 99.95 C 197.98 100.37 194.42 100.37 192.02 102.03 C 189.05 104.08 187.53 107.49 185.91 110.59 C 183.47 109.14 180.99 107.24 177.98 107.46 C 174.12 107.72 171.66 110.22 168.95 112.64 C 165.08 111.84 161.05 111.11 157.36 109.65 C 154.46 107.68 154.22 103.51 155.53 100.53 C 158.16 93.80 164.42 88.29 170.19 84.21 C 179.06 78.23 189.21 73.76 200.00 73.08 Z" fill="#ffffff" />
<path d="M 107.97 74.30 C 113.66 75.62 118.17 78.10 122.56 81.92 C 121.27 87.97 116.30 89.34 111.20 91.23 C 99.50 94.76 87.10 95.55 75.01 93.81 C 70.62 93.12 65.88 92.43 61.79 90.66 C 78.22 88.44 93.76 82.80 107.97 74.30 Z" fill="#ffffff" />
<path d="M 52.75 90.82 C 59.80 94.31 67.13 96.81 74.99 97.64 C 91.45 99.09 107.36 98.67 122.21 90.63 C 122.25 101.06 122.41 111.48 121.97 121.90 C 117.85 127.35 110.31 128.88 104.00 130.28 C 89.72 132.87 74.22 132.36 60.50 127.36 C 56.23 125.80 52.76 123.17 52.23 118.33 C 56.58 119.91 60.52 121.90 64.98 123.15 C 72.56 125.33 80.82 125.84 88.68 125.83 C 88.72 124.66 88.75 123.49 88.79 122.32 C 81.95 122.12 75.21 121.82 68.51 120.29 C 63.76 119.18 59.03 117.98 55.22 114.78 C 51.52 112.42 53.04 106.68 52.78 102.92 C 64.09 109.73 76.16 110.62 89.04 111.00 C 88.83 109.84 88.62 108.69 88.41 107.53 C 82.27 106.87 76.21 106.86 70.15 105.53 C 64.55 104.32 58.40 102.99 54.28 98.69 C 52.14 96.70 52.87 93.44 52.75 90.82 Z" fill="#ffffff" />
<path d="M 113.86 97.95 C 114.76 99.91 115.31 101.81 115.26 103.99 C 115.24 110.06 115.42 116.08 114.91 122.13 C 113.88 122.13 112.86 122.15 111.83 122.18 C 111.22 116.48 111.59 110.76 111.47 105.00 C 111.66 102.95 111.19 98.50 113.86 97.95 Z" fill="#6d98c8" />
<path d="M 196.42 104.58 C 203.11 109.83 209.73 117.30 211.57 125.82 C 212.39 130.20 212.45 134.91 209.63 138.62 C 205.84 143.51 199.98 145.17 194.00 145.02 C 183.58 144.78 173.21 139.31 165.69 132.32 C 160.13 127.26 156.57 120.67 154.69 113.44 C 158.13 114.02 161.95 114.35 165.16 115.77 C 166.71 117.04 167.95 118.76 169.23 120.29 C 171.89 117.21 173.33 111.63 178.00 111.19 C 181.58 111.75 184.99 114.21 188.19 115.83 C 189.61 112.08 190.69 108.53 193.65 105.65 C 194.54 104.96 195.21 103.51 196.42 104.58 Z" fill="#ffffff" />
<path d="M 150.92 111.65 C 152.41 123.40 159.55 133.21 169.10 139.86 C 174.52 143.54 180.45 146.97 186.99 148.05 C 192.51 149.07 198.02 148.75 203.53 147.91 C 200.10 152.64 196.98 157.22 191.18 159.20 C 184.59 161.19 176.86 160.02 170.56 157.44 C 162.12 154.35 155.22 148.25 149.74 141.25 C 146.25 136.42 143.69 130.03 144.15 123.99 C 145.08 119.52 148.43 115.42 150.92 111.65 Z" fill="#ffffff" />
<path d="M 194.78 114.22 C 196.72 115.68 198.55 117.11 199.78 119.25 C 202.93 124.34 205.49 130.61 203.67 136.63 C 202.68 136.71 201.69 136.81 200.71 136.93 C 200.43 133.77 200.63 130.34 199.60 127.37 C 198.38 123.64 195.53 120.31 193.41 117.00 C 193.85 116.07 194.31 115.14 194.78 114.22 Z" fill="#6d98c8" />
<path d="M 140.06 128.63 C 141.30 131.34 141.67 134.29 142.99 136.98 C 146.83 145.47 153.45 151.76 161.11 156.85 C 170.90 162.80 182.21 165.82 193.51 162.65 C 190.64 166.65 187.45 171.87 182.59 173.54 C 176.48 175.60 169.85 175.25 163.76 173.31 C 154.05 170.02 145.39 163.95 139.57 155.44 C 136.72 151.22 134.58 146.12 134.38 140.99 C 134.14 136.32 136.99 131.91 140.06 128.63 Z" fill="#ffffff" />
<path d="M 72.91 142.22 C 77.84 144.06 82.07 148.71 85.18 152.84 C 87.87 156.65 84.82 162.37 83.37 166.17 C 89.77 172.74 97.34 178.63 102.79 186.02 C 100.26 190.61 96.39 193.75 92.26 196.82 C 85.54 190.71 79.23 184.07 72.84 177.60 C 69.28 178.60 65.62 180.23 61.96 180.26 C 59.24 179.69 56.91 176.89 54.90 175.09 C 52.64 172.80 49.26 170.48 49.04 166.99 C 48.97 160.94 52.72 155.02 56.79 150.80 C 60.94 146.49 66.75 142.46 72.91 142.22 Z" fill="#6d98c8" />
<path d="M 130.49 142.84 C 132.93 156.34 142.24 166.57 153.97 173.03 C 162.96 178.22 173.38 179.55 183.54 177.78 C 181.02 181.61 178.10 185.60 174.44 188.40 C 169.64 192.12 162.69 191.84 156.99 191.13 C 145.36 189.04 134.63 181.70 127.93 172.04 C 124.59 167.06 121.54 160.16 123.23 154.11 C 124.69 149.97 127.84 146.29 130.49 142.84 Z" fill="#ffffff" />
<path d="M 74.22 146.99 C 74.94 149.04 74.34 151.61 73.53 153.57 C 71.39 157.99 67.98 162.15 64.09 165.14 C 60.81 167.85 57.02 168.77 52.83 168.90 C 52.71 159.48 59.28 152.49 66.75 147.75 C 68.93 146.59 72.03 144.99 74.22 146.99 Z" fill="#ffffff" />
<path d="M 78.96 151.69 C 80.49 153.23 82.79 154.52 82.54 157.00 C 82.30 160.05 80.30 163.11 78.61 165.60 C 75.22 170.55 70.03 175.28 64.02 176.57 C 61.42 176.19 59.40 174.36 57.34 172.89 C 60.72 171.50 64.00 170.17 66.86 167.82 C 72.48 163.53 75.71 157.80 78.96 151.69 Z" fill="#ffffff" />
<path d="M 119.25 160.15 C 120.16 164.45 121.32 168.61 123.59 172.42 C 129.85 183.08 141.23 190.73 152.97 194.13 C 159.70 196.13 166.04 195.83 172.77 193.99 C 170.01 198.09 167.07 203.06 162.96 205.92 C 158.50 208.99 153.15 208.74 147.99 208.32 C 137.12 206.68 127.76 200.56 120.61 192.40 C 116.07 187.21 112.78 181.03 112.59 174.00 C 112.35 169.54 114.84 165.71 117.09 162.07 C 117.75 161.24 118.06 160.24 119.25 160.15 Z" fill="#ffffff" />
<path d="M 82.54 169.36 C 82.74 173.67 79.39 175.71 75.95 177.26 C 76.35 173.26 78.62 170.41 82.54 169.36 Z" fill="#ffffff" />
<path d="M 85.90 174.73 C 86.98 175.23 88.04 175.74 89.11 176.27 C 87.16 178.59 84.98 180.69 82.80 182.80 C 82.00 181.80 81.20 180.81 80.41 179.82 C 82.03 177.86 83.70 176.05 85.90 174.73 Z" fill="#ffffff" />
<path d="M 92.02 179.60 C 92.51 180.41 93.00 181.24 93.47 182.07 C 91.79 184.19 89.87 186.07 87.90 187.92 C 87.55 186.97 85.92 185.43 86.28 184.40 C 88.00 182.61 90.06 181.12 92.02 179.60 Z" fill="#ffffff" />
<path d="M 98.35 184.88 C 97.00 187.36 95.26 189.54 93.53 191.76 C 92.66 191.46 91.79 191.16 90.91 190.88 C 92.94 188.08 94.74 185.63 98.35 184.88 Z" fill="#ffffff" />
</svg>