<?xml version="1.0" encoding="UTF-8" standalone="no"?>
<svg
   xmlns:dc="http://purl.org/dc/elements/1.1/"
   xmlns:cc="http://creativecommons.org/ns#"
   xmlns:rdf="http://www.w3.org/1999/02/22-rdf-syntax-ns#"
   xmlns:svg="http://www.w3.org/2000/svg"
   xmlns="http://www.w3.org/2000/svg"
   xmlns:sodipodi="http://sodipodi.sourceforge.net/DTD/sodipodi-0.dtd"
   xmlns:inkscape="http://www.inkscape.org/namespaces/inkscape"
   version="1.1"
   viewBox="0 0 179 182"
   width="179.0pt"
   height="182.0pt"
   id="svg42"
   sodipodi:docname="10-plastico.svg"
   inkscape:export-filename="C:\Users\aretu\OneDrive\Documentos\NetBeansProjects\ReciEco\web\icones\plastico.png"
   inkscape:export-xdpi="160.89384"
   inkscape:export-ydpi="160.89384"
   inkscape:version="0.92.4 (5da689c313, 2019-01-14)">
  <metadata
     id="metadata48">
    <rdf:RDF>
      <cc:Work
         rdf:about="">
        <dc:format>image/svg+xml</dc:format>
        <dc:type
           rdf:resource="http://purl.org/dc/dcmitype/StillImage" />
      </cc:Work>
    </rdf:RDF>
  </metadata>
  <defs
     id="defs46" />
  <sodipodi:namedview
     pagecolor="#ffffff"
     bordercolor="#666666"
     borderopacity="1"
     objecttolerance="10"
     gridtolerance="10"
     guidetolerance="10"
     inkscape:pageopacity="0"
     inkscape:pageshadow="2"
     inkscape:window-width="1024"
     inkscape:window-height="705"
     id="namedview44"
     showgrid="false"
     inkscape:zoom="0.97252747"
     inkscape:cx="119.33333"
     inkscape:cy="121.33333"
     inkscape:window-x="-8"
     inkscape:window-y="-8"
     inkscape:window-maximized="1"
     inkscape:current-layer="svg42" />
  <path
     d="M 119.24 14.80 C 132.79 20.67 144.95 29.25 153.89 41.13 C 165.96 56.65 172.26 76.35 171.16 96.01 C 170.70 110.64 166.01 124.85 158.22 137.20 C 148.05 152.56 133.28 164.77 115.78 170.81 C 100.58 176.22 83.64 177.25 67.99 173.17 C 52.77 169.47 38.90 161.35 27.86 150.30 C 23.95 145.78 20.09 141.11 16.97 136.01 C 9.02 123.21 4.53 108.09 4.59 92.99 C 4.14 72.49 11.96 51.90 25.71 36.71 C 29.21 32.36 33.47 29.20 38.09 26.16 C 41.28 23.84 43.78 21.20 47.28 19.29 C 57.33 13.95 68.14 10.28 79.51 9.18 C 93.03 8.08 106.64 9.59 119.24 14.80 Z"
     fill="#709ac9"
     id="path4" />
  <path
     d="M 86.00 11.03 C 101.16 10.53 116.60 14.62 129.60 22.42 C 141.93 29.98 152.49 40.84 159.43 53.56 C 165.65 65.45 169.34 78.50 169.10 91.99 C 169.45 111.53 162.02 130.63 149.37 145.40 C 140.42 155.98 128.67 163.66 115.74 168.51 C 99.30 174.62 80.81 175.06 64.06 169.88 C 50.44 165.79 38.12 157.95 28.40 147.59 C 8.50 126.39 1.36 94.35 10.81 66.78 C 14.05 56.01 20.09 46.77 27.19 38.17 C 32.59 32.21 37.52 26.37 45.10 23.09 C 57.29 15.78 71.70 11.00 86.00 11.03 Z"
     fill="#ffffff"
     id="path6" />
  <path
     d="M 60.51 34.02 C 67.81 33.92 75.11 33.92 82.41 33.98 C 82.42 40.32 82.45 46.66 82.34 53.00 C 85.12 53.10 87.91 53.21 90.69 53.38 C 90.61 84.36 90.77 115.32 90.68 146.30 C 81.47 146.72 72.22 146.44 63.00 146.51 C 52.52 146.46 42.02 146.63 31.54 146.42 C 31.45 126.28 31.51 106.14 31.48 86.00 C 31.52 82.01 31.18 77.90 31.72 73.94 C 32.22 71.91 34.26 70.15 35.67 68.66 C 41.11 63.47 46.13 57.96 51.82 53.03 C 54.66 53.11 57.51 53.15 60.36 53.15 C 60.54 46.77 60.54 40.39 60.51 34.02 Z"
     fill="#709ac9"
     id="path8" />
  <path
     d="M 62.97 36.35 C 68.70 35.75 74.56 36.19 80.32 36.16 C 79.85 42.04 81.14 48.68 78.80 54.02 C 78.01 50.07 78.58 45.89 76.30 42.64 C 75.88 45.97 75.78 49.31 75.75 52.67 C 74.86 52.85 73.96 53.04 73.07 53.22 C 72.99 50.10 72.91 46.98 72.87 43.86 L 70.83 43.57 C 70.77 46.73 70.73 49.90 70.64 53.06 C 69.67 53.03 68.71 53.00 67.74 52.97 C 67.84 49.91 67.95 46.85 68.05 43.79 L 65.75 43.73 C 65.67 46.88 65.58 50.03 65.47 53.18 C 64.54 53.16 63.60 53.14 62.66 53.11 C 62.73 47.57 62.20 41.85 62.97 36.35 Z"
     fill="#ffffff"
     id="path10" />
  <path
     d="M 52.47 55.65 C 54.90 55.15 57.53 55.37 60.00 55.34 C 69.53 55.36 79.07 55.21 88.60 55.31 C 88.68 81.22 88.51 107.09 88.63 133.00 C 88.59 136.54 88.94 140.23 88.37 143.73 C 87.68 144.87 85.17 144.29 84.00 144.48 C 67.18 144.15 50.33 144.66 33.52 144.18 C 33.69 120.77 33.68 97.34 33.56 73.92 C 38.47 69.05 43.44 64.25 48.19 59.23 C 49.48 57.96 50.83 56.43 52.47 55.65 Z"
     fill="#ffffff"
     id="path12" />
  <path
     d="M 53.07 66.94 C 53.33 85.27 53.16 103.63 53.12 121.97 C 48.90 122.02 44.68 122.02 40.47 122.02 C 40.37 109.35 40.52 96.67 40.36 84.00 C 40.51 81.40 40.03 79.10 42.12 77.14 C 45.53 73.58 48.96 69.69 53.07 66.94 Z"
     fill="#709ac9"
     id="path14" />
  <path
     d="M 50.68 71.91 C 51.31 87.83 50.89 103.82 50.95 119.75 C 48.26 119.80 45.57 119.86 42.89 119.92 C 42.67 106.54 43.04 93.14 42.71 79.75 C 44.49 77.89 46.29 76.04 48.16 74.26 C 49.00 73.47 49.84 72.69 50.68 71.91 Z"
     fill="#ffffff"
     id="path16" />
  <path
     d="M 80.52 72.11 C 77.06 77.28 72.63 80.69 68.32 85.32 C 66.24 87.56 64.07 89.47 61.23 90.71 C 64.58 85.49 69.02 82.00 73.35 77.34 C 75.43 75.07 77.61 73.25 80.52 72.11 Z"
     fill="#709ac9"
     id="path18" />
  <path
     d="M 137.27 79.76 C 140.71 82.93 142.14 88.55 143.03 92.98 C 145.03 102.47 144.27 111.40 144.46 121.00 C 144.42 125.32 144.77 129.76 144.21 134.04 C 143.77 137.08 141.00 138.40 138.44 139.41 C 132.95 141.30 127.06 141.97 121.50 143.72 C 118.76 144.48 116.01 145.73 113.18 146.08 C 110.03 144.80 107.14 142.21 103.75 141.49 C 101.53 141.08 99.19 141.12 96.95 141.04 C 96.63 127.05 97.60 112.90 96.18 98.98 C 95.84 93.76 96.49 87.76 99.20 83.17 C 101.76 79.32 107.94 79.73 110.33 83.58 C 113.82 88.85 114.11 96.11 114.44 102.23 C 118.47 101.70 122.44 101.00 126.40 100.04 C 126.45 94.24 126.10 87.02 128.81 81.74 C 130.44 78.58 134.41 77.33 137.27 79.76 Z"
     fill="#709ac9"
     id="path20" />
  <path
     d="M 132.94 80.39 C 135.16 80.71 136.45 81.49 137.55 83.44 C 140.76 89.09 141.55 96.55 142.04 102.93 C 137.50 101.97 132.97 100.96 128.41 100.12 C 128.48 95.56 128.49 90.71 129.48 86.25 C 130.01 83.92 131.09 81.93 132.94 80.39 Z"
     fill="#ffffff"
     id="path22" />
  <path
     d="M 105.39 82.12 C 107.11 83.31 108.69 84.44 109.54 86.43 C 111.80 91.31 111.96 97.56 112.61 102.85 C 107.98 103.67 103.36 104.51 98.70 105.14 C 98.32 97.43 97.32 90.53 101.29 83.50 C 102.64 82.99 104.01 82.53 105.39 82.12 Z"
     fill="#ffffff"
     id="path24" />
  <path
     d="M 80.03 86.88 C 79.20 90.27 76.70 91.97 74.38 94.36 C 70.20 98.23 66.44 102.61 61.95 106.06 C 63.61 100.95 67.45 98.66 70.95 94.93 C 73.77 92.21 76.58 88.73 80.03 86.88 Z"
     fill="#709ac9"
     id="path26" />
  <path
     d="M 127.75 102.54 C 131.88 102.78 136.04 103.90 139.97 105.18 C 131.85 107.91 122.88 108.43 114.38 108.95 C 114.36 107.48 114.35 106.00 114.34 104.53 C 118.76 103.84 123.27 102.62 127.75 102.54 Z"
     fill="#ffffff"
     id="path28" />
  <path
     d="M 80.04 101.87 C 78.43 106.29 75.09 108.74 71.94 111.95 C 68.42 115.33 65.90 118.94 61.20 120.84 C 63.88 116.57 67.51 113.54 70.99 110.00 C 72.98 108.02 74.92 105.92 77.02 104.08 C 78.01 103.32 79.02 102.59 80.04 101.87 Z"
     fill="#709ac9"
     id="path30" />
  <path
     d="M 112.77 105.06 C 112.43 106.58 112.10 108.14 111.61 109.62 C 107.85 109.88 104.57 108.73 101.12 107.43 C 104.91 106.16 108.82 105.57 112.77 105.06 Z"
     fill="#ffffff"
     id="path32" />
  <path
     d="M 142.14 107.10 C 142.25 114.74 142.22 122.39 142.26 130.03 C 142.08 132.18 142.45 134.87 140.30 136.15 C 136.67 138.25 132.07 139.00 128.00 139.88 C 123.35 140.75 118.88 142.17 114.32 143.39 C 114.41 132.66 114.32 121.93 114.19 111.19 C 123.81 110.33 132.91 109.87 142.14 107.10 Z"
     fill="#ffffff"
     id="path34" />
  <path
     d="M 99.13 109.11 C 103.42 110.83 107.38 111.83 112.00 112.29 C 111.96 122.37 112.03 132.45 111.97 142.53 C 110.31 141.66 108.66 140.79 107.00 139.91 C 106.89 134.26 107.15 128.61 106.99 122.96 C 107.06 120.86 106.10 119.39 105.06 117.64 C 103.85 124.57 104.46 131.96 104.45 138.98 C 102.68 138.92 100.90 138.86 99.13 138.79 C 99.02 128.90 99.03 119.00 99.13 109.11 Z"
     fill="#ffffff"
     id="path36" />
  <path
     d="M 40.59 132.30 C 54.79 132.48 69.02 132.06 83.21 132.59 C 83.20 134.94 83.19 137.30 83.16 139.65 C 68.96 139.92 54.74 139.71 40.53 139.77 C 40.50 137.28 40.53 134.79 40.59 132.30 Z"
     fill="#709ac9"
     id="path38" />
  <path
     d="M 42.79 134.79 C 44.80 134.36 46.95 134.43 49.00 134.40 C 59.68 134.52 70.36 134.39 81.04 134.52 C 81.16 135.55 81.28 136.58 81.41 137.61 C 73.27 137.72 65.14 137.67 57.00 137.69 C 51.86 137.70 46.69 137.97 41.64 137.03 C 42.00 136.27 42.38 135.52 42.79 134.79 Z"
     fill="#ffffff"
     id="path40" />
</svg>
