<?xml version="1.0" encoding="UTF-8" standalone="no"?>
<svg
   xmlns:dc="http://purl.org/dc/elements/1.1/"
   xmlns:cc="http://creativecommons.org/ns#"
   xmlns:rdf="http://www.w3.org/1999/02/22-rdf-syntax-ns#"
   xmlns:svg="http://www.w3.org/2000/svg"
   xmlns="http://www.w3.org/2000/svg"
   xmlns:sodipodi="http://sodipodi.sourceforge.net/DTD/sodipodi-0.dtd"
   xmlns:inkscape="http://www.inkscape.org/namespaces/inkscape"
   version="1.1"
   viewBox="0 0 196 198"
   width="196.0pt"
   height="198.0pt"
   id="svg56"
   sodipodi:docname="13-pilhas.svg"
   inkscape:export-filename="C:\Users\aretu\OneDrive\Documentos\NetBeansProjects\ReciEco\web\icones\13-pilhas.png"
   inkscape:export-xdpi="160"
   inkscape:export-ydpi="160"
   inkscape:version="0.92.4 (5da689c313, 2019-01-14)">
  <metadata
     id="metadata62">
    <rdf:RDF>
      <cc:Work
         rdf:about="">
        <dc:format>image/svg+xml</dc:format>
        <dc:type
           rdf:resource="http://purl.org/dc/dcmitype/StillImage" />
      </cc:Work>
    </rdf:RDF>
  </metadata>
  <defs
     id="defs60" />
  <sodipodi:namedview
     pagecolor="#ffffff"
     bordercolor="#666666"
     borderopacity="1"
     objecttolerance="10"
     gridtolerance="10"
     guidetolerance="10"
     inkscape:pageopacity="0"
     inkscape:pageshadow="2"
     inkscape:window-width="760"
     inkscape:window-height="480"
     id="namedview58"
     showgrid="false"
     inkscape:zoom="0.89393939"
     inkscape:cx="130.66667"
     inkscape:cy="132"
     inkscape:window-x="0"
     inkscape:window-y="0"
     inkscape:window-maximized="0"
     inkscape:current-layer="svg56" />
  <path
     d="M 82.51 15.63 C 100.81 12.46 119.90 14.97 136.43 23.57 C 143.41 27.48 149.99 31.63 155.71 37.28 C 167.05 48.35 175.64 62.47 179.13 78.00 C 183.25 94.22 182.05 111.57 176.18 127.21 C 172.16 136.70 167.33 145.72 160.30 153.35 C 153.03 161.16 144.33 168.19 134.53 172.53 C 117.08 181.66 95.64 183.32 76.71 178.34 C 56.79 172.98 39.40 160.14 28.01 142.99 C 19.60 129.60 14.71 113.86 14.89 98.00 C 14.64 79.94 20.54 61.89 31.60 47.59 C 38.50 37.61 48.00 30.45 58.38 24.42 C 65.64 20.07 74.32 17.67 82.51 15.63 Z"
     fill="#6694c8"
     id="path4" />
  <path
     d="M 90.53 16.76 C 101.64 15.80 113.05 16.96 123.66 20.44 C 136.41 24.63 147.94 32.07 157.14 41.83 C 168.74 53.82 176.22 69.80 178.62 86.26 C 181.28 103.03 177.63 120.90 170.01 135.97 C 167.62 140.41 164.43 144.44 161.42 148.47 C 155.10 156.75 146.67 163.51 137.77 168.82 C 123.75 176.25 107.87 180.07 91.98 178.75 C 74.63 177.28 57.36 170.33 44.36 158.65 C 33.94 149.26 25.56 137.16 21.20 123.78 C 11.43 95.64 18.66 62.80 39.49 41.48 C 52.81 27.41 71.22 18.51 90.53 16.76 Z"
     fill="#ffffff"
     id="path6" />
  <path
     d="M 50.87 41.40 C 54.75 41.38 58.63 41.47 62.51 41.63 C 62.48 43.51 62.46 45.39 62.43 47.27 C 70.92 47.38 79.41 47.25 87.90 47.41 C 87.93 45.44 87.96 43.48 87.98 41.52 C 92.01 41.31 95.98 41.31 100.01 41.54 C 100.05 43.47 100.09 45.41 100.13 47.34 C 102.80 47.42 105.47 47.51 108.14 47.62 C 108.22 68.38 108.15 89.14 108.18 109.89 C 86.17 110.18 64.15 110.04 42.14 109.95 C 42.10 89.12 41.96 68.29 42.14 47.46 C 44.76 47.42 47.44 47.47 50.04 47.15 C 50.48 45.27 50.63 43.31 50.87 41.40 Z"
     fill="#6694c8"
     id="path8" />
  <path
     d="M 90.06 43.53 C 92.69 43.53 95.33 43.53 97.97 43.53 C 97.89 44.62 97.82 45.71 97.74 46.80 C 95.23 46.82 92.72 46.83 90.21 46.82 C 90.16 45.73 90.11 44.63 90.06 43.53 Z"
     fill="#ffffff"
     id="path10" />
  <path
     d="M 53.00 43.61 C 55.65 43.57 58.31 43.56 60.97 43.60 C 60.59 44.60 60.19 45.60 59.76 46.59 C 57.48 46.95 55.12 46.94 52.82 47.03 C 52.88 45.89 52.94 44.75 53.00 43.61 Z"
     fill="#ffffff"
     id="path12" />
  <path
     d="M 53.00 49.52 C 70.63 49.50 88.26 49.39 105.90 49.60 C 106.05 56.68 106.00 63.76 105.97 70.84 C 85.43 70.89 64.90 70.92 44.36 70.80 C 44.37 64.00 43.82 57.05 44.50 50.28 C 46.54 48.76 50.53 49.73 53.00 49.52 Z"
     fill="#ffffff"
     id="path14" />
  <path
     d="M 57.77 54.47 C 58.23 56.21 58.67 57.94 59.10 59.69 C 60.90 60.11 62.70 60.54 64.49 61.01 C 62.76 61.57 61.02 62.09 59.27 62.59 C 58.61 64.32 57.92 66.03 57.21 67.74 C 56.94 65.96 56.67 64.17 56.42 62.39 C 54.87 62.27 53.33 62.16 51.79 62.05 L 51.84 60.00 C 53.33 59.99 54.81 59.99 56.30 59.99 C 56.77 58.14 57.26 56.30 57.77 54.47 Z"
     fill="#6694c8"
     id="path16" />
  <path
     d="M 85.14 59.93 C 89.31 59.94 93.44 60.06 97.52 61.04 C 93.45 62.46 89.38 62.26 85.15 62.18 L 85.14 59.93 Z"
     fill="#6694c8"
     id="path18" />
  <path
     d="M 128.46 71.63 C 133.22 70.88 138.26 71.43 143.08 71.46 C 143.22 72.75 143.36 74.03 143.50 75.32 C 147.28 75.86 150.73 76.70 154.11 78.54 C 153.96 101.37 154.04 124.20 154.08 147.02 C 153.91 148.84 154.37 150.45 152.47 151.44 C 146.69 154.16 139.27 153.99 133.00 154.06 C 128.13 153.79 121.60 153.61 117.60 150.50 C 116.88 145.77 117.43 140.78 117.31 136.00 C 117.22 118.33 117.43 100.65 117.20 82.97 C 117.23 81.52 117.25 79.99 117.59 78.57 C 119.95 76.22 124.27 75.97 127.38 75.40 C 127.71 74.14 128.02 72.86 128.46 71.63 Z"
     fill="#6694c8"
     id="path20" />
  <path
     d="M 44.55 73.27 C 47.99 72.83 51.54 73.02 55.00 73.00 C 71.99 73.02 88.98 72.97 105.98 73.02 C 105.99 84.65 106.03 96.29 105.95 107.92 C 85.45 107.81 64.95 107.91 44.45 107.92 C 44.34 96.41 43.90 84.75 44.55 73.27 Z"
     fill="#ffffff"
     id="path22" />
  <path
     d="M 130.33 73.57 C 133.80 73.14 137.39 73.35 140.88 73.40 C 140.96 75.06 141.04 76.72 141.12 78.38 C 137.35 78.42 133.58 78.44 129.80 78.42 C 129.95 76.81 130.05 75.17 130.33 73.57 Z"
     fill="#ffffff"
     id="path24" />
  <path
     d="M 52.37 75.89 C 68.23 75.67 84.16 75.71 100.03 75.87 C 100.03 85.38 100.04 94.89 100.02 104.41 C 84.30 104.96 68.51 104.64 52.78 104.53 C 51.89 95.05 52.50 85.41 52.37 75.89 Z"
     fill="#6694c8"
     id="path26" />
  <path
     d="M 97.92 77.88 C 97.93 86.07 97.95 94.27 97.91 102.47 C 83.39 102.40 68.83 102.78 54.33 102.27 C 54.48 94.20 54.41 86.13 54.46 78.05 C 68.93 77.52 83.44 77.76 97.92 77.88 Z"
     fill="#ffffff"
     id="path28" />
  <path
     d="M 127.34 77.61 C 127.69 79.00 128.04 80.39 128.39 81.79 C 125.65 81.11 122.92 80.45 120.21 79.66 C 122.56 78.88 124.94 78.22 127.34 77.61 Z"
     fill="#ffffff"
     id="path30" />
  <path
     d="M 143.81 77.27 C 146.59 77.99 149.34 78.75 152.04 79.74 C 149.35 80.55 146.64 81.24 143.85 81.59 C 143.23 81.56 142.74 81.37 142.37 81.01 C 142.82 79.75 143.30 78.51 143.81 77.27 Z"
     fill="#ffffff"
     id="path32" />
  <path
     d="M 76.70 79.55 C 76.74 83.15 75.13 86.03 73.66 89.20 C 75.87 89.29 78.08 89.37 80.28 89.45 C 78.43 93.67 77.50 97.89 73.73 100.84 C 74.50 97.60 75.76 94.56 77.05 91.51 C 74.78 91.52 72.51 91.53 70.24 91.53 C 71.99 87.29 73.82 83.16 76.70 79.55 Z"
     fill="#6694c8"
     id="path34" />
  <path
     d="M 130.50 80.83 C 134.38 80.43 138.29 80.50 142.12 81.31 C 137.67 82.11 132.91 81.82 128.40 81.64 C 129.10 81.35 129.79 81.09 130.50 80.83 Z"
     fill="#ffffff"
     id="path36" />
  <path
     d="M 119.91 82.46 C 130.35 84.84 141.39 84.73 151.86 82.51 C 151.87 90.91 151.88 99.32 151.86 107.72 C 141.20 110.38 130.04 110.58 119.42 107.62 C 119.74 99.28 118.78 90.71 119.91 82.46 Z"
     fill="#ffffff"
     id="path38" />
  <path
     d="M 135.22 92.82 C 135.96 94.50 136.69 96.19 137.41 97.89 C 139.00 98.49 140.59 99.10 142.18 99.72 C 140.59 100.05 138.99 100.38 137.40 100.70 C 136.72 102.50 136.03 104.29 135.32 106.08 C 135.02 104.38 134.73 102.68 134.44 100.98 C 132.59 100.36 130.76 99.70 128.99 98.85 C 130.85 98.56 132.71 98.29 134.58 98.04 C 134.79 96.30 135.00 94.56 135.22 92.82 Z"
     fill="#6694c8"
     id="path40" />
  <path
     d="M 151.78 110.14 C 151.96 120.43 151.77 130.71 151.89 141.00 C 151.89 143.85 152.02 146.82 151.52 149.63 C 148.27 151.04 144.40 151.32 140.89 151.65 C 133.67 152.27 126.45 151.52 119.44 149.70 C 119.53 136.55 119.57 123.38 119.35 110.22 C 125.24 111.09 131.09 112.20 137.00 112.05 C 142.00 112.01 146.86 111.03 151.78 110.14 Z"
     fill="#ffffff"
     id="path42" />
  <path
     d="M 96.00 120.80 C 100.06 121.02 105.57 121.46 108.71 124.33 C 109.67 127.74 109.52 131.57 109.22 135.07 C 109.26 136.77 106.97 137.91 105.62 138.48 C 99.23 141.01 91.18 140.23 84.45 139.80 C 83.95 141.67 83.84 144.03 82.73 145.66 C 80.71 147.61 77.15 148.11 74.50 148.64 C 66.76 149.64 58.46 149.43 51.48 145.53 C 51.32 141.85 50.70 137.91 51.31 134.26 C 51.95 132.08 54.85 131.25 56.77 130.64 C 62.97 129.03 70.06 129.60 76.41 129.98 C 77.03 127.68 76.64 124.32 79.15 123.18 C 83.96 120.52 90.66 120.72 96.00 120.80 Z"
     fill="#6694c8"
     id="path44" />
  <path
     d="M 85.51 123.54 C 93.38 122.83 100.88 122.14 108.03 126.10 C 103.02 128.91 97.63 129.31 92.00 129.30 C 87.38 129.20 83.05 128.86 78.98 126.48 C 80.06 124.39 83.44 123.98 85.51 123.54 Z"
     fill="#ffffff"
     id="path46" />
  <path
     d="M 130.00 126.99 C 133.85 127.26 139.36 125.77 142.23 128.82 C 138.16 129.23 134.09 129.17 130.00 129.10 L 130.00 126.99 Z"
     fill="#6694c8"
     id="path48" />
  <path
     d="M 78.72 129.69 C 83.87 130.60 88.73 131.83 94.02 131.67 C 98.67 131.68 103.03 130.52 107.43 129.16 C 107.45 131.30 107.47 133.43 107.50 135.56 C 99.92 138.93 92.16 138.62 84.10 137.69 C 83.77 136.19 83.44 134.69 83.10 133.19 C 81.62 132.04 80.15 130.90 78.72 129.69 Z"
     fill="#ffffff"
     id="path50" />
  <path
     d="M 58.30 132.33 C 63.79 131.41 69.52 131.37 75.04 132.08 C 77.66 132.53 80.14 132.78 81.73 135.21 C 77.84 138.21 71.70 138.23 67.00 138.38 C 62.54 138.18 56.68 138.09 53.14 134.99 C 54.71 133.51 56.17 132.70 58.30 132.33 Z"
     fill="#ffffff"
     id="path52" />
  <path
     d="M 81.93 138.15 C 81.83 140.00 81.83 141.89 81.52 143.72 C 79.72 145.99 75.61 146.31 72.92 146.74 C 66.80 147.23 59.30 147.26 53.76 144.26 C 53.24 142.40 53.12 140.40 52.86 138.49 C 62.55 140.90 72.34 141.23 81.93 138.15 Z"
     fill="#ffffff"
     id="path54" />
</svg>
