<?xml version="1.0" encoding="UTF-8" standalone="no"?>
<svg
   xmlns:dc="http://purl.org/dc/elements/1.1/"
   xmlns:cc="http://creativecommons.org/ns#"
   xmlns:rdf="http://www.w3.org/1999/02/22-rdf-syntax-ns#"
   xmlns:svg="http://www.w3.org/2000/svg"
   xmlns="http://www.w3.org/2000/svg"
   xmlns:sodipodi="http://sodipodi.sourceforge.net/DTD/sodipodi-0.dtd"
   xmlns:inkscape="http://www.inkscape.org/namespaces/inkscape"
   version="1.1"
   viewBox="0 0 182 177"
   width="182.0pt"
   height="177.0pt"
   id="svg38"
   sodipodi:docname="14-roupascalcados.svg"
   inkscape:export-filename="C:\Users\aretu\OneDrive\Documentos\NetBeansProjects\ReciEco\web\icones\14-roupascalcados.png"
   inkscape:export-xdpi="160"
   inkscape:export-ydpi="160"
   inkscape:version="0.92.4 (5da689c313, 2019-01-14)">
  <metadata
     id="metadata44">
    <rdf:RDF>
      <cc:Work
         rdf:about="">
        <dc:format>image/svg+xml</dc:format>
        <dc:type
           rdf:resource="http://purl.org/dc/dcmitype/StillImage" />
      </cc:Work>
    </rdf:RDF>
  </metadata>
  <defs
     id="defs42" />
  <sodipodi:namedview
     pagecolor="#ffffff"
     bordercolor="#666666"
     borderopacity="1"
     objecttolerance="10"
     gridtolerance="10"
     guidetolerance="10"
     inkscape:pageopacity="0"
     inkscape:pageshadow="2"
     inkscape:window-width="760"
     inkscape:window-height="480"
     id="namedview40"
     showgrid="false"
     inkscape:zoom="1"
     inkscape:cx="121.33333"
     inkscape:cy="-202"
     inkscape:window-x="0"
     inkscape:window-y="0"
     inkscape:window-maximized="0"
     inkscape:current-layer="svg38" />
  <path
     d="M 121.64 14.31 C 151.52 24.74 173.91 53.35 176.35 84.99 C 178.13 103.87 173.44 123.12 162.80 138.84 C 159.10 144.01 155.07 149.06 150.44 153.42 C 137.51 165.74 120.67 173.34 102.99 175.55 C 96.42 176.77 90.29 176.66 83.72 175.50 C 56.25 172.31 31.03 155.01 18.92 130.05 C 13.38 119.52 10.59 107.85 10.11 95.99 C 8.83 70.50 20.23 45.10 39.90 28.90 C 61.82 9.84 94.48 4.06 121.64 14.31 Z"
     fill="#6794c6"
     id="path4" />
  <path
     d="M 79.49 12.65 C 95.57 9.87 112.36 11.98 127.20 18.79 C 141.48 24.96 153.39 36.19 161.98 49.00 C 168.01 58.97 172.56 70.38 173.92 82.00 C 175.76 95.73 173.91 109.98 168.84 122.85 C 162.29 138.73 151.27 152.58 136.48 161.50 C 128.98 166.44 120.61 169.58 111.95 171.83 C 97.39 175.41 82.27 174.35 68.02 169.95 C 58.66 167.03 49.88 161.78 42.16 155.82 C 36.41 151.45 32.07 146.09 27.65 140.44 C 14.59 122.73 9.25 99.40 13.49 77.79 C 16.71 60.21 25.98 44.13 39.07 32.05 C 50.39 22.21 64.65 15.08 79.49 12.65 Z"
     fill="#ffffff"
     id="path6" />
  <path
     d="M 78.00 32.05 C 83.83 32.17 90.41 31.45 96.01 33.07 C 99.18 33.97 102.34 35.15 105.22 36.77 C 109.15 39.00 112.17 42.63 114.71 46.29 C 118.31 51.68 121.35 57.40 123.07 63.68 C 118.35 66.48 113.81 69.81 108.83 72.12 C 106.81 70.34 105.15 68.11 103.34 66.12 C 102.58 78.61 103.11 91.20 102.86 103.72 C 87.34 103.71 71.82 103.83 56.30 103.72 C 55.72 91.20 56.15 78.69 55.97 66.17 C 53.97 68.13 52.06 70.16 50.14 72.21 C 45.32 69.44 40.49 66.69 35.76 63.79 C 38.67 55.55 42.48 47.89 48.30 41.30 C 52.09 37.09 57.87 34.60 63.21 33.03 C 67.95 31.55 73.02 32.12 78.00 32.05 Z"
     fill="#6794c6"
     id="path8" />
  <path
     d="M 68.17 34.42 C 75.72 33.84 83.39 34.25 90.97 34.24 C 90.11 40.71 88.21 48.66 81.93 51.98 C 78.58 53.84 75.31 51.29 73.21 48.79 C 70.18 44.75 68.64 39.40 68.17 34.42 Z"
     fill="#ffffff"
     id="path10" />
  <path
     d="M 63.80 34.08 C 66.85 36.16 66.46 39.23 67.61 42.42 C 69.04 47.85 73.37 53.53 78.99 54.94 C 83.19 55.02 86.73 51.08 89.17 48.07 C 91.54 44.49 91.95 39.47 93.10 35.37 C 93.87 35.31 94.64 35.25 95.41 35.19 C 95.12 38.56 95.01 42.30 93.40 45.32 C 91.66 48.74 89.32 51.93 86.47 54.50 C 82.23 58.21 75.34 57.82 71.52 53.67 C 66.63 48.47 63.57 41.28 63.80 34.08 Z"
     fill="#ffffff"
     id="path12" />
  <path
     d="M 61.17 35.79 C 62.55 43.53 64.95 50.62 71.06 55.92 C 74.60 58.90 79.17 60.40 83.66 58.63 C 90.19 55.66 94.62 49.02 96.39 42.23 C 97.04 40.28 97.30 37.72 98.66 36.12 C 100.69 36.89 102.63 37.90 104.58 38.87 C 102.96 46.22 100.95 53.45 100.85 61.00 C 100.66 74.56 100.99 88.12 100.76 101.68 C 86.64 101.67 72.51 101.77 58.39 101.62 C 58.22 88.41 58.43 75.20 58.26 62.00 C 58.20 53.95 56.22 46.72 54.53 38.93 C 56.73 37.86 58.95 36.81 61.17 35.79 Z"
     fill="#ffffff"
     id="path14" />
  <path
     d="M 52.28 40.36 C 54.68 47.06 56.11 54.98 55.84 62.08 C 54.44 64.84 51.93 67.13 49.93 69.46 C 45.97 67.42 42.15 65.17 38.40 62.78 C 41.54 54.30 45.90 46.82 52.28 40.36 Z"
     fill="#ffffff"
     id="path16" />
  <path
     d="M 106.81 40.44 C 113.22 46.68 117.78 54.39 120.46 62.91 C 116.71 65.16 112.93 67.32 109.09 69.40 C 107.00 67.03 104.93 64.64 102.88 62.23 C 103.22 54.88 104.46 47.43 106.81 40.44 Z"
     fill="#ffffff"
     id="path18" />
  <path
     d="M 110.46 110.36 C 115.72 112.17 120.34 114.73 126.02 115.62 C 129.32 116.09 132.72 116.16 136.04 115.88 C 140.46 115.49 143.94 113.24 148.17 112.08 C 150.38 115.35 150.38 120.19 150.57 124.00 C 150.98 132.20 148.17 139.83 148.33 148.02 C 139.85 147.98 131.38 148.09 122.89 147.97 C 122.74 146.69 122.59 145.40 122.44 144.11 C 118.62 145.11 114.86 146.38 111.01 147.26 C 106.80 148.25 102.33 148.02 98.00 148.03 C 90.33 147.94 82.66 148.09 74.99 148.00 C 68.38 147.94 62.10 145.88 55.43 144.46 C 55.41 143.18 55.39 141.90 55.37 140.62 C 55.84 140.03 56.31 139.44 56.78 138.85 C 56.97 134.88 56.87 130.03 60.19 127.21 C 66.03 124.01 73.67 123.48 80.17 122.34 C 80.46 121.66 80.75 120.99 81.04 120.32 C 83.17 120.60 85.30 120.83 87.43 121.04 C 87.76 119.92 88.09 118.80 88.42 117.69 C 89.24 118.26 90.07 118.84 90.89 119.42 C 92.34 118.85 93.79 118.27 95.24 117.70 C 95.41 116.54 95.59 115.39 95.76 114.24 C 96.57 114.93 97.38 115.62 98.18 116.31 C 99.34 115.77 100.49 115.22 101.64 114.68 C 101.92 113.41 102.21 112.14 102.50 110.87 L 104.44 112.43 C 106.17 111.57 108.52 109.33 110.46 110.36 Z"
     fill="#6794c6"
     id="path20" />
  <path
     d="M 109.03 112.15 C 110.57 112.58 112.06 113.10 113.58 113.60 C 113.84 114.45 114.10 115.30 114.36 116.14 C 119.48 115.11 124.60 117.88 129.95 118.05 C 136.20 118.76 141.76 116.88 147.41 114.48 C 148.90 122.74 148.47 130.84 147.15 139.08 C 142.03 139.06 136.91 139.07 131.79 139.03 C 131.17 138.07 130.54 137.12 129.91 136.17 C 129.64 137.08 129.37 137.98 129.10 138.89 C 121.00 139.02 113.05 140.31 105.00 140.93 C 95.04 141.21 85.05 141.04 75.08 141.25 C 74.40 140.38 73.72 139.51 73.04 138.64 C 72.54 139.34 72.04 140.05 71.53 140.75 C 67.46 140.08 63.38 139.43 59.32 138.69 C 59.33 134.94 58.25 131.19 61.60 128.51 C 65.58 126.23 71.03 125.95 75.51 126.56 C 75.83 126.08 76.15 125.61 76.47 125.14 C 77.70 124.83 78.94 124.51 80.17 124.20 C 81.32 125.36 82.45 126.54 83.57 127.72 C 83.49 126.43 83.40 125.14 83.31 123.85 C 84.91 123.37 86.50 122.90 88.10 122.44 C 89.10 123.50 90.10 124.57 91.11 125.62 C 91.22 124.21 91.32 122.80 91.42 121.39 C 93.10 120.87 94.79 120.35 96.48 119.84 C 97.49 120.76 98.51 121.67 99.53 122.59 C 99.36 121.21 99.20 119.83 99.03 118.44 C 100.30 117.70 101.57 116.96 102.84 116.22 C 103.95 117.05 105.08 117.86 106.22 118.66 C 105.96 117.16 105.68 115.65 105.39 114.15 C 106.60 113.47 107.80 112.78 109.03 112.15 Z"
     fill="#ffffff"
     id="path22" />
  <path
     d="M 112.00 118.17 C 110.47 120.78 108.84 122.54 106.42 124.32 C 107.46 120.24 108.09 119.76 112.00 118.17 Z"
     fill="#6794c6"
     id="path24" />
  <path
     d="M 103.64 125.89 C 105.48 127.61 107.20 129.42 108.81 131.37 C 107.16 130.96 105.52 130.53 103.90 130.00 C 103.75 128.64 103.68 127.27 103.64 125.89 Z"
     fill="#6794c6"
     id="path26" />
  <path
     d="M 73.20 128.90 C 73.18 131.61 72.83 134.08 71.91 136.63 C 70.79 133.03 70.82 131.81 73.20 128.90 Z"
     fill="#6794c6"
     id="path28" />
  <path
     d="M 118.97 132.02 C 116.39 132.09 113.84 132.05 111.28 131.89 C 113.60 129.05 116.69 129.19 118.97 132.02 Z"
     fill="#6794c6"
     id="path30" />
  <path
     d="M 120.98 130.70 C 124.43 131.01 126.81 130.75 128.69 134.07 C 125.67 133.58 123.23 132.88 120.98 130.70 Z"
     fill="#6794c6"
     id="path32" />
  <path
     d="M 71.22 142.83 C 79.74 143.71 88.44 143.08 97.00 143.23 C 105.32 143.46 113.46 142.29 121.75 141.83 C 116.14 143.54 110.99 145.56 105.04 145.78 C 98.37 146.02 91.68 145.80 85.00 145.89 C 75.01 146.00 65.77 146.08 56.53 141.66 C 61.17 140.21 66.38 142.35 71.22 142.83 Z"
     fill="#ffffff"
     id="path34" />
  <path
     d="M 125.42 141.49 C 132.09 141.34 139.01 140.92 145.64 141.65 C 146.18 142.89 146.67 144.17 147.09 145.47 C 139.62 146.18 131.99 145.91 124.49 145.84 C 124.77 144.39 125.02 142.91 125.42 141.49 Z"
     fill="#ffffff"
     id="path36" />
</svg>
