<?xml version="1.0" encoding="UTF-8" standalone="no"?>
<svg
   xmlns:dc="http://purl.org/dc/elements/1.1/"
   xmlns:cc="http://creativecommons.org/ns#"
   xmlns:rdf="http://www.w3.org/1999/02/22-rdf-syntax-ns#"
   xmlns:svg="http://www.w3.org/2000/svg"
   xmlns="http://www.w3.org/2000/svg"
   xmlns:sodipodi="http://sodipodi.sourceforge.net/DTD/sodipodi-0.dtd"
   xmlns:inkscape="http://www.inkscape.org/namespaces/inkscape"
   version="1.1"
   viewBox="0 0 197 176"
   width="197.0pt"
   height="176.0pt"
   id="svg38"
   sodipodi:docname="15-moveis-usados.svg"
   inkscape:export-filename="C:\Users\aretu\OneDrive\Documentos\NetBeansProjects\ReciEco\web\icones\15-moveis-usados.png"
   inkscape:export-xdpi="160"
   inkscape:export-ydpi="160"
   inkscape:version="0.92.4 (5da689c313, 2019-01-14)">
  <metadata
     id="metadata44">
    <rdf:RDF>
      <cc:Work
         rdf:about="">
        <dc:format>image/svg+xml</dc:format>
        <dc:type
           rdf:resource="http://purl.org/dc/dcmitype/StillImage" />
      </cc:Work>
    </rdf:RDF>
  </metadata>
  <defs
     id="defs42" />
  <sodipodi:namedview
     pagecolor="#ffffff"
     bordercolor="#666666"
     borderopacity="1"
     objecttolerance="10"
     gridtolerance="10"
     guidetolerance="10"
     inkscape:pageopacity="0"
     inkscape:pageshadow="2"
     inkscape:window-width="760"
     inkscape:window-height="480"
     id="namedview40"
     showgrid="false"
     inkscape:zoom="1.0056818"
     inkscape:cx="131.33333"
     inkscape:cy="117.33333"
     inkscape:window-x="0"
     inkscape:window-y="0"
     inkscape:window-maximized="0"
     inkscape:current-layer="svg38" />
  <path
     d="M 105.00 8.51 C 136.71 9.62 166.37 30.43 178.08 59.92 C 184.47 74.42 185.55 90.51 183.25 106.05 C 181.46 114.79 178.72 123.55 174.41 131.39 C 167.39 144.18 157.22 155.20 144.66 162.70 C 135.64 168.58 125.51 171.89 115.00 173.89 C 107.61 174.93 100.49 176.15 93.04 174.72 C 84.70 173.93 76.99 172.02 69.27 168.76 C 42.92 158.06 23.02 133.30 18.79 105.10 C 16.14 89.64 18.16 73.63 24.21 59.19 C 30.07 45.40 39.64 33.59 51.53 24.54 C 66.93 13.34 85.94 7.40 105.00 8.51 Z"
     fill="#6c97c9"
     id="path4" />
  <path
     d="M 90.27 11.23 C 101.45 10.01 113.46 10.33 124.23 13.87 C 142.34 19.03 157.95 31.04 168.53 46.50 C 184.85 70.39 186.68 102.81 173.52 128.52 C 169.01 136.59 164.29 144.11 157.27 150.27 C 139.75 167.51 114.06 175.80 89.77 172.15 C 76.96 170.59 64.58 165.28 54.01 157.99 C 37.49 146.17 25.22 127.77 21.49 107.74 C 18.94 95.84 19.60 83.10 22.35 71.29 C 27.12 53.80 37.35 37.83 51.98 26.99 C 63.10 18.42 76.32 12.93 90.27 11.23 Z"
     fill="#ffffff"
     id="path6" />
  <path
     d="M 105.30 32.34 C 108.33 31.83 111.18 32.47 113.07 35.03 C 115.07 37.40 114.96 40.05 115.04 42.97 C 114.99 50.82 115.12 58.64 114.69 66.47 C 127.05 68.94 139.37 71.64 151.74 74.08 C 155.23 74.71 157.40 75.62 160.14 77.85 C 160.34 91.91 160.29 105.98 160.24 120.04 C 159.04 120.32 157.84 120.61 156.64 120.89 C 156.66 125.24 156.60 129.58 156.52 133.93 C 151.89 135.42 148.80 135.40 144.05 134.33 C 144.00 131.12 143.93 127.91 143.86 124.70 C 139.29 125.61 134.85 126.91 130.45 128.45 C 121.79 131.44 112.97 133.85 104.23 136.58 C 104.24 141.09 104.23 145.61 104.13 150.12 C 100.04 151.14 97.16 151.10 93.06 150.17 C 92.96 146.87 92.92 143.57 92.87 140.27 C 83.37 139.58 74.11 135.82 64.81 133.80 C 64.78 135.67 64.75 137.55 64.74 139.42 C 62.58 139.95 60.32 140.75 58.09 140.79 C 55.68 140.56 53.27 139.68 50.95 139.01 C 50.90 136.04 50.88 133.06 50.78 130.09 C 47.68 129.32 44.62 128.43 41.58 127.46 C 42.02 117.99 41.74 108.48 41.80 99.00 C 41.89 94.54 41.33 89.73 42.30 85.37 C 43.91 82.67 48.53 82.13 51.28 81.31 C 51.41 71.15 51.10 60.95 51.42 50.78 C 51.54 47.54 53.58 44.51 56.85 43.79 C 65.05 41.51 73.52 40.24 81.79 38.20 C 89.70 36.54 97.35 33.68 105.30 32.34 Z"
     fill="#6c97c9"
     id="path8" />
  <path
     d="M 108.12 34.68 C 111.09 34.98 112.28 37.34 112.49 40.04 C 112.77 46.70 112.29 53.35 112.98 60.01 C 114.03 71.69 112.10 83.11 112.53 94.80 C 109.86 95.59 107.03 96.72 104.24 96.86 C 101.88 95.75 99.55 93.66 96.96 93.28 C 92.71 92.62 88.56 92.33 84.52 90.68 C 78.65 88.24 72.52 87.08 66.43 85.39 C 65.47 77.57 65.82 69.86 65.79 62.00 C 65.77 57.69 66.53 53.21 66.01 48.95 C 65.93 46.47 63.04 45.19 61.43 43.68 C 72.72 41.89 83.64 38.35 94.97 36.83 C 99.26 36.19 103.79 34.50 108.12 34.68 Z"
     fill="#ffffff"
     id="path10" />
  <path
     d="M 62.70 45.76 C 64.23 51.08 64.25 56.40 64.51 61.99 C 64.55 69.65 64.85 77.10 63.82 84.71 C 60.09 83.75 56.37 82.91 52.59 82.17 C 52.84 73.75 53.43 65.44 52.52 57.02 C 52.56 53.61 51.72 48.04 55.05 45.90 C 57.48 44.00 59.98 45.35 62.70 45.76 Z"
     fill="#ffffff"
     id="path12" />
  <path
     d="M 114.36 68.69 C 126.26 70.74 137.95 73.67 149.78 75.99 C 148.99 78.63 148.24 81.21 148.29 84.00 C 148.37 89.90 148.45 95.80 148.35 101.70 C 137.09 99.51 125.80 97.42 114.58 95.03 C 115.34 86.21 114.65 77.50 114.36 68.69 Z"
     fill="#ffffff"
     id="path14" />
  <path
     d="M 157.93 78.00 C 158.74 91.38 157.86 104.86 158.49 118.26 C 155.81 118.94 153.13 119.60 150.44 120.19 C 150.38 108.12 150.42 96.05 150.36 83.98 C 150.51 82.09 150.21 79.25 151.85 77.92 C 153.25 76.08 156.08 77.65 157.93 78.00 Z"
     fill="#ffffff"
     id="path16" />
  <path
     d="M 55.49 84.39 C 62.08 86.82 68.96 88.43 75.74 90.28 C 81.06 91.35 86.36 92.36 91.60 93.79 C 90.09 96.77 88.74 99.53 88.88 102.98 C 88.88 114.52 88.93 126.07 88.89 137.62 C 73.91 133.98 59.06 129.81 44.07 126.20 C 43.92 114.46 44.06 102.71 43.96 90.97 C 43.85 88.08 44.87 85.65 46.07 83.11 C 49.30 83.16 52.43 83.24 55.49 84.39 Z"
     fill="#ffffff"
     id="path18" />
  <path
     d="M 96.92 95.30 C 98.40 96.15 100.54 96.96 101.46 98.48 C 102.11 100.52 101.96 102.88 102.01 105.00 C 101.95 114.94 102.09 124.89 101.91 134.83 C 98.33 135.88 94.75 136.83 91.12 137.64 C 90.93 126.76 91.09 115.88 90.99 105.00 C 91.07 102.20 90.88 99.25 92.89 97.03 C 93.99 96.14 95.61 95.81 96.92 95.30 Z"
     fill="#ffffff"
     id="path20" />
  <path
     d="M 116.69 97.67 C 125.63 99.44 134.54 101.39 143.49 103.15 C 130.66 107.80 117.38 110.94 104.34 115.01 C 104.16 109.85 104.17 104.69 104.14 99.53 C 108.08 98.66 112.68 96.83 116.69 97.67 Z"
     fill="#ffffff"
     id="path22" />
  <path
     d="M 148.28 104.72 C 148.43 110.16 148.49 115.60 148.21 121.04 C 133.35 124.68 119.06 130.42 104.24 134.17 C 104.20 128.56 104.21 122.96 104.24 117.35 C 118.85 112.96 133.49 108.45 148.28 104.72 Z"
     fill="#ffffff"
     id="path24" />
  <path
     d="M 154.21 121.48 C 154.55 125.26 154.59 128.94 154.24 132.72 C 153.05 132.81 151.85 132.91 150.66 133.00 C 150.55 129.58 150.38 126.15 150.49 122.72 C 151.72 122.29 152.96 121.87 154.21 121.48 Z"
     fill="#ffffff"
     id="path26" />
  <path
     d="M 148.12 122.45 C 148.45 126.04 148.43 129.64 148.43 133.25 L 146.15 133.37 C 146.40 129.97 144.69 124.55 148.12 122.45 Z"
     fill="#ffffff"
     id="path28" />
  <path
     d="M 53.25 130.86 C 54.55 131.20 55.85 131.53 57.14 131.92 C 57.25 133.97 57.28 136.01 57.30 138.07 C 55.90 137.88 54.49 137.69 53.09 137.50 C 53.13 135.29 53.18 133.07 53.25 130.86 Z"
     fill="#ffffff"
     id="path30" />
  <path
     d="M 59.59 132.77 C 60.67 132.76 61.76 132.84 62.83 132.91 C 62.77 134.57 62.71 136.24 62.65 137.90 C 61.49 137.91 60.33 137.92 59.17 137.93 C 59.28 136.21 59.34 134.47 59.59 132.77 Z"
     fill="#ffffff"
     id="path32" />
  <path
     d="M 99.61 138.04 C 100.44 137.83 101.28 137.65 102.12 137.50 C 102.23 140.99 102.18 144.49 102.21 147.99 C 101.34 148.39 100.48 148.79 99.61 149.18 C 99.45 145.52 99.16 141.69 99.61 138.04 Z"
     fill="#ffffff"
     id="path34" />
  <path
     d="M 96.04 137.66 C 97.50 140.65 98.75 147.29 95.40 149.43 C 94.90 145.45 94.78 141.53 96.04 137.66 Z"
     fill="#ffffff"
     id="path36" />
</svg>
