<?xml version="1.0" encoding="UTF-8" standalone="no"?>
<svg
   xmlns:dc="http://purl.org/dc/elements/1.1/"
   xmlns:cc="http://creativecommons.org/ns#"
   xmlns:rdf="http://www.w3.org/1999/02/22-rdf-syntax-ns#"
   xmlns:svg="http://www.w3.org/2000/svg"
   xmlns="http://www.w3.org/2000/svg"
   xmlns:sodipodi="http://sodipodi.sourceforge.net/DTD/sodipodi-0.dtd"
   xmlns:inkscape="http://www.inkscape.org/namespaces/inkscape"
   version="1.1"
   viewBox="0 0 198 186"
   width="198.0pt"
   height="186.0pt"
   id="svg52"
   sodipodi:docname="16-ferro-velho.svg"
   inkscape:export-filename="C:\Users\aretu\OneDrive\Documentos\NetBeansProjects\ReciEco\web\icones\16-ferro-velho.png"
   inkscape:export-xdpi="160"
   inkscape:export-ydpi="160"
   inkscape:version="0.92.4 (5da689c313, 2019-01-14)">
  <metadata
     id="metadata58">
    <rdf:RDF>
      <cc:Work
         rdf:about="">
        <dc:format>image/svg+xml</dc:format>
        <dc:type
           rdf:resource="http://purl.org/dc/dcmitype/StillImage" />
      </cc:Work>
    </rdf:RDF>
  </metadata>
  <defs
     id="defs56" />
  <sodipodi:namedview
     pagecolor="#ffffff"
     bordercolor="#666666"
     borderopacity="1"
     objecttolerance="10"
     gridtolerance="10"
     guidetolerance="10"
     inkscape:pageopacity="0"
     inkscape:pageshadow="2"
     inkscape:window-width="760"
     inkscape:window-height="480"
     id="namedview54"
     showgrid="false"
     inkscape:zoom="0.9516129"
     inkscape:cx="132"
     inkscape:cy="124"
     inkscape:window-x="0"
     inkscape:window-y="0"
     inkscape:window-maximized="0"
     inkscape:current-layer="svg52" />
  <path
     d="M 80.46 10.57 C 95.40 8.03 110.91 9.58 125.06 14.99 C 137.68 20.02 148.86 28.00 157.82 38.19 C 167.86 50.12 174.69 64.57 177.10 79.99 C 179.52 95.87 177.08 112.11 170.79 126.83 C 159.81 150.51 138.02 169.01 112.22 174.21 C 93.58 178.10 73.91 175.91 56.96 167.07 C 43.01 160.03 31.46 149.04 23.17 135.84 C 17.80 126.70 13.91 116.48 12.21 106.01 C 10.22 89.82 11.42 73.61 18.52 58.74 C 24.36 44.73 34.46 33.54 46.50 24.52 C 56.83 17.67 68.14 12.52 80.46 10.57 Z"
     fill="#6a95c7"
     id="path4" />
  <path
     d="M 78.55 13.00 C 88.29 11.08 98.22 11.10 108.02 12.58 C 124.59 15.29 140.00 23.30 151.99 35.01 C 158.41 41.97 164.16 49.26 168.05 57.96 C 178.53 80.01 178.45 106.64 167.53 128.52 C 161.29 141.45 151.47 152.54 139.51 160.45 C 125.45 169.60 108.82 174.60 92.00 173.96 C 76.61 173.58 61.75 168.50 48.97 160.02 C 24.41 143.62 10.41 113.38 13.83 84.03 C 15.59 68.12 21.77 53.33 31.95 40.97 C 38.08 33.21 45.81 27.36 54.18 22.22 C 61.73 17.69 69.98 14.85 78.55 13.00 Z"
     fill="#ffffff"
     id="path6" />
  <path
     d="M 110.42 27.31 C 111.90 31.64 113.34 35.98 114.70 40.34 C 116.51 41.23 118.31 42.13 120.11 43.04 C 124.58 43.55 129.27 43.86 132.05 47.95 C 135.59 53.81 133.59 60.03 131.25 65.88 C 129.29 60.72 127.95 55.70 124.02 51.58 C 123.40 56.95 123.06 62.33 122.20 67.67 C 120.45 67.72 118.69 67.79 116.94 67.84 C 116.39 61.40 116.13 55.34 112.81 49.59 C 111.38 50.91 110.27 52.47 109.21 54.09 C 105.14 54.09 101.08 54.17 97.01 54.09 C 96.20 52.30 95.37 50.52 94.55 48.73 C 91.74 48.64 87.94 47.29 85.95 49.91 C 83.19 53.00 83.18 58.45 82.84 62.35 C 80.62 63.40 78.40 64.43 76.17 65.43 C 75.92 63.36 75.68 61.30 75.42 59.23 C 74.10 60.12 72.78 61.00 71.45 61.88 C 70.66 56.00 69.14 47.75 74.60 43.59 C 79.12 40.16 86.54 40.31 91.98 39.83 C 93.45 35.93 94.38 31.72 96.25 28.00 C 100.43 26.28 105.98 27.14 110.42 27.31 Z"
     fill="#6a95c7"
     id="path8" />
  <path
     d="M 98.14 29.68 C 101.04 28.92 105.58 28.92 108.49 29.64 C 110.42 32.82 111.27 36.76 112.34 40.31 C 109.73 41.00 106.61 41.55 104.34 43.08 C 103.86 45.20 103.76 47.44 103.55 49.60 C 105.74 49.11 107.92 48.59 110.11 48.09 C 109.49 49.45 108.86 50.81 108.23 52.17 C 105.18 52.09 102.13 52.05 99.08 51.98 C 99.35 48.90 99.53 45.82 99.69 42.73 C 97.81 41.97 95.92 41.23 94.04 40.48 C 95.33 36.90 96.30 33.02 98.14 29.68 Z"
     fill="#ffffff"
     id="path10" />
  <path
     d="M 86.97 42.31 C 91.49 42.09 95.98 42.53 98.30 47.00 C 94.08 46.84 88.28 44.34 84.97 47.93 C 81.10 51.47 81.22 58.40 78.86 63.07 C 76.72 57.56 76.68 51.69 79.61 46.46 C 81.26 44.00 84.04 42.54 86.97 42.31 Z"
     fill="#ffffff"
     id="path12" />
  <path
     d="M 114.08 43.00 C 117.58 43.21 119.94 45.87 120.64 49.16 C 121.66 54.85 121.20 60.89 119.77 66.48 C 118.02 60.47 118.40 53.42 114.47 48.50 C 112.62 45.75 107.94 45.98 105.05 45.21 C 108.01 43.85 110.70 42.49 114.08 43.00 Z"
     fill="#ffffff"
     id="path14" />
  <path
     d="M 77.39 44.09 C 76.41 49.08 75.69 53.90 73.14 58.40 C 72.58 54.13 72.29 50.16 74.76 46.40 C 75.63 45.62 76.50 44.85 77.39 44.09 Z"
     fill="#ffffff"
     id="path16" />
  <path
     d="M 121.25 45.15 C 124.49 45.97 128.57 46.30 130.40 49.55 C 131.57 51.98 131.47 55.19 131.63 57.86 C 128.93 52.72 123.63 50.39 121.25 45.15 Z"
     fill="#ffffff"
     id="path18" />
  <path
     d="M 78.48 67.30 C 86.20 69.15 93.90 71.12 101.53 73.31 C 105.99 74.67 110.12 76.02 113.42 79.51 C 118.12 84.34 120.41 90.19 122.78 96.35 C 123.39 98.54 125.38 98.25 127.21 98.71 C 134.01 99.57 140.75 99.90 147.38 101.82 C 144.17 103.65 140.87 105.30 137.54 106.91 C 141.91 109.65 149.05 111.87 151.09 116.89 C 152.40 120.82 153.14 125.05 153.91 129.13 C 154.67 132.82 151.62 135.06 149.01 136.97 C 142.16 141.53 133.03 143.48 125.07 145.20 C 120.13 146.08 114.99 147.51 109.97 147.42 C 106.16 146.79 102.50 144.74 98.98 143.21 C 99.72 138.28 100.47 133.83 97.72 129.33 C 96.23 126.79 93.60 123.81 90.33 125.33 C 87.10 126.93 85.78 131.92 83.66 134.69 C 80.61 134.97 77.79 134.34 75.00 133.13 C 68.21 130.28 61.44 127.37 54.66 124.48 C 54.79 120.68 55.34 116.77 53.78 113.17 C 52.67 110.42 50.19 108.63 48.03 106.73 C 45.81 109.08 43.78 111.52 41.84 114.10 C 39.51 114.03 37.18 113.96 34.86 113.87 C 35.76 99.07 40.62 85.43 49.14 73.32 C 56.13 71.68 63.01 69.63 69.93 67.73 C 72.76 66.94 75.59 66.58 78.48 67.30 Z"
     fill="#6a95c7"
     id="path20" />
  <path
     d="M 71.49 69.58 C 76.00 68.48 79.85 69.85 84.22 70.83 C 91.58 72.74 99.22 74.54 106.31 77.21 C 101.03 79.17 95.60 80.76 90.19 82.32 C 85.29 83.78 80.79 81.94 76.06 80.72 C 68.96 78.60 61.76 76.92 54.74 74.56 C 60.28 72.81 65.83 70.89 71.49 69.58 Z"
     fill="#ffffff"
     id="path22" />
  <path
     d="M 50.00 76.13 C 55.69 76.85 61.27 79.00 66.80 80.52 C 64.01 86.03 61.47 91.62 59.71 97.56 C 53.68 95.83 47.66 94.06 41.65 92.22 C 43.78 86.79 46.07 80.53 50.00 76.13 Z"
     fill="#ffffff"
     id="path24" />
  <path
     d="M 109.61 79.01 C 115.42 84.32 118.85 90.82 121.12 98.28 C 113.32 101.69 105.32 104.32 97.80 108.36 C 97.74 109.71 97.66 111.05 97.60 112.39 C 104.05 116.51 110.16 121.07 116.86 124.81 C 122.94 122.80 128.84 120.31 134.68 117.68 C 138.76 115.86 142.54 113.77 146.97 112.87 C 144.75 114.85 142.27 116.53 140.09 118.55 C 139.91 120.89 140.54 123.37 140.87 125.68 C 144.12 124.35 147.30 122.86 150.55 121.54 C 150.55 122.62 150.55 123.69 150.56 124.77 C 140.02 130.51 129.08 135.51 117.02 136.81 C 112.50 137.22 106.47 137.22 102.59 134.53 C 100.96 132.03 100.14 129.04 98.34 126.60 C 95.45 122.69 90.26 120.75 85.63 122.63 C 81.76 124.52 79.51 128.38 77.36 131.91 C 72.59 129.79 67.76 127.79 62.97 125.72 C 62.69 117.54 64.04 109.78 66.18 101.93 C 76.13 104.83 86.04 107.83 95.91 110.98 C 96.38 110.09 96.86 109.21 97.34 108.32 C 95.62 100.00 94.04 92.04 89.39 84.74 C 96.15 82.94 102.77 80.44 109.61 79.01 Z"
     fill="#ffffff"
     id="path26" />
  <path
     d="M 71.22 79.99 C 69.67 86.47 66.80 92.58 64.81 98.94 C 63.78 98.82 62.75 98.69 61.72 98.55 C 63.70 92.35 65.79 84.06 71.22 79.99 Z"
     fill="#ffffff"
     id="path28" />
  <path
     d="M 73.55 82.45 C 76.32 82.60 79.10 83.43 81.77 84.18 C 84.80 85.17 87.59 85.81 89.28 88.79 C 92.52 94.47 93.70 101.71 94.89 108.08 C 85.65 105.55 76.16 103.13 67.23 99.70 C 68.10 94.58 70.85 86.91 73.55 82.45 Z"
     fill="#ffffff"
     id="path30" />
  <path
     d="M 40.82 94.35 C 48.60 96.42 56.26 98.97 63.96 101.33 C 61.89 108.94 60.66 116.21 60.74 124.14 C 59.62 123.99 58.51 123.84 57.39 123.69 C 57.14 119.94 57.19 115.78 55.81 112.27 C 54.51 108.82 51.47 106.07 47.96 105.00 C 44.05 104.15 41.07 105.90 37.59 107.28 C 38.48 102.92 39.56 98.62 40.82 94.35 Z"
     fill="#ffffff"
     id="path32" />
  <path
     d="M 124.97 100.47 C 130.14 100.87 135.28 101.80 140.38 102.65 C 135.34 105.25 130.24 107.89 124.96 109.96 C 122.29 111.00 119.75 110.70 116.98 110.49 C 111.95 110.03 106.91 109.68 101.89 109.05 C 106.79 106.27 111.90 104.20 117.12 102.10 C 119.72 101.11 122.12 100.15 124.97 100.47 Z"
     fill="#ffffff"
     id="path34" />
  <path
     d="M 43.57 106.86 C 42.71 108.60 41.86 110.34 41.01 112.08 C 39.85 111.84 38.69 111.60 37.53 111.36 C 39.51 109.82 41.53 108.33 43.57 106.86 Z"
     fill="#ffffff"
     id="path36" />
  <path
     d="M 134.99 108.16 C 137.41 108.90 139.64 110.54 141.80 111.85 C 136.47 114.65 131.02 117.10 125.48 119.45 C 123.08 120.42 120.51 121.42 117.92 121.71 C 115.76 121.94 114.04 120.80 112.27 119.74 C 108.28 117.18 104.43 114.38 100.81 111.31 C 107.25 111.53 113.61 112.38 120.02 112.85 C 125.31 113.59 129.92 109.12 134.99 108.16 Z"
     fill="#ffffff"
     id="path38" />
  <path
     d="M 67.06 108.66 C 71.33 109.04 74.96 110.12 78.13 113.12 C 74.65 112.72 71.32 111.96 68.01 110.82 C 67.67 110.11 67.36 109.39 67.06 108.66 Z"
     fill="#6a95c7"
     id="path40" />
  <path
     d="M 148.12 116.06 C 148.87 116.98 149.62 117.90 150.36 118.83 C 147.82 120.23 145.26 121.58 142.69 122.92 C 142.41 121.62 142.13 120.32 141.85 119.02 C 143.90 118.01 145.99 116.92 148.12 116.06 Z"
     fill="#ffffff"
     id="path42" />
  <path
     d="M 128.47 123.38 C 129.74 125.67 131.02 127.96 132.29 130.25 C 127.19 131.53 122.10 132.87 117.03 134.30 C 116.35 131.40 115.73 128.48 115.14 125.55 C 119.55 124.60 123.98 123.91 128.47 123.38 Z"
     fill="#6a95c7"
     id="path44" />
  <path
     d="M 86.68 124.28 C 84.84 127.90 83.31 131.39 79.98 133.92 C 80.87 129.44 83.20 126.99 86.68 124.28 Z"
     fill="#ffffff"
     id="path46" />
  <path
     d="M 126.85 126.23 C 127.91 126.94 128.85 127.86 129.83 128.67 C 126.16 129.82 122.44 130.71 118.70 131.62 C 118.39 130.15 118.09 128.67 117.79 127.19 C 120.71 126.75 123.90 125.89 126.85 126.23 Z"
     fill="#ffffff"
     id="path48" />
  <path
     d="M 151.74 126.97 C 151.81 128.44 152.07 130.17 151.57 131.58 C 150.28 133.77 147.67 135.32 145.49 136.50 C 137.72 140.59 128.56 142.33 120.01 143.99 C 116.76 144.57 113.31 145.41 109.99 145.24 C 106.99 144.76 104.00 143.16 101.24 141.90 C 101.47 140.33 101.70 138.76 101.94 137.19 C 106.60 138.39 111.18 139.41 116.04 139.05 C 125.32 138.41 134.69 135.02 143.02 130.99 C 145.89 129.64 148.72 127.92 151.74 126.97 Z"
     fill="#ffffff"
     id="path50" />
</svg>
