<?xml version="1.0" encoding="UTF-8" standalone="no"?>
<svg
   xmlns:dc="http://purl.org/dc/elements/1.1/"
   xmlns:cc="http://creativecommons.org/ns#"
   xmlns:rdf="http://www.w3.org/1999/02/22-rdf-syntax-ns#"
   xmlns:svg="http://www.w3.org/2000/svg"
   xmlns="http://www.w3.org/2000/svg"
   xmlns:sodipodi="http://sodipodi.sourceforge.net/DTD/sodipodi-0.dtd"
   xmlns:inkscape="http://www.inkscape.org/namespaces/inkscape"
   version="1.1"
   viewBox="0 0 181 181"
   width="181.0pt"
   height="181.0pt"
   id="svg52"
   sodipodi:docname="2-papel.svg"
   inkscape:export-filename="C:\Users\aretu\OneDrive\Documentos\NetBeansProjects\ReciEco\web\icones\2-papel.png"
   inkscape:export-xdpi="160"
   inkscape:export-ydpi="160"
   inkscape:version="0.92.4 (5da689c313, 2019-01-14)">
  <metadata
     id="metadata58">
    <rdf:RDF>
      <cc:Work
         rdf:about="">
        <dc:format>image/svg+xml</dc:format>
        <dc:type
           rdf:resource="http://purl.org/dc/dcmitype/StillImage" />
      </cc:Work>
    </rdf:RDF>
  </metadata>
  <defs
     id="defs56" />
  <sodipodi:namedview
     pagecolor="#ffffff"
     bordercolor="#666666"
     borderopacity="1"
     objecttolerance="10"
     gridtolerance="10"
     guidetolerance="10"
     inkscape:pageopacity="0"
     inkscape:pageshadow="2"
     inkscape:window-width="1024"
     inkscape:window-height="705"
     id="namedview54"
     showgrid="false"
     inkscape:zoom="0.97790055"
     inkscape:cx="120.66667"
     inkscape:cy="120.66667"
     inkscape:window-x="-8"
     inkscape:window-y="-8"
     inkscape:window-maximized="1"
     inkscape:current-layer="svg52" />
  <path
     d="M 89.00 9.11 C 102.25 8.80 115.63 12.61 127.33 18.67 C 143.91 27.50 157.31 41.93 164.90 59.10 C 171.01 73.96 173.85 90.06 170.69 106.00 C 168.20 124.03 158.82 141.18 145.54 153.56 C 126.22 172.32 97.04 180.48 70.78 174.58 C 51.63 170.67 33.91 159.48 21.98 144.01 C 13.15 132.72 7.33 119.04 5.31 104.85 C 3.23 88.63 5.13 72.13 12.26 57.31 C 20.02 40.48 33.68 26.60 50.08 18.06 C 62.06 12.02 75.56 8.75 89.00 9.11 Z"
     fill="#6996c6"
     id="path4" />
  <path
     d="M 75.49 12.68 C 93.75 10.01 112.53 13.10 128.50 22.49 C 145.85 32.35 159.10 48.76 165.20 67.75 C 169.39 80.35 170.22 93.87 168.03 106.95 C 164.85 122.66 157.65 137.82 146.13 149.12 C 128.59 167.70 101.45 176.80 76.25 172.82 C 61.14 170.64 46.67 163.84 35.10 153.91 C 22.02 142.50 12.72 126.99 9.01 110.01 C 6.09 96.17 6.56 81.47 11.04 68.01 C 15.84 52.73 25.51 38.98 38.06 29.06 C 48.80 20.47 61.92 14.80 75.49 12.68 Z"
     fill="#f5f9fe"
     id="path6" />
  <path
     d="M 123.00 39.91 C 124.79 40.00 127.78 39.33 129.01 40.92 C 129.24 43.36 129.09 45.87 129.01 48.32 C 130.44 47.91 132.35 46.59 133.82 46.91 C 136.22 48.60 138.15 51.11 140.11 53.29 C 141.53 53.18 142.95 53.07 144.38 52.96 C 145.01 63.28 144.53 73.66 144.68 84.00 C 144.62 102.75 144.65 121.51 144.57 140.26 C 139.19 140.67 133.82 141.14 128.47 141.77 C 128.46 140.83 128.46 139.88 128.47 138.94 C 132.93 138.61 137.38 138.16 141.83 137.71 C 141.91 131.46 142.34 125.23 142.21 118.99 C 141.95 102.66 142.02 86.33 142.02 70.00 C 142.02 65.00 142.21 60.13 141.45 55.16 C 140.16 58.02 140.29 60.94 140.31 64.00 C 140.52 87.44 140.11 110.90 140.46 134.33 C 125.46 136.18 110.43 137.75 95.43 139.55 C 96.33 140.25 97.23 140.95 98.13 141.64 C 107.59 140.75 117.11 140.24 126.54 139.04 C 126.55 140.02 126.55 141.00 126.55 141.98 C 115.03 142.91 103.45 143.64 92.00 145.21 C 85.48 146.02 79.73 144.44 73.03 143.90 C 59.24 142.71 45.45 141.46 31.66 140.18 C 31.53 119.46 31.65 98.73 31.61 78.00 C 31.68 69.72 31.43 61.41 31.80 53.14 C 33.17 53.19 34.54 53.25 35.92 53.30 C 37.53 51.90 39.19 50.07 41.18 49.24 C 57.01 45.94 73.78 48.29 87.53 57.02 C 90.04 53.66 92.51 50.44 96.06 48.08 C 103.76 42.75 113.78 40.50 123.00 39.91 Z"
     fill="#6996c6"
     id="path8" />
  <path
     d="M 126.36 42.51 C 126.34 67.15 126.34 91.79 126.32 116.43 C 111.76 117.26 99.30 124.63 89.46 135.04 C 89.35 110.98 89.49 87.04 89.37 62.97 C 89.06 57.92 92.70 54.26 96.29 51.27 C 104.45 44.67 116.17 42.88 126.36 42.51 Z"
     fill="#f5f9fe"
     id="path10" />
  <path
     d="M 131.66 49.62 C 132.37 57.01 131.92 64.57 132.03 72.00 C 131.96 89.97 132.20 107.95 131.86 125.92 C 118.46 127.47 105.68 128.96 93.26 134.61 C 99.45 129.55 105.38 124.80 112.98 121.97 C 118.09 119.90 123.42 119.28 128.87 118.83 C 129.30 97.23 128.85 75.56 129.08 53.96 C 129.04 51.89 130.48 51.05 131.66 49.62 Z"
     fill="#f5f9fe"
     id="path12" />
  <path
     d="M 70.51 52.51 C 76.00 54.00 82.01 56.17 86.36 59.95 C 86.88 62.21 86.70 64.69 86.76 67.00 C 86.69 90.13 86.77 113.25 86.74 136.38 C 81.57 133.59 76.48 130.93 70.82 129.28 C 61.75 126.60 51.88 125.83 42.45 125.65 C 42.31 106.43 42.56 87.22 42.39 68.00 C 42.45 62.54 42.29 57.06 42.56 51.61 C 51.76 50.11 61.46 50.15 70.51 52.51 Z"
     fill="#f5f9fe"
     id="path14" />
  <path
     d="M 134.79 51.35 C 135.71 52.36 136.64 53.38 137.50 54.43 C 137.89 58.93 137.75 63.49 137.81 68.00 C 137.80 88.62 137.86 109.25 137.76 129.87 C 136.73 128.68 135.70 127.50 134.67 126.32 C 134.79 101.33 134.53 76.33 134.79 51.35 Z"
     fill="#f5f9fe"
     id="path16" />
  <path
     d="M 39.35 53.24 C 40.09 58.88 39.78 64.34 39.81 70.00 C 39.83 85.33 39.79 100.67 39.82 116.00 C 39.78 120.42 40.31 124.40 38.89 128.67 C 38.60 126.12 38.47 123.57 38.47 121.00 C 38.54 104.00 38.48 87.00 38.51 70.00 C 38.57 64.23 38.03 58.93 39.35 53.24 Z"
     fill="#f5f9fe"
     id="path18" />
  <path
     d="M 121.47 54.60 L 120.86 56.57 C 116.33 57.46 111.87 57.69 107.56 59.55 C 102.02 61.57 98.06 65.52 92.90 68.11 C 93.48 64.06 96.51 62.62 99.59 60.58 C 105.93 56.65 113.93 53.71 121.47 54.60 Z"
     fill="#6996c6"
     id="path20" />
  <path
     d="M 35.50 55.21 C 35.91 58.46 36.02 61.73 36.00 65.00 C 35.99 88.15 36.02 111.30 35.99 134.46 C 50.91 136.30 65.89 137.63 80.80 139.53 C 79.86 140.24 78.91 140.95 77.96 141.67 C 63.39 140.40 48.82 139.05 34.26 137.76 C 34.08 112.17 34.26 86.58 34.14 60.99 C 34.12 58.85 34.29 57.03 35.50 55.21 Z"
     fill="#f5f9fe"
     id="path22" />
  <path
     d="M 47.87 57.93 C 54.17 57.49 58.32 58.16 64.02 60.78 C 64.05 70.59 64.10 80.39 63.87 90.20 C 58.52 89.08 53.26 88.28 47.78 88.19 C 47.62 78.11 47.44 68.00 47.87 57.93 Z"
     fill="#6996c6"
     id="path24" />
  <path
     d="M 50.56 60.56 C 54.41 60.07 57.78 61.23 61.34 62.49 C 61.29 70.59 61.32 78.70 61.35 86.81 C 57.71 86.22 54.07 85.85 50.39 85.62 C 50.48 77.29 50.06 68.87 50.56 60.56 Z"
     fill="#f5f9fe"
     id="path26" />
  <path
     d="M 69.00 63.16 C 74.74 62.93 79.36 65.74 83.45 69.48 C 80.11 70.75 78.38 68.81 75.55 67.52 C 72.69 66.03 69.77 65.74 66.64 65.10 C 67.47 64.19 67.57 63.10 69.00 63.16 Z"
     fill="#6996c6"
     id="path28" />
  <path
     d="M 121.10 66.46 L 121.30 69.12 C 116.17 69.45 111.18 70.12 106.48 72.35 C 101.47 74.43 97.69 78.27 92.67 80.28 C 93.31 78.91 93.81 77.14 95.00 76.13 C 102.55 70.14 111.40 66.66 121.10 66.46 Z"
     fill="#6996c6"
     id="path30" />
  <path
     d="M 74.53 76.46 C 77.83 77.89 82.34 79.01 82.45 83.38 C 77.30 80.64 72.44 78.18 66.59 77.25 C 68.24 74.04 71.89 75.77 74.53 76.46 Z"
     fill="#6996c6"
     id="path32" />
  <path
     d="M 122.43 79.65 C 120.99 80.63 119.77 81.50 118.00 81.71 C 113.30 82.50 108.75 83.30 104.49 85.56 C 100.06 87.70 97.34 91.21 92.38 92.28 C 93.47 90.41 94.53 88.63 96.37 87.38 C 103.83 82.07 113.07 77.88 122.43 79.65 Z"
     fill="#6996c6"
     id="path34" />
  <path
     d="M 68.98 88.44 C 74.26 88.92 79.42 90.83 83.50 94.27 C 81.70 94.70 80.50 95.11 78.78 94.27 C 74.76 92.59 70.71 91.32 66.51 90.19 C 67.38 89.42 67.68 88.24 68.98 88.44 Z"
     fill="#6996c6"
     id="path36" />
  <path
     d="M 122.02 91.47 L 120.46 93.46 C 116.46 94.63 112.23 94.70 108.29 96.28 C 102.56 98.19 98.57 101.86 93.58 105.01 C 93.43 104.08 93.28 103.14 93.13 102.20 C 101.61 95.57 110.95 90.83 122.02 91.47 Z"
     fill="#6996c6"
     id="path38" />
  <path
     d="M 49.88 98.46 C 54.20 98.02 58.68 98.56 62.99 99.04 C 70.63 100.25 77.93 101.66 83.53 107.45 C 80.07 108.37 77.99 106.23 74.95 105.04 C 66.36 101.22 57.96 101.19 48.81 100.58 C 49.15 99.86 49.51 99.15 49.88 98.46 Z"
     fill="#6996c6"
     id="path40" />
  <path
     d="M 121.67 103.65 L 120.78 106.03 C 115.35 107.03 110.08 107.43 105.05 110.01 C 100.63 111.71 97.52 115.65 93.09 117.09 C 92.85 114.25 94.94 113.34 96.82 111.78 C 104.20 106.36 112.48 103.58 121.67 103.65 Z"
     fill="#6996c6"
     id="path42" />
  <path
     d="M 49.82 108.33 C 54.64 107.81 59.71 108.58 64.47 109.42 C 71.54 111.08 78.52 112.62 83.39 118.48 C 79.02 118.83 76.70 115.84 72.60 114.42 C 64.86 111.67 56.98 110.98 48.88 110.44 C 49.18 109.73 49.49 109.02 49.82 108.33 Z"
     fill="#6996c6"
     id="path44" />
  <path
     d="M 132.66 128.51 C 133.85 129.76 135.03 131.01 136.22 132.26 C 122.62 133.59 109.07 135.48 95.46 136.66 C 107.55 131.25 119.72 130.13 132.66 128.51 Z"
     fill="#f5f9fe"
     id="path46" />
  <path
     d="M 43.90 128.37 C 57.14 128.50 70.02 130.55 81.86 136.72 C 76.16 136.66 70.66 135.57 65.01 135.02 C 56.51 134.22 48.08 132.95 39.58 132.17 C 40.93 130.52 41.31 128.01 43.90 128.37 Z"
     fill="#f5f9fe"
     id="path48" />
  <path
     d="M 82.71 141.94 C 86.98 140.42 89.30 140.45 93.62 141.78 C 89.81 142.75 86.55 142.74 82.71 141.94 Z"
     fill="#f5f9fe"
     id="path50" />
</svg>
