<?xml version="1.0" encoding="UTF-8" standalone="no"?>
<!DOCTYPE svg PUBLIC "-//W3C//DTD SVG 1.1//EN" "http://www.w3.org/Graphics/SVG/1.1/DTD/svg11.dtd">
<svg xmlns="http://www.w3.org/2000/svg" version="1.1" viewBox="0 0 197 186" width="197.0pt" height="186.0pt">
<path d="M 0.00 0.00 L 197.00 0.00 L 197.00 186.00 L 0.00 186.00 L 0.00 0.00 Z" fill="#ffffff" />
<path d="M 115.78 17.41 C 126.20 19.68 136.15 22.97 145.15 28.81 C 161.92 38.99 174.66 55.69 180.67 74.30 C 183.42 84.38 185.82 95.60 183.78 106.00 C 183.32 115.40 180.02 123.81 177.64 132.78 C 176.51 136.01 174.54 138.97 172.95 141.99 C 160.16 164.54 136.14 179.74 110.48 182.58 C 91.93 184.70 72.45 180.46 56.77 170.22 C 40.62 160.10 27.76 144.20 22.00 125.96 C 14.49 103.23 17.02 77.12 29.72 56.70 C 37.63 43.38 49.51 32.37 63.27 25.28 C 79.41 17.13 97.95 14.50 115.78 17.41 Z" fill="#6d97c6" />
<path d="M 119.78 20.43 C 133.61 23.89 146.99 30.77 157.15 40.87 C 165.78 48.62 172.34 58.68 176.57 69.43 C 181.79 81.66 183.15 95.86 182.58 109.03 C 181.70 116.99 179.74 124.75 175.84 131.78 C 166.15 154.73 145.12 172.60 120.96 178.58 C 106.54 182.19 91.00 181.82 76.84 177.20 C 59.54 172.20 45.09 160.85 34.57 146.43 C 20.81 127.06 16.60 101.98 22.42 79.04 C 26.50 65.04 33.33 52.11 43.96 41.97 C 51.62 34.12 60.86 28.22 71.01 24.14 C 86.19 17.77 103.81 16.96 119.78 20.43 Z" fill="#ffffff" />
<path d="M 88.43 41.47 C 104.67 38.36 121.62 40.92 135.05 50.94 C 142.20 55.48 147.62 61.82 152.16 68.88 C 160.02 81.86 162.31 97.46 159.38 112.28 C 157.06 122.84 151.85 132.51 144.66 140.54 C 139.58 145.72 133.65 150.01 127.11 153.14 C 104.14 164.98 73.47 158.97 56.80 139.20 C 46.67 128.07 41.11 113.05 41.72 98.00 C 41.74 86.23 45.88 75.12 52.46 65.48 C 61.03 53.32 73.93 44.77 88.43 41.47 Z" fill="#6d97c6" />
<path d="M 91.28 43.40 C 103.36 41.66 115.53 42.91 126.46 48.57 C 145.74 57.79 158.58 78.64 158.25 100.00 C 158.30 112.50 153.88 124.52 146.44 134.48 C 137.90 145.64 124.93 153.45 111.11 155.92 C 97.80 158.30 83.80 155.75 72.18 148.85 C 64.13 144.40 57.96 137.67 52.90 130.10 C 45.31 118.34 42.46 103.76 44.88 89.99 C 46.56 80.08 50.93 70.91 57.25 63.13 C 65.90 52.84 78.01 45.70 91.28 43.40 Z" fill="#ffffff" />
<path d="M 102.00 45.33 C 115.70 45.26 128.61 50.89 138.62 60.09 C 133.00 65.36 127.60 70.84 122.30 76.41 C 114.91 83.65 107.61 90.99 100.29 98.29 C 88.45 110.44 76.17 122.15 64.39 134.34 C 63.44 135.10 62.30 136.61 61.01 136.47 C 58.29 134.10 56.31 130.64 54.44 127.58 C 46.00 113.87 44.42 96.10 50.03 81.04 C 54.14 69.05 62.73 59.09 73.56 52.62 C 82.22 47.75 92.03 45.02 102.00 45.33 Z" fill="#6d97c6" />
<path d="M 109.02 48.23 C 118.41 49.65 127.45 53.97 134.79 59.95 C 131.14 64.61 126.22 67.81 122.41 72.31 C 121.98 70.36 121.90 68.47 122.05 66.49 C 123.62 66.58 125.19 66.68 126.76 66.79 C 127.28 66.10 127.81 65.40 128.33 64.71 C 123.47 63.75 118.93 64.31 113.99 64.18 C 105.99 64.06 98.00 64.18 90.00 64.12 C 83.96 64.23 78.01 63.68 71.98 64.33 C 72.23 69.89 72.90 75.41 73.16 80.98 C 74.22 92.33 74.56 103.76 75.97 115.08 C 76.65 115.57 77.34 116.06 78.02 116.55 C 73.04 122.45 67.21 127.63 61.85 133.18 C 57.46 128.94 54.46 123.17 52.37 117.50 C 48.21 105.95 48.10 93.04 52.52 81.54 C 56.21 71.17 63.43 62.61 72.40 56.36 C 76.18 54.02 80.29 52.12 84.42 50.48 C 92.20 47.48 100.83 47.59 109.02 48.23 Z" fill="#ffffff" />
<path d="M 140.92 62.20 C 146.43 68.59 150.94 75.54 153.31 83.71 C 156.22 93.51 156.60 103.97 153.77 113.84 C 149.63 129.81 137.83 143.19 122.76 149.76 C 115.00 153.00 106.40 154.57 98.00 154.13 C 85.17 153.22 72.75 148.05 63.52 139.02 C 84.54 118.23 105.32 97.14 126.30 76.32 C 131.04 71.42 135.60 66.51 140.92 62.20 Z" fill="#6d97c6" />
<path d="M 86.37 66.73 C 89.20 66.47 92.08 66.59 94.93 66.57 C 95.14 67.31 95.36 68.04 95.58 68.78 C 92.35 69.45 89.18 69.43 85.91 69.21 C 86.04 68.38 86.19 67.55 86.37 66.73 Z" fill="#ffffff" />
<path d="M 110.16 66.69 C 113.07 66.45 116.02 66.58 118.93 66.55 C 118.94 67.48 118.95 68.40 118.97 69.33 C 115.83 69.37 112.71 69.39 109.58 69.19 C 109.75 68.35 109.94 67.52 110.16 66.69 Z" fill="#ffffff" />
<path d="M 140.77 66.25 C 151.43 78.61 155.62 96.42 151.44 112.23 C 146.54 133.24 127.47 149.53 106.00 151.36 C 92.04 152.69 78.17 148.28 67.53 139.17 C 70.36 135.86 73.58 132.97 76.82 130.06 C 76.94 133.84 77.28 137.53 77.85 141.27 C 94.28 141.46 110.71 141.28 127.14 141.39 C 127.56 137.59 127.97 133.79 128.10 129.97 C 128.72 119.29 129.95 108.65 130.45 97.96 C 130.88 91.00 132.16 83.91 131.75 76.94 C 129.69 78.22 129.53 79.23 128.92 81.40 C 127.67 81.53 126.42 81.66 125.18 81.79 C 125.93 83.86 127.00 83.98 128.87 84.72 C 128.78 87.60 128.60 90.47 128.36 93.34 C 126.28 93.32 124.21 93.29 122.14 93.26 C 122.03 91.69 121.93 90.12 121.83 88.54 C 120.97 88.58 120.12 88.61 119.26 88.64 C 119.10 90.20 118.93 91.75 118.78 93.30 C 117.51 93.27 116.23 93.25 114.96 93.21 C 114.32 93.90 113.67 94.59 113.02 95.28 C 115.06 95.85 117.11 96.21 119.21 96.45 C 119.16 99.40 119.05 102.35 118.91 105.30 C 116.01 105.33 113.10 105.33 110.20 105.32 C 109.82 103.15 109.66 101.46 107.99 99.86 C 107.51 101.65 107.08 103.45 106.68 105.26 C 105.02 105.32 103.36 105.39 101.71 105.46 L 101.77 108.17 C 103.47 108.15 105.18 108.13 106.89 108.11 C 107.01 111.18 107.05 114.24 106.99 117.32 C 103.99 117.32 100.99 117.33 97.98 117.38 C 97.88 115.70 97.76 114.01 97.64 112.33 C 94.65 113.41 95.15 114.58 94.68 117.33 C 92.18 117.32 90.74 117.33 88.71 119.05 C 90.74 119.94 92.73 120.20 94.92 120.30 C 94.91 123.32 94.89 126.33 94.87 129.35 C 92.05 129.36 89.23 129.37 86.41 129.39 C 85.97 127.26 85.61 125.50 84.08 123.85 C 83.53 125.69 83.05 127.54 82.59 129.40 C 80.93 129.39 79.26 129.37 77.60 129.36 C 89.10 117.61 100.83 106.07 112.43 94.42 C 119.37 87.37 126.67 80.53 133.21 73.16 C 135.52 70.64 138.12 68.39 140.77 66.25 Z" fill="#ffffff" />
<path d="M 74.26 66.62 C 77.15 66.59 80.05 66.60 82.94 66.60 C 82.80 67.55 82.66 68.49 82.51 69.44 C 80.01 69.36 77.45 69.41 74.97 69.09 L 74.26 66.62 Z" fill="#ffffff" />
<path d="M 97.53 66.65 C 100.63 66.62 103.72 66.61 106.82 66.61 L 106.86 69.26 C 104.05 69.29 101.25 69.35 98.45 69.46 C 98.14 68.53 97.83 67.59 97.53 66.65 Z" fill="#ffffff" />
<path d="M 106.48 70.79 C 107.93 73.90 107.02 78.15 106.80 81.50 C 103.80 81.46 100.80 81.43 97.81 81.41 C 97.79 78.35 97.76 75.29 97.74 72.23 C 100.25 72.23 102.77 72.21 105.29 72.08 L 106.34 70.51 L 106.48 70.79 Z" fill="#ffffff" />
<path d="M 75.16 72.20 C 77.82 72.21 80.49 72.23 83.15 72.27 C 83.16 75.36 83.14 78.45 83.09 81.55 C 80.65 81.48 78.21 81.44 75.77 81.39 C 75.52 78.42 75.31 75.45 75.17 72.47 L 75.16 72.20 Z" fill="#ffffff" />
<path d="M 85.81 72.19 C 88.83 72.19 91.86 72.16 94.88 72.13 C 94.89 75.24 94.90 78.35 94.89 81.46 C 91.90 81.44 88.92 81.43 85.94 81.40 C 85.90 78.33 85.86 75.26 85.81 72.19 Z" fill="#ffffff" />
<path d="M 109.68 72.23 C 113.82 72.13 117.91 71.99 122.03 72.64 C 111.72 82.47 101.93 92.81 91.72 102.75 C 87.33 107.47 82.42 111.60 78.32 116.57 C 78.22 113.76 77.98 110.96 77.68 108.17 C 80.40 108.13 83.13 108.06 85.85 107.91 C 85.84 103.98 85.83 100.05 85.85 96.12 C 89.73 96.09 93.61 96.12 97.48 96.26 C 98.01 92.24 97.74 88.29 97.77 84.26 C 101.56 84.20 105.35 84.16 109.14 84.18 C 109.52 83.50 109.89 82.82 110.26 82.14 C 109.75 78.85 109.63 75.55 109.68 72.23 Z" fill="#ffffff" />
<path d="M 76.05 84.23 C 78.41 84.26 80.76 84.28 83.12 84.30 C 83.15 87.30 83.14 90.29 83.07 93.28 C 80.90 93.28 78.73 93.28 76.57 93.29 C 76.30 90.27 76.14 87.26 76.05 84.23 Z" fill="#ffffff" />
<path d="M 86.29 84.28 C 89.09 84.03 91.94 84.16 94.76 84.17 C 95.22 87.36 95.32 90.28 94.58 93.44 C 91.65 93.32 88.71 93.27 85.77 93.23 C 85.83 90.29 85.78 87.18 86.29 84.28 Z" fill="#ffffff" />
<path d="M 77.03 96.04 C 79.07 96.11 81.10 96.19 83.14 96.26 C 83.24 99.31 83.16 102.34 82.86 105.38 C 81.09 105.35 79.31 105.32 77.54 105.30 C 77.29 102.21 77.12 99.14 77.03 96.04 Z" fill="#ffffff" />
<path d="M 121.79 96.20 C 123.84 96.18 125.89 96.16 127.94 96.15 C 127.85 99.22 127.69 102.27 127.45 105.33 C 125.67 105.33 123.89 105.33 122.11 105.33 C 121.92 102.29 121.83 99.25 121.79 96.20 Z" fill="#ffffff" />
<path d="M 110.11 108.07 C 113.02 108.08 115.92 108.09 118.83 108.10 C 119.09 111.18 119.19 114.24 119.16 117.33 C 116.06 117.30 112.96 117.30 109.85 117.33 C 109.84 114.24 109.92 111.16 110.11 108.07 Z" fill="#ffffff" />
<path d="M 121.77 108.11 C 123.51 108.15 125.25 108.20 126.98 108.25 C 126.85 111.25 126.68 114.26 126.47 117.26 C 125.01 117.32 123.55 117.38 122.10 117.44 C 121.89 114.33 121.80 111.22 121.77 108.11 Z" fill="#ffffff" />
<path d="M 97.69 120.20 C 100.85 120.16 104.00 120.17 107.16 120.23 C 107.09 123.29 106.97 126.35 106.84 129.41 C 103.85 129.37 100.86 129.35 97.87 129.33 C 97.81 126.29 97.75 123.24 97.69 120.20 Z" fill="#ffffff" />
<path d="M 109.78 120.20 C 112.93 120.19 116.08 120.18 119.23 120.18 C 119.18 123.23 119.08 126.27 118.91 129.32 C 115.91 129.35 112.92 129.37 109.92 129.39 C 109.87 126.33 109.84 123.26 109.78 120.20 Z" fill="#ffffff" />
<path d="M 121.85 120.10 C 123.36 120.22 124.87 120.34 126.38 120.47 C 126.04 123.44 125.71 126.41 125.37 129.38 C 124.22 129.37 123.06 129.35 121.91 129.34 C 121.87 126.26 121.85 123.18 121.85 120.10 Z" fill="#ffffff" />
<path d="M 79.56 132.18 C 80.74 132.24 81.92 132.30 83.11 132.36 C 83.13 134.50 83.09 136.65 83.10 138.79 C 82.16 138.81 81.21 138.83 80.27 138.84 C 80.03 136.62 79.79 134.40 79.56 132.18 Z" fill="#ffffff" />
<path d="M 86.28 132.06 C 89.13 132.10 91.98 132.14 94.83 132.17 C 94.87 134.37 94.90 136.57 94.94 138.76 C 91.88 138.80 88.83 138.81 85.77 138.79 C 85.94 136.54 86.11 134.30 86.28 132.06 Z" fill="#ffffff" />
<path d="M 97.77 132.19 C 100.82 132.15 103.87 132.12 106.93 132.06 C 106.90 134.33 106.87 136.60 106.84 138.86 C 103.88 138.82 100.92 138.78 97.96 138.72 C 97.90 136.55 97.84 134.37 97.77 132.19 Z" fill="#ffffff" />
<path d="M 109.75 132.16 C 112.78 132.14 115.81 132.15 118.84 132.18 C 118.87 134.37 118.91 136.56 118.94 138.74 C 115.99 138.81 113.05 138.85 110.10 138.86 C 109.97 136.63 109.86 134.40 109.75 132.16 Z" fill="#ffffff" />
<path d="M 121.73 132.16 C 122.91 132.18 124.09 132.20 125.27 132.22 C 125.10 134.44 124.91 136.65 124.74 138.87 C 123.87 138.84 122.99 138.81 122.11 138.77 C 121.99 136.57 121.86 134.36 121.73 132.16 Z" fill="#ffffff" />
</svg>