<?xml version="1.0" encoding="UTF-8" standalone="no"?>
<svg
   xmlns:dc="http://purl.org/dc/elements/1.1/"
   xmlns:cc="http://creativecommons.org/ns#"
   xmlns:rdf="http://www.w3.org/1999/02/22-rdf-syntax-ns#"
   xmlns:svg="http://www.w3.org/2000/svg"
   xmlns="http://www.w3.org/2000/svg"
   xmlns:sodipodi="http://sodipodi.sourceforge.net/DTD/sodipodi-0.dtd"
   xmlns:inkscape="http://www.inkscape.org/namespaces/inkscape"
   version="1.1"
   viewBox="0 0 104 95"
   width="104.0pt"
   height="95.0pt"
   id="svg22"
   sodipodi:docname="5-residuos-perigosos.svg"
   inkscape:export-filename="C:\Users\aretu\OneDrive\Documentos\NetBeansProjects\ReciEco\web\icones\5-residuos-perigosos.png"
   inkscape:export-xdpi="276.92307"
   inkscape:export-ydpi="276.92307"
   inkscape:version="0.92.4 (5da689c313, 2019-01-14)">
  <metadata
     id="metadata28">
    <rdf:RDF>
      <cc:Work
         rdf:about="">
        <dc:format>image/svg+xml</dc:format>
        <dc:type
           rdf:resource="http://purl.org/dc/dcmitype/StillImage" />
      </cc:Work>
    </rdf:RDF>
  </metadata>
  <defs
     id="defs26" />
  <sodipodi:namedview
     pagecolor="#ffffff"
     bordercolor="#666666"
     borderopacity="1"
     objecttolerance="10"
     gridtolerance="10"
     guidetolerance="10"
     inkscape:pageopacity="0"
     inkscape:pageshadow="2"
     inkscape:window-width="1024"
     inkscape:window-height="705"
     id="namedview24"
     showgrid="false"
     inkscape:zoom="1.8631579"
     inkscape:cx="69.333333"
     inkscape:cy="63.333333"
     inkscape:window-x="-8"
     inkscape:window-y="-8"
     inkscape:window-maximized="1"
     inkscape:current-layer="svg22" />
  <path
     d="M 44.31 5.51 C 52.92 4.75 61.36 5.06 69.34 8.70 C 78.62 12.92 86.73 20.67 91.05 29.93 C 95.76 40.01 96.69 51.58 93.13 62.17 C 88.29 77.46 74.79 89.06 59.01 91.79 C 42.41 94.99 24.90 87.52 15.22 73.79 C 9.91 66.37 7.12 57.11 7.30 48.00 C 7.52 36.25 12.63 25.14 20.94 16.92 C 27.27 10.93 35.84 7.19 44.31 5.51 Z"
     fill="#4f7b95"
     id="path4" />
  <path
     d="M 45.34 6.44 C 58.71 4.63 71.95 9.01 81.69 18.27 C 87.11 24.03 91.36 31.26 93.12 39.01 C 95.99 50.96 93.28 64.09 85.89 73.92 C 77.74 85.05 63.85 92.05 50.00 91.37 C 40.98 91.36 31.85 87.55 24.49 82.53 C 16.18 75.09 9.99 65.25 8.66 54.02 C 7.98 46.16 8.63 38.34 12.02 31.12 C 14.95 24.06 20.20 18.77 26.03 14.03 C 31.28 9.58 38.66 7.45 45.34 6.44 Z"
     fill="#ffffff"
     id="path6" />
  <path
     d="M 46.99 22.56 C 53.37 22.48 60.03 22.29 66.30 23.59 C 68.72 24.02 70.54 25.38 72.49 26.75 C 71.56 27.79 70.63 28.83 69.70 29.86 C 69.71 32.68 69.75 35.49 69.79 38.30 C 70.61 39.22 71.43 40.13 72.26 41.05 C 71.41 42.04 70.57 43.04 69.72 44.04 C 69.73 48.09 69.76 52.15 69.73 56.20 C 70.36 57.15 71.00 58.10 71.63 59.06 C 71.00 59.95 70.36 60.85 69.72 61.74 C 69.69 64.10 69.54 66.53 69.83 68.88 C 70.27 70.38 71.31 71.71 71.96 73.14 C 69.83 75.98 66.26 76.24 63.01 76.79 C 56.38 77.50 49.62 77.43 42.98 77.00 C 38.59 76.39 34.42 76.33 31.45 72.56 C 32.30 71.78 33.15 71.01 34.01 70.23 C 33.95 66.61 34.81 63.47 32.66 60.27 C 30.97 58.45 34.36 56.31 34.09 54.04 C 34.17 50.27 34.81 45.49 32.74 42.19 C 31.47 40.63 33.42 39.30 34.03 37.86 C 34.10 35.22 34.12 32.58 34.14 29.94 C 33.23 28.87 32.33 27.79 31.43 26.71 C 35.94 22.93 41.38 22.86 46.99 22.56 Z"
     fill="#4f7b95"
     id="path8" />
  <path
     d="M 37.41 25.48 C 47.06 24.72 56.89 24.51 66.51 25.70 C 57.09 29.90 43.96 26.61 34.16 27.43 C 35.24 26.77 36.31 26.10 37.41 25.48 Z"
     fill="#ffffff"
     id="path10" />
  <path
     d="M 69.12 26.39 C 67.10 30.31 68.06 35.48 67.96 39.84 C 68.61 40.27 69.26 40.71 69.90 41.15 C 69.25 41.50 68.59 41.86 67.94 42.22 C 67.97 48.02 67.49 53.35 68.40 59.05 C 67.77 63.10 67.83 67.11 67.80 71.19 C 68.54 71.83 69.29 72.47 70.03 73.11 C 58.41 76.55 45.58 76.67 33.98 73.07 C 34.68 72.44 35.38 71.82 36.07 71.19 C 36.07 67.95 36.07 64.72 36.04 61.49 C 41.67 62.32 47.27 63.09 52.97 63.07 L 52.95 61.86 C 46.18 61.68 39.89 61.83 33.51 59.16 C 34.34 58.65 35.16 58.15 36.00 57.65 C 36.11 52.84 36.10 48.03 36.01 43.22 C 38.33 43.52 40.65 43.81 42.98 44.09 C 42.28 46.98 41.23 49.77 42.26 52.73 C 43.57 56.75 47.59 60.42 51.98 60.26 C 57.44 60.97 62.30 56.17 63.01 51.01 C 63.91 44.64 58.40 38.63 51.98 38.97 C 48.40 39.10 46.19 41.17 43.60 43.34 C 40.63 42.91 37.69 42.39 34.75 41.74 C 36.88 38.03 35.93 33.27 36.06 29.05 C 43.36 30.45 50.68 30.60 58.07 30.05 C 58.55 29.57 59.03 29.09 59.51 28.62 C 62.78 28.14 65.99 27.49 69.12 26.39 Z"
     fill="#ffffff"
     id="path12" />
  <path
     d="M 49.50 41.61 C 52.95 40.46 56.63 41.07 59.01 43.96 C 62.21 47.44 61.56 53.06 58.13 56.15 C 55.13 59.33 49.83 59.34 46.80 56.21 C 42.16 52.25 43.31 43.35 49.50 41.61 Z"
     fill="#ffffff"
     id="path14" />
  <path
     d="M 48.33 42.59 C 51.33 41.93 53.43 42.09 56.36 42.91 C 55.02 45.36 53.63 47.77 52.27 50.20 C 50.93 47.67 49.57 45.16 48.33 42.59 Z"
     fill="#4f7b95"
     id="path16" />
  <path
     d="M 44.45 49.57 C 46.96 49.65 49.47 49.74 51.98 49.83 C 50.99 52.04 50.08 54.20 48.75 56.23 C 46.73 56.13 46.13 54.36 45.07 52.94 C 44.85 51.82 44.64 50.69 44.45 49.57 Z"
     fill="#4f7b95"
     id="path18" />
  <path
     d="M 52.84 50.02 C 55.42 49.74 57.99 49.78 60.59 49.80 C 59.66 52.85 58.66 54.65 56.29 56.79 C 54.96 54.61 53.68 52.44 52.84 50.02 Z"
     fill="#4f7b95"
     id="path20" />
</svg>
