<?xml version="1.0" encoding="UTF-8" standalone="no"?>
<!DOCTYPE svg PUBLIC "-//W3C//DTD SVG 1.1//EN" "http://www.w3.org/Graphics/SVG/1.1/DTD/svg11.dtd">
<svg xmlns="http://www.w3.org/2000/svg" version="1.1" viewBox="0 0 179 178" width="179.0pt" height="178.0pt">
<path d="M 0.00 0.00 L 179.00 0.00 L 179.00 178.00 L 0.00 178.00 L 0.00 0.00 Z" fill="#ffffff" />
<path d="M 127.67 15.38 C 153.79 28.81 171.59 56.57 172.27 86.00 C 172.72 98.46 170.74 110.89 165.51 122.27 C 158.64 139.03 145.93 152.33 130.51 161.57 C 107.67 174.69 78.81 176.33 54.83 165.22 C 40.23 158.38 27.25 147.96 18.82 134.07 C 2.55 109.09 1.11 75.60 15.93 49.61 C 19.07 44.50 21.37 39.57 25.56 35.63 C 28.96 32.34 32.06 28.73 35.54 25.53 C 41.48 20.64 48.12 16.09 55.26 13.17 C 58.05 11.75 60.68 10.85 63.76 10.27 C 67.06 8.84 70.45 7.68 74.02 7.10 C 92.01 3.98 111.56 6.59 127.67 15.38 Z" fill="#6894c6" />
<path d="M 133.07 20.89 C 147.03 29.64 157.61 42.82 164.09 57.90 C 169.67 71.23 171.26 85.71 169.65 100.03 C 167.53 114.98 161.34 129.12 151.86 140.86 C 139.92 155.15 123.30 165.42 104.93 168.86 C 90.92 171.75 76.32 170.68 62.79 166.08 C 47.03 161.10 34.27 150.78 24.15 137.94 C 11.30 121.25 5.79 99.44 8.51 78.62 C 9.23 72.90 10.87 67.45 12.03 61.84 C 14.63 56.72 16.46 51.39 19.64 46.56 C 23.91 40.22 28.18 34.06 34.04 29.05 C 42.10 22.13 51.47 15.90 61.62 12.58 C 85.22 4.33 112.07 7.19 133.07 20.89 Z" fill="#ffffff" />
<path d="M 79.78 28.90 C 82.87 31.02 83.34 34.12 84.78 37.32 C 86.14 40.57 88.20 43.13 90.30 45.91 C 92.32 41.23 94.54 36.87 98.50 33.51 C 100.84 31.38 103.63 30.37 106.54 29.27 C 105.83 31.80 104.77 34.34 104.41 36.94 C 106.33 40.01 109.47 42.42 112.02 44.98 C 113.55 42.70 114.82 40.28 116.30 37.97 C 118.83 39.84 121.36 41.71 123.89 43.59 C 126.25 42.86 128.61 42.13 130.97 41.41 C 130.49 38.27 130.00 35.13 129.63 31.97 C 133.43 34.45 136.74 37.28 138.42 41.62 C 140.95 47.36 139.48 54.03 136.12 59.09 C 132.95 63.56 129.01 67.48 124.24 70.22 C 125.19 66.65 126.46 63.20 127.88 59.79 C 126.89 58.87 125.89 57.95 124.90 57.04 C 120.82 58.06 116.77 59.15 112.75 60.36 C 109.72 58.22 106.72 56.05 103.66 53.96 C 103.37 54.81 103.08 55.65 102.80 56.49 C 101.37 56.77 99.86 56.97 98.50 57.48 C 96.43 59.68 95.24 62.79 93.72 65.38 C 91.27 60.11 90.55 54.74 90.40 48.98 C 88.57 47.32 86.78 45.61 85.04 43.85 C 83.99 50.19 82.63 56.17 78.84 61.51 C 76.52 56.54 75.92 51.01 77.59 45.75 C 78.51 42.97 81.01 40.58 82.86 38.35 C 81.58 35.27 80.46 32.17 79.78 28.90 Z" fill="#6894c6" />
<path d="M 102.40 32.95 C 101.27 40.04 100.70 46.84 100.89 54.04 C 98.01 55.20 95.87 56.80 93.65 58.94 C 93.10 54.86 92.40 51.11 93.12 46.99 C 93.88 42.32 96.39 38.15 99.95 35.07 C 100.76 34.35 101.58 33.65 102.40 32.95 Z" fill="#ffffff" />
<path d="M 133.26 37.84 C 135.91 41.49 137.69 45.41 137.05 50.04 C 136.37 55.80 132.94 59.55 129.17 63.60 C 130.59 58.70 132.27 54.17 132.87 49.04 C 133.34 45.30 133.17 41.59 133.26 37.84 Z" fill="#ffffff" />
<path d="M 67.31 39.00 C 67.49 49.33 67.15 59.77 66.40 70.08 C 61.87 67.25 57.56 64.16 53.41 60.80 C 52.08 62.46 50.82 64.18 49.51 65.86 C 55.99 70.60 61.84 75.19 62.43 83.88 C 60.17 81.22 58.66 78.12 56.69 75.27 C 54.53 72.15 51.43 70.04 48.44 67.77 C 46.54 71.23 44.99 74.71 43.68 78.43 C 49.06 82.49 53.93 86.83 56.88 93.03 C 54.63 92.04 53.31 91.00 51.81 89.11 C 49.22 85.87 46.14 83.18 42.86 80.66 C 41.42 86.02 40.54 91.40 40.02 96.92 C 44.92 98.21 49.60 98.42 53.06 102.58 C 48.68 101.64 44.44 100.17 40.07 99.17 C 40.06 107.30 41.75 115.12 44.34 122.79 C 54.60 120.53 64.47 124.18 73.32 129.13 C 65.71 130.43 58.83 130.56 52.28 135.26 C 46.89 138.86 45.01 144.06 41.72 149.30 C 38.58 144.64 38.07 138.42 38.34 132.95 C 38.59 129.31 40.55 126.83 42.54 123.95 C 39.40 115.87 38.14 107.62 37.53 99.03 C 34.55 99.82 31.59 100.70 28.56 101.30 C 30.93 98.04 34.23 97.68 37.82 96.67 C 38.20 90.69 39.44 84.92 40.76 79.10 C 37.30 79.13 33.84 79.29 30.37 79.30 C 33.84 76.00 37.28 76.77 41.61 77.22 C 43.15 73.81 44.96 70.46 46.15 66.92 C 41.47 64.13 35.50 63.68 30.27 62.22 C 31.15 61.78 32.05 61.35 32.95 60.94 C 37.84 60.91 43.05 63.17 47.55 64.94 C 48.79 63.17 50.02 61.41 51.26 59.64 C 46.90 55.99 42.21 52.79 37.87 49.12 C 40.72 46.45 43.45 43.68 47.07 42.06 C 53.55 39.25 60.32 38.71 67.31 39.00 Z" fill="#6894c6" />
<path d="M 65.21 41.01 C 65.32 49.46 64.97 57.91 64.64 66.34 C 56.51 60.83 48.63 54.89 40.83 48.92 C 47.67 42.76 56.17 40.72 65.21 41.01 Z" fill="#ffffff" />
<path d="M 103.88 40.36 C 107.28 42.87 109.91 45.82 113.00 48.73 C 114.27 46.27 115.53 43.80 116.76 41.32 C 118.89 42.76 121.04 44.56 123.45 45.49 C 125.94 45.64 128.58 44.60 130.99 44.05 C 130.55 48.70 129.78 53.16 128.47 57.65 C 127.46 56.73 126.46 55.82 125.46 54.90 C 121.26 55.79 117.11 56.84 112.99 58.04 C 109.67 55.57 106.39 53.07 103.02 50.67 C 102.98 47.26 103.11 43.70 103.88 40.36 Z" fill="#ffffff" />
<path d="M 82.68 41.75 C 82.21 46.77 81.07 51.41 79.21 56.09 C 79.14 53.53 78.93 50.70 79.49 48.19 C 80.04 45.92 81.48 43.74 82.68 41.75 Z" fill="#ffffff" />
<path d="M 58.18 46.33 C 60.04 49.28 60.35 51.45 60.23 54.91 C 57.24 55.77 55.07 55.97 52.02 55.25 C 51.65 53.50 51.27 51.75 50.96 49.98 C 52.92 47.36 55.12 46.96 58.18 46.33 Z" fill="#6894c6" />
<path d="M 54.46 48.93 C 55.71 49.14 56.95 49.37 58.19 49.60 C 57.66 51.26 57.15 52.92 56.70 54.61 C 55.62 53.83 54.55 53.05 53.48 52.26 C 53.80 51.15 54.13 50.04 54.46 48.93 Z" fill="#ffffff" />
<path d="M 117.52 65.48 C 119.17 67.60 120.78 69.73 122.40 71.88 C 118.03 75.23 113.47 78.28 108.80 81.20 C 109.64 84.82 110.68 88.24 110.96 91.97 C 111.27 94.62 111.21 97.47 111.97 100.03 C 116.93 102.84 123.40 103.60 128.99 102.90 C 133.83 102.23 135.70 98.08 138.67 94.84 C 143.09 98.77 143.30 106.59 138.29 110.25 C 130.86 115.47 120.63 115.40 111.94 115.73 C 113.07 122.71 114.38 130.06 121.24 133.69 C 130.97 138.19 139.84 134.22 149.75 133.43 C 148.18 136.72 146.39 139.38 143.10 141.13 C 133.35 146.65 120.68 149.37 109.77 146.15 C 102.57 144.01 97.04 138.70 94.11 131.85 C 90.30 123.24 91.05 114.51 90.89 105.36 C 87.86 109.15 84.80 113.30 80.22 115.31 C 76.04 117.15 71.55 116.46 67.56 114.49 C 62.75 112.11 59.44 108.43 55.96 104.47 C 61.51 103.89 66.49 104.48 71.47 101.43 C 79.69 96.68 83.97 86.01 90.67 79.70 C 94.90 75.73 99.95 76.64 104.66 73.67 C 108.98 70.99 113.22 68.20 117.52 65.48 Z" fill="#6894c6" />
<path d="M 116.86 69.06 C 117.70 69.84 118.51 70.64 119.31 71.45 C 115.52 74.22 111.63 76.85 107.79 79.54 C 106.60 78.62 105.41 77.71 104.21 76.80 C 108.21 73.96 112.38 71.08 116.86 69.06 Z" fill="#ffffff" />
<path d="M 101.45 77.77 C 98.94 82.93 95.75 87.51 93.88 92.98 C 91.87 98.60 89.37 103.93 85.52 108.54 C 82.43 112.41 77.01 115.39 71.99 114.00 C 67.37 112.94 64.36 109.96 60.94 106.94 C 65.69 105.92 70.13 105.07 74.15 102.15 C 82.17 96.36 85.87 86.93 92.77 80.75 C 95.31 78.46 98.23 78.33 101.45 77.77 Z" fill="#ffffff" />
<path d="M 103.16 79.54 C 103.89 79.88 104.62 80.24 105.34 80.61 C 108.72 86.37 109.11 92.50 109.36 99.02 C 109.97 108.72 108.58 117.35 112.40 126.62 C 114.54 131.91 118.65 135.52 124.15 137.02 C 131.25 139.21 137.63 137.00 145.04 136.74 C 138.42 142.51 129.61 144.92 120.99 145.36 C 114.49 145.57 107.99 144.44 102.89 140.14 C 97.46 135.79 94.62 128.70 93.53 122.00 C 92.77 114.78 93.02 107.15 94.23 99.98 C 95.53 92.36 99.04 85.97 103.16 79.54 Z" fill="#ffffff" />
<path d="M 139.32 99.05 C 139.29 102.29 140.27 105.11 137.54 107.54 C 131.33 113.64 120.15 112.84 112.12 113.50 C 111.94 110.28 111.72 107.06 111.46 103.84 C 111.70 103.40 111.95 102.97 112.19 102.54 C 118.29 104.79 124.32 106.18 130.82 104.71 C 133.98 103.84 136.77 101.05 139.32 99.05 Z" fill="#ffffff" />
<path d="M 65.19 127.62 C 60.29 129.29 55.71 130.19 51.43 133.33 C 47.25 136.21 44.63 140.05 41.56 143.98 C 40.94 140.13 40.09 135.83 40.72 131.95 C 41.36 128.60 43.18 125.51 46.69 124.66 C 52.65 123.23 59.67 125.35 65.19 127.62 Z" fill="#ffffff" />
</svg>