<?xml version="1.0" encoding="UTF-8" standalone="no"?>
<!DOCTYPE svg PUBLIC "-//W3C//DTD SVG 1.1//EN" "http://www.w3.org/Graphics/SVG/1.1/DTD/svg11.dtd">
<svg xmlns="http://www.w3.org/2000/svg" version="1.1" viewBox="0 0 197 179" width="197.0pt" height="179.0pt">
<path d="M 0.00 0.00 L 197.00 0.00 L 197.00 179.00 L 0.00 179.00 L 0.00 0.00 Z" fill="#ffffff" />
<path d="M 135.30 16.67 C 150.24 23.46 162.66 34.65 171.69 48.29 C 179.61 61.53 184.34 76.50 184.25 92.00 C 184.71 112.34 177.06 132.40 163.66 147.63 C 144.64 169.78 113.81 180.28 85.20 174.61 C 64.13 170.71 44.75 158.02 32.54 140.45 C 24.97 129.94 20.44 117.77 18.34 105.04 C 16.89 91.97 17.27 78.59 22.19 66.24 C 22.97 63.10 23.75 60.05 25.37 57.22 C 30.34 49.06 34.39 41.12 41.31 34.29 C 46.98 28.78 53.52 23.07 60.95 20.16 C 64.94 18.61 68.88 14.12 73.27 15.15 C 71.56 17.48 69.17 17.73 66.66 18.74 C 59.94 20.98 53.86 26.02 48.55 30.58 C 43.53 34.84 39.37 39.74 34.87 44.50 C 32.57 48.84 29.34 52.14 27.77 56.87 C 26.33 60.96 24.21 64.81 23.04 68.97 C 18.68 84.05 18.58 100.85 23.09 115.91 C 28.30 133.94 40.11 149.84 55.74 160.19 C 77.68 175.32 107.37 178.17 131.90 167.89 C 150.60 160.14 166.26 145.13 174.77 126.76 C 181.59 111.88 183.65 95.08 181.00 78.95 C 178.55 64.13 171.75 50.39 162.02 39.00 C 152.97 28.86 141.49 21.12 128.80 16.28 C 114.80 11.27 99.55 10.21 84.97 13.07 C 81.63 13.69 78.19 15.22 74.86 14.73 C 76.23 12.74 79.37 12.44 81.56 11.69 C 99.21 7.14 118.69 9.31 135.30 16.67 Z" fill="#6995c8" />
<path d="M 126.35 33.22 C 135.06 32.76 146.67 34.28 152.59 41.46 C 156.81 46.21 156.33 51.57 158.73 57.27 C 160.09 61.30 162.28 65.75 159.71 69.76 C 158.68 65.21 157.91 60.66 156.18 56.29 C 151.93 56.12 148.01 56.07 144.31 53.67 C 136.71 48.93 130.82 40.84 126.35 33.22 Z" fill="#6995c8" />
<path d="M 136.43 36.00 C 137.48 36.20 138.53 36.41 139.57 36.63 C 143.45 37.63 147.04 39.35 149.95 42.14 C 151.92 44.06 153.08 46.74 154.31 49.17 C 149.02 43.55 143.17 39.65 136.43 36.00 Z" fill="#ffffff" />
<path d="M 131.47 37.02 C 140.47 40.75 148.56 45.98 154.35 53.96 C 143.74 53.98 137.40 44.41 131.47 37.02 Z" fill="#ffffff" />
<path d="M 115.10 45.79 C 118.46 47.41 121.28 50.27 124.28 52.46 C 124.41 53.68 124.53 54.90 124.65 56.11 C 125.77 57.08 126.88 58.05 127.99 59.02 C 129.23 58.75 130.47 58.48 131.72 58.21 C 134.47 60.49 137.41 62.54 140.17 64.80 C 142.79 66.66 142.47 69.96 144.43 72.43 C 146.15 72.53 147.87 72.31 149.59 72.42 C 153.68 74.77 157.16 78.26 160.97 81.05 C 161.12 91.04 161.01 101.04 161.09 111.03 C 160.93 112.26 161.31 114.17 160.05 114.88 C 155.99 117.42 151.21 118.88 146.85 120.86 C 127.46 129.19 107.87 137.11 88.55 145.61 C 83.61 141.40 79.71 136.39 75.28 131.69 C 63.88 119.02 52.50 106.37 41.05 93.75 C 41.04 84.99 40.75 76.16 41.31 67.41 C 50.95 63.45 61.19 61.46 71.14 58.16 C 82.62 54.96 94.00 51.44 105.47 48.22 C 108.59 47.33 111.86 45.99 115.10 45.79 Z" fill="#6995c8" />
<path d="M 114.88 48.21 C 117.11 49.19 119.04 51.05 120.92 52.54 C 98.97 59.92 76.76 66.68 54.72 73.77 C 52.66 71.67 50.56 69.60 48.48 67.52 C 51.87 66.19 55.28 64.96 58.78 63.96 C 72.57 60.11 86.27 56.00 100.03 52.07 C 104.87 50.77 109.88 48.48 114.88 48.21 Z" fill="#ffffff" />
<path d="M 123.28 55.07 C 105.36 61.80 86.98 67.39 69.01 74.03 C 64.43 75.82 59.81 77.49 55.04 78.72 C 55.26 77.69 55.48 76.66 55.70 75.63 C 74.82 70.00 93.82 64.06 112.75 57.83 C 116.20 56.66 119.70 55.68 123.28 55.07 Z" fill="#ffffff" />
<path d="M 125.78 59.72 C 115.03 64.30 103.73 67.58 92.80 71.71 C 82.64 75.09 72.65 78.94 62.52 82.40 C 62.14 83.57 61.76 84.74 61.38 85.91 C 59.72 84.18 58.09 82.44 56.48 80.66 C 77.86 73.51 99.31 65.85 120.71 58.69 C 122.64 57.93 123.99 59.10 125.78 59.72 Z" fill="#ffffff" />
<path d="M 131.03 60.31 C 133.76 62.45 136.46 64.61 139.03 66.92 C 129.18 70.38 119.39 73.97 109.58 77.56 C 97.01 81.65 84.53 87.02 71.79 90.86 C 69.57 88.47 67.30 86.13 65.03 83.79 C 73.89 80.19 83.04 77.47 92.02 74.18 C 104.99 69.46 118.09 65.10 131.03 60.31 Z" fill="#ffffff" />
<path d="M 141.22 69.16 C 132.51 73.97 122.46 76.39 113.10 80.11 C 104.45 83.65 95.56 86.47 86.84 89.81 C 81.84 91.61 77.14 93.65 71.93 94.81 C 74.38 92.97 76.83 91.67 79.75 90.71 C 92.36 86.56 104.62 81.53 117.23 77.36 C 125.24 74.42 132.83 71.01 141.22 69.16 Z" fill="#ffffff" />
<path d="M 46.80 70.30 C 47.91 70.70 49.02 71.12 50.11 71.60 C 51.37 73.39 52.50 75.25 53.60 77.15 C 50.82 75.31 48.48 73.21 46.80 70.30 Z" fill="#ffffff" />
<path d="M 43.46 71.29 C 49.13 76.70 54.83 82.10 60.25 87.76 C 69.31 96.74 78.46 105.66 87.36 114.79 C 86.92 123.60 87.63 132.39 86.97 141.20 C 80.54 133.90 73.72 126.97 67.34 119.62 C 59.19 110.99 51.51 101.91 43.28 93.35 C 43.20 86.02 42.86 78.60 43.46 71.29 Z" fill="#ffffff" />
<path d="M 143.17 72.86 C 137.87 77.29 132.00 77.80 125.55 80.54 C 115.41 83.91 105.51 87.88 95.42 91.40 C 89.43 93.42 83.85 96.36 77.83 98.29 C 77.76 99.44 77.68 100.59 77.61 101.74 C 76.08 100.30 74.69 98.79 73.36 97.17 C 80.14 94.50 87.20 92.68 93.99 90.07 C 103.34 86.29 112.98 83.34 122.26 79.39 C 129.51 76.92 135.85 73.42 143.17 72.86 Z" fill="#ffffff" />
<path d="M 149.05 74.25 C 151.76 76.52 154.47 78.79 157.09 81.15 C 149.20 84.85 140.85 87.29 132.81 90.69 C 119.22 95.73 105.72 100.99 92.19 106.21 C 90.99 106.57 89.48 107.24 88.24 106.88 C 85.65 104.73 83.52 102.04 81.07 99.73 C 91.53 94.97 102.59 91.70 113.25 87.38 C 125.31 83.34 136.99 78.29 149.05 74.25 Z" fill="#ffffff" />
<path d="M 159.15 83.29 C 158.83 84.01 158.50 84.72 158.16 85.43 C 153.25 87.95 147.91 89.54 142.90 91.89 C 130.59 96.48 118.42 101.44 106.13 106.11 C 100.58 108.27 95.12 110.59 89.39 112.30 C 89.39 111.35 89.38 110.40 89.37 109.45 C 106.90 103.14 124.08 95.90 141.57 89.48 C 147.48 87.54 153.28 85.33 159.15 83.29 Z" fill="#ffffff" />
<path d="M 63.83 87.05 C 67.57 88.61 69.02 90.57 70.60 94.25 C 67.23 92.31 65.50 90.55 63.83 87.05 Z" fill="#ffffff" />
<path d="M 158.80 87.88 C 158.79 88.95 158.78 90.01 158.77 91.08 C 146.55 95.82 134.39 100.68 122.01 105.02 C 111.15 109.30 100.38 114.34 89.13 117.50 C 89.25 116.55 89.38 115.59 89.50 114.63 C 99.15 111.47 108.31 107.10 117.97 103.96 C 131.62 98.73 144.98 92.68 158.80 87.88 Z" fill="#ffffff" />
<path d="M 158.85 93.58 C 159.08 98.16 158.96 102.71 158.76 107.29 C 157.05 108.09 155.33 108.90 153.62 109.71 C 153.30 104.90 153.13 100.02 153.52 95.22 C 155.27 94.57 157.05 94.05 158.85 93.58 Z" fill="#ffffff" />
<path d="M 151.35 96.51 C 151.23 101.20 151.15 105.88 151.22 110.56 C 143.41 114.10 135.50 117.52 127.41 120.39 C 127.38 115.32 127.46 110.25 127.52 105.17 C 135.56 102.43 143.15 98.76 151.35 96.51 Z" fill="#ffffff" />
<path d="M 79.15 102.24 C 80.08 102.87 81.01 103.51 81.93 104.17 C 84.27 106.01 85.98 108.37 87.54 110.89 C 85.22 109.10 83.01 107.28 81.14 105.01 C 80.47 104.09 79.80 103.17 79.15 102.24 Z" fill="#ffffff" />
<path d="M 125.06 106.09 C 125.22 111.21 125.18 116.33 125.39 121.44 C 124.02 122.00 122.65 122.55 121.27 123.10 C 121.28 118.24 120.89 113.25 121.43 108.42 C 122.55 107.54 123.84 106.83 125.06 106.09 Z" fill="#ffffff" />
<path d="M 118.82 108.87 C 118.98 114.04 118.97 119.21 118.91 124.38 C 111.03 127.57 103.21 130.83 95.40 134.20 C 95.24 128.81 95.26 123.41 95.23 118.01 C 103.08 114.93 110.92 111.81 118.82 108.87 Z" fill="#ffffff" />
<path d="M 159.25 110.03 C 158.44 111.79 158.43 113.60 156.45 114.43 C 150.83 117.35 144.54 118.85 138.82 121.70 C 134.92 123.62 130.99 125.41 126.94 126.99 C 114.22 132.09 101.82 138.23 88.87 142.74 C 89.46 141.35 89.53 138.93 91.11 138.31 C 94.94 136.23 99.25 134.99 103.25 133.25 C 114.93 128.11 126.69 123.07 138.63 118.56 C 145.65 115.68 151.84 112.03 159.25 110.03 Z" fill="#ffffff" />
<path d="M 42.34 116.14 C 43.28 120.58 44.02 124.98 45.81 129.18 C 49.97 129.21 53.78 129.18 57.33 131.64 C 64.93 136.60 71.07 144.12 75.31 152.09 C 66.44 152.53 55.95 151.33 49.58 144.42 C 46.65 141.50 45.80 137.92 45.02 134.01 C 44.02 128.97 41.13 124.90 40.89 119.99 C 40.70 118.39 41.57 117.44 42.34 116.14 Z" fill="#6995c8" />
<path d="M 92.62 118.42 C 92.97 123.79 93.41 129.37 92.73 134.72 C 91.77 135.50 90.69 136.14 89.66 136.82 C 89.41 131.95 89.13 126.99 89.55 122.12 C 89.52 120.31 91.49 119.54 92.62 118.42 Z" fill="#ffffff" />
<path d="M 55.19 132.85 C 61.53 136.38 66.73 142.24 70.22 148.56 C 61.23 144.78 52.95 139.78 47.35 131.59 C 50.12 131.46 52.70 131.40 55.19 132.85 Z" fill="#ffffff" />
<path d="M 48.08 137.07 C 50.96 139.12 53.47 141.58 56.24 143.76 C 59.16 146.06 62.26 147.57 65.44 149.48 C 61.01 148.32 56.35 146.98 52.55 144.31 C 50.30 142.62 49.08 139.61 48.08 137.07 Z" fill="#ffffff" />
</svg>