<?xml version="1.0" encoding="UTF-8" standalone="no"?>
<svg
   xmlns:dc="http://purl.org/dc/elements/1.1/"
   xmlns:cc="http://creativecommons.org/ns#"
   xmlns:rdf="http://www.w3.org/1999/02/22-rdf-syntax-ns#"
   xmlns:svg="http://www.w3.org/2000/svg"
   xmlns="http://www.w3.org/2000/svg"
   xmlns:sodipodi="http://sodipodi.sourceforge.net/DTD/sodipodi-0.dtd"
   xmlns:inkscape="http://www.inkscape.org/namespaces/inkscape"
   version="1.1"
   viewBox="0 0 181 183"
   width="181.0pt"
   height="183.0pt"
   id="svg32"
   sodipodi:docname="8-radioativos.svg"
   inkscape:export-filename="C:\Users\aretu\OneDrive\Documentos\NetBeansProjects\ReciEco\web\icones\8-radioativos.png"
   inkscape:export-xdpi="159.11603"
   inkscape:export-ydpi="159.11603"
   inkscape:version="0.92.4 (5da689c313, 2019-01-14)">
  <metadata
     id="metadata38">
    <rdf:RDF>
      <cc:Work
         rdf:about="">
        <dc:format>image/svg+xml</dc:format>
        <dc:type
           rdf:resource="http://purl.org/dc/dcmitype/StillImage" />
      </cc:Work>
    </rdf:RDF>
  </metadata>
  <defs
     id="defs36" />
  <sodipodi:namedview
     pagecolor="#ffffff"
     bordercolor="#666666"
     borderopacity="1"
     objecttolerance="10"
     gridtolerance="10"
     guidetolerance="10"
     inkscape:pageopacity="0"
     inkscape:pageshadow="2"
     inkscape:window-width="1024"
     inkscape:window-height="705"
     id="namedview34"
     showgrid="false"
     inkscape:zoom="0.96721311"
     inkscape:cx="120.66667"
     inkscape:cy="122.51695"
     inkscape:window-x="-8"
     inkscape:window-y="-8"
     inkscape:window-maximized="1"
     inkscape:current-layer="svg32" />
  <path
     d="M 84.00 11.66 C 98.16 10.47 112.38 12.82 125.32 18.68 C 138.30 25.06 149.84 33.63 158.07 45.69 C 161.97 51.68 165.98 56.91 168.18 63.77 C 172.29 74.58 174.54 86.44 174.02 98.02 C 173.00 115.35 166.77 132.34 155.83 145.88 C 148.32 155.45 138.34 163.13 127.51 168.59 C 118.88 172.96 109.72 175.06 100.27 176.77 C 99.58 176.22 98.89 175.66 98.20 175.11 C 118.79 173.45 138.45 163.57 152.04 148.01 C 163.61 135.04 170.60 118.28 172.15 101.01 C 173.53 82.82 169.15 64.35 158.75 49.27 C 152.35 39.18 143.47 30.87 133.23 24.77 C 111.31 10.95 82.27 9.19 58.67 19.73 C 43.66 26.06 30.78 37.46 22.22 51.28 C 9.22 71.50 6.44 98.03 14.37 120.65 C 18.98 134.27 27.36 146.37 38.13 155.85 C 50.93 166.74 67.02 173.65 83.78 175.11 C 83.10 175.64 82.42 176.16 81.73 176.69 C 73.29 175.23 65.01 173.20 57.12 169.81 C 37.29 160.76 21.22 143.72 13.71 123.23 C 10.49 115.69 9.44 107.91 8.44 99.85 C 7.34 86.25 10.46 72.29 15.87 59.83 C 18.70 53.27 22.70 47.62 26.95 41.93 C 29.56 38.43 32.71 35.84 35.82 32.82 C 42.05 26.54 50.21 22.04 58.10 18.17 C 66.32 15.08 75.20 12.20 84.00 11.66 Z"
     fill="#6e99c8"
     id="path4" />
  <path
     d="M 83.19 35.08 C 92.88 34.12 102.63 34.80 111.81 38.20 C 123.45 42.68 134.02 50.71 140.83 61.22 C 146.38 69.45 149.72 79.10 150.47 89.00 C 152.16 105.55 146.10 122.64 134.77 134.76 C 121.58 149.22 101.34 156.17 82.03 153.03 C 63.54 150.29 46.81 138.37 38.29 121.73 C 27.52 101.40 29.84 75.30 44.28 57.34 C 53.73 45.20 67.99 37.21 83.19 35.08 Z"
     fill="#6e99c8"
     id="path6" />
  <path
     d="M 80.52 37.67 C 86.24 36.66 92.24 36.87 98.02 37.21 C 113.84 39.06 128.84 47.97 137.94 61.05 C 150.54 78.36 152.11 102.89 141.51 121.52 C 133.59 136.26 118.89 147.10 102.50 150.40 C 93.90 152.13 84.68 152.12 76.22 149.66 C 61.02 145.53 47.36 134.89 40.28 120.73 C 29.83 101.53 32.04 75.90 45.91 58.94 C 54.50 47.82 66.85 40.62 80.52 37.67 Z"
     fill="#ffffff"
     id="path8" />
  <path
     d="M 83.35 41.39 C 90.85 40.33 98.71 40.86 106.01 42.92 C 120.31 46.90 132.61 57.62 139.17 70.84 C 148.99 91.00 144.72 116.88 128.34 132.35 C 120.63 139.96 110.58 144.95 99.93 146.83 C 90.57 147.99 80.93 147.49 72.11 143.91 C 61.92 140.24 53.06 132.92 46.94 124.04 C 40.92 114.97 37.61 103.91 37.88 93.00 C 38.02 78.96 44.30 65.13 54.46 55.49 C 62.32 47.72 72.51 43.14 83.35 41.39 Z"
     fill="#6e99c8"
     id="path10" />
  <path
     d="M 83.48 43.59 C 98.84 41.23 114.82 46.26 126.14 56.85 C 131.28 61.48 135.21 67.60 138.09 73.84 C 143.64 86.56 143.55 101.41 138.22 114.17 C 134.23 122.53 129.09 130.07 121.30 135.31 C 105.60 147.46 82.57 148.57 65.58 138.43 C 54.09 131.56 45.09 120.27 41.76 107.23 C 37.06 90.47 41.84 72.25 53.50 59.47 C 61.28 51.04 72.18 45.41 83.48 43.59 Z"
     fill="#ffffff"
     id="path12" />
  <path
     d="M 113.44 57.13 C 108.50 65.98 103.27 74.68 98.31 83.52 C 95.95 82.91 93.44 82.14 90.99 82.06 C 88.36 81.99 85.97 83.10 83.55 83.99 C 78.58 75.13 73.27 66.46 68.33 57.59 C 72.91 54.87 77.67 52.70 82.95 51.79 C 93.49 49.59 104.16 51.88 113.44 57.13 Z"
     fill="#6e99c8"
     id="path14" />
  <path
     d="M 92.00 53.06 C 98.55 53.25 104.35 55.30 110.35 57.70 C 108.15 62.27 105.52 66.59 102.88 70.92 C 100.96 74.04 99.52 77.55 97.32 80.47 C 92.85 80.10 88.80 79.70 84.37 80.90 C 80.18 73.22 75.28 65.91 71.45 58.04 C 78.04 55.06 84.68 52.89 92.00 53.06 Z"
     fill="#ffffff"
     id="path16" />
  <path
     d="M 89.20 86.16 C 93.63 85.13 98.85 88.22 99.22 92.96 C 99.83 97.71 95.95 102.56 91.00 102.24 C 87.39 102.26 84.64 99.76 83.35 96.56 C 81.76 92.25 84.84 87.20 89.20 86.16 Z"
     fill="#6e99c8"
     id="path18" />
  <path
     d="M 88.52 88.53 C 89.28 88.22 90.11 88.07 91.00 88.07 C 95.66 87.53 98.50 94.22 95.77 97.67 C 93.54 101.11 87.74 100.88 86.00 97.03 C 84.06 93.84 85.29 90.21 88.52 88.53 Z"
     fill="#ffffff"
     id="path20" />
  <path
     d="M 47.81 93.30 C 58.04 92.90 68.29 93.18 78.52 93.07 C 79.07 95.21 79.52 97.55 80.48 99.55 C 81.72 101.78 83.75 103.69 85.19 105.80 C 80.58 114.64 75.34 123.27 70.15 131.79 C 64.80 128.56 60.02 124.67 56.40 119.53 C 50.56 111.89 48.26 102.77 47.81 93.30 Z"
     fill="#6e99c8"
     id="path22" />
  <path
     d="M 134.23 93.08 C 134.08 97.08 133.85 101.01 132.85 104.90 C 129.98 116.48 121.80 126.64 111.21 132.06 C 106.42 123.18 101.07 114.63 96.24 105.77 C 97.99 104.15 100.18 102.52 101.42 100.46 C 102.57 98.24 103.04 95.62 103.81 93.25 C 113.93 92.87 124.10 93.20 134.23 93.08 Z"
     fill="#6e99c8"
     id="path24" />
  <path
     d="M 50.38 95.49 C 59.00 94.91 67.74 95.39 76.38 95.29 C 77.78 99.79 79.38 102.64 82.70 105.99 C 78.22 113.47 74.19 121.21 69.75 128.72 C 58.16 122.36 50.56 108.55 50.38 95.49 Z"
     fill="#ffffff"
     id="path26" />
  <path
     d="M 132.04 95.34 C 131.61 108.75 124.14 122.46 112.15 128.90 C 107.42 121.58 103.59 113.73 99.00 106.31 C 102.92 102.92 104.31 100.72 105.67 95.69 C 114.38 94.78 123.29 95.46 132.04 95.34 Z"
     fill="#ffffff"
     id="path28" />
  <path
     d="M 85.34 175.36 C 89.14 175.33 92.93 175.41 96.72 175.20 C 97.42 175.80 98.12 176.40 98.81 177.00 C 93.57 177.03 88.35 177.09 83.11 176.94 C 83.85 176.40 84.59 175.87 85.34 175.36 Z"
     fill="#6e99c8"
     id="path30" />
  <path
     style="fill:#ffffff;fill-opacity:1;stroke-width:1.03389835"
     d="m 111.36158,234.13043 c 0,-0.49132 -3.59396,-1.4972 -7.98658,-2.23529 -40.714761,-6.84129 -73.022749,-35.93589 -85.752608,-77.22355 -2.673403,-8.67084 -2.836627,-10.33619 -2.827275,-28.84617 0.01162,-23.00413 1.291299,-29.219768 9.560194,-46.435707 19.271888,-40.124302 58.29046,-63.477693 102.428859,-61.305707 47.10278,2.31786 86.35003,33.906911 98.92211,79.619751 3.28153,11.931853 4.43367,31.942533 2.52504,43.855333 -3.89243,24.29463 -15.32453,45.88192 -33.18,62.65402 -19.46092,18.28013 -42.39189,27.7209 -70.88801,29.18486 -6.10133,0.31346 -11.47773,0.80748 -11.94753,1.09784 -0.46981,0.29036 -0.8542,0.12594 -0.8542,-0.36538 z m 29.5592,-31.29602 c 52.055,-13.26652 76.36485,-72.25717 48.86675,-118.580799 -7.46863,-12.581758 -21.59128,-25.077944 -35.43713,-31.355952 -11.17266,-5.065928 -18.52544,-6.553071 -32.64984,-6.603621 -15.42333,-0.0552 -22.236477,1.500415 -35.669487,8.144253 -19.783578,9.78477 -33.205709,25.258216 -40.399313,46.573569 -3.742709,11.09002 -4.652086,29.40733 -2.059169,41.47724 6.227179,28.98725 29.985033,53.35781 58.967769,60.48857 10.49842,2.58296 27.93871,2.51787 38.38042,-0.14326 z"
     id="path44"
     inkscape:connector-curvature="0"
     transform="scale(0.75000001)" />
  <path
     style="fill:#ffffff;fill-opacity:1;stroke-width:1.03389835"
     d="m 108.63511,200.68749 c -22.565953,-3.77172 -44.240592,-19.7912 -54.427089,-40.22647 -6.609474,-13.25935 -8.396183,-20.65319 -8.369637,-34.6356 0.02646,-13.93699 2.029868,-22.74514 7.877839,-34.635589 C 57.22074,84.064234 59.80607,80.64131 67.382201,73.09635 77.744984,62.7762 84.65924,58.252552 97.232866,53.566567 c 8.024524,-2.990609 9.209684,-3.146326 23.950754,-3.146862 13.99639,-5.08e-4 16.29254,0.263513 23.55018,2.70791 25.59926,8.621911 45.00945,29.775863 50.76503,55.325635 2.33601,10.3699 2.1803,25.92677 -0.3589,35.85492 -9.63882,37.68745 -48.15367,62.7894 -86.50482,56.37932 z m 29.60783,-5.64109 c 12.22196,-2.85616 23.23842,-9.1715 33.21622,-19.04166 7.61273,-7.53059 9.60531,-10.26251 13.59946,-18.64542 6.20954,-13.0326 7.48532,-18.77122 7.35519,-33.08474 -0.0894,-9.83839 -0.57537,-13.31693 -2.81642,-20.16102 C 185.88672,92.781199 180.41751,83.887267 171.83808,75.233619 134.79536,37.870492 71.952374,52.389526 54.076026,102.44097 c -2.954241,8.27149 -3.182793,9.90993 -3.189871,22.8675 -0.0084,15.3229 1.625972,22.42905 7.846937,34.11865 9.200815,17.28893 26.88799,30.93718 46.135378,35.60023 8.05716,1.952 25.06159,1.96171 33.37447,0.019 z"
     id="path46"
     inkscape:connector-curvature="0"
     transform="scale(0.75000001)" />
  <path
     style="fill:#ffffff;fill-opacity:1;stroke-width:1.03389835"
     d="M 112.91243,192.87108 C 96.875895,190.32196 85.861512,184.65035 74.122679,172.89714 64.670467,163.43336 60.255123,156.31683 56.774097,144.9352 49.191952,120.14445 56.620861,93.385284 76.020497,75.60904 97.696973,55.746486 130.9744,52.438628 156.63805,67.595459 c 12.87939,7.606513 24.77129,22.766984 29.45585,37.552001 3.10224,9.79102 3.29073,31.15072 0.35126,39.80508 -9.54799,28.11114 -33.04613,46.48871 -61.30003,47.94193 -5.02206,0.25831 -10.52677,0.24778 -12.2327,-0.0234 z m -10.56774,-31.11539 c 8.53166,-14.55114 11.08469,-19.32919 11.08469,-20.74523 0,-0.51869 -1.40954,-2.71675 -3.13231,-4.88457 -1.72277,-2.16782 -3.63902,-5.95383 -4.25833,-8.41335 l -1.12603,-4.47186 -13.57641,0.007 c -7.467027,0.004 -16.777348,0.30959 -20.6896,0.679 l -7.113188,0.67166 0.601717,6.44364 c 1.174523,12.57769 8.056235,27.33911 16.438842,35.26166 4.834536,4.56921 12.294315,9.71524 13.237959,9.13204 0.441262,-0.27272 4.28096,-6.42887 8.53266,-13.68035 z m 51.73739,11.22245 c 14.5097,-10.04276 23.93361,-26.44907 24.70938,-43.01712 l 0.29046,-6.20339 -15.00847,-0.28473 c -8.25465,-0.1566 -17.49065,0.076 -20.52444,0.51695 -5.44221,0.79095 -5.54178,0.86969 -7.44514,5.8872 -1.06104,2.79703 -3.32281,6.52339 -5.02615,8.28079 l -3.09698,3.19527 9.92483,17.30819 c 5.45865,9.5195 10.35902,17.30819 10.88972,17.30819 0.5307,0 2.90976,-1.3461 5.28679,-2.99135 z m -26.49292,-38.319 c 7.32051,-4.4636 6.48367,-15.44015 -1.46469,-19.2119 -7.44699,-3.53383 -15.78332,2.13533 -15.79292,10.74005 -0.003,2.56347 0.90966,4.37708 3.51139,6.97881 4.14336,4.14336 8.60483,4.62794 13.74622,1.49304 z m -6.40554,-24.25781 c 2.27457,-0.0307 5.53135,0.28771 7.23728,0.7076 3.06227,0.75372 3.18055,0.6228 9.30509,-10.29909 3.41186,-6.084376 7.97055,-14.203787 10.13042,-18.043131 l 3.92704,-6.980626 -2.89314,-1.494783 c -11.32636,-5.851932 -26.51668,-7.99171 -38.56263,-5.432108 -8.07844,1.716561 -19.052376,6.584118 -18.876998,8.373011 0.05575,0.568644 4.442192,8.62137 9.747658,17.894946 l 9.64629,16.861051 3.1017,-0.76552 c 1.70593,-0.42103 4.96271,-0.79064 7.23729,-0.82135 z"
     id="path48"
     inkscape:connector-curvature="0"
     transform="scale(0.75000001)" />
</svg>
