<?xml version="1.0" encoding="UTF-8" standalone="no"?>
<svg
   xmlns:dc="http://purl.org/dc/elements/1.1/"
   xmlns:cc="http://creativecommons.org/ns#"
   xmlns:rdf="http://www.w3.org/1999/02/22-rdf-syntax-ns#"
   xmlns:svg="http://www.w3.org/2000/svg"
   xmlns="http://www.w3.org/2000/svg"
   xmlns:sodipodi="http://sodipodi.sourceforge.net/DTD/sodipodi-0.dtd"
   xmlns:inkscape="http://www.inkscape.org/namespaces/inkscape"
   version="1.1"
   viewBox="0 0 184 178"
   width="184.0pt"
   height="178.0pt"
   id="svg42"
   sodipodi:docname="11-lampadas-flourecentes.svg"
   inkscape:export-filename="C:\Users\aretu\OneDrive\Documentos\NetBeansProjects\ReciEco\web\icones\11-lampadas-flourecentes.png"
   inkscape:export-xdpi="160"
   inkscape:export-ydpi="160"
   inkscape:version="0.92.4 (5da689c313, 2019-01-14)">
  <metadata
     id="metadata48">
    <rdf:RDF>
      <cc:Work
         rdf:about="">
        <dc:format>image/svg+xml</dc:format>
        <dc:type
           rdf:resource="http://purl.org/dc/dcmitype/StillImage" />
      </cc:Work>
    </rdf:RDF>
  </metadata>
  <defs
     id="defs46" />
  <sodipodi:namedview
     pagecolor="#ffffff"
     bordercolor="#666666"
     borderopacity="1"
     objecttolerance="10"
     gridtolerance="10"
     guidetolerance="10"
     inkscape:pageopacity="0"
     inkscape:pageshadow="2"
     inkscape:window-width="760"
     inkscape:window-height="480"
     id="namedview44"
     showgrid="false"
     inkscape:zoom="0.99438202"
     inkscape:cx="122.66667"
     inkscape:cy="118.66667"
     inkscape:window-x="0"
     inkscape:window-y="0"
     inkscape:window-maximized="0"
     inkscape:current-layer="svg42" />
  <path
     d="M 90.94 8.32 C 97.21 7.80 103.35 8.51 109.51 9.62 C 127.26 13.49 144.12 23.20 155.77 37.25 C 176.96 61.45 181.62 97.82 167.76 126.75 C 160.46 142.38 147.98 155.54 132.94 163.96 C 118.72 171.68 101.97 175.82 85.78 174.25 C 71.66 172.85 57.42 168.51 45.80 160.20 C 22.28 144.34 7.60 116.54 9.26 88.04 C 9.40 73.71 14.03 60.33 21.02 47.96 C 32.65 28.82 52.16 14.89 73.98 9.91 C 79.45 8.61 85.32 8.56 90.94 8.32 Z"
     fill="#4e81c6"
     id="path4" />
  <path
     d="M 83.07 10.15 C 107.35 7.55 132.27 16.15 149.61 33.40 C 161.32 44.80 169.19 60.23 172.44 76.18 C 173.92 86.14 174.27 96.07 172.39 106.01 C 169.28 122.60 161.02 138.11 148.78 149.75 C 142.01 156.04 134.74 161.60 126.13 165.13 C 110.28 172.65 92.35 174.23 75.23 170.84 C 59.01 167.09 43.94 158.70 32.58 146.48 C 22.60 135.33 15.43 121.82 12.69 107.04 C 9.73 93.48 10.70 79.34 14.93 66.16 C 21.14 47.05 34.90 30.27 52.38 20.36 C 61.87 14.81 72.27 11.90 83.07 10.15 Z"
     fill="#ffffff"
     id="path6" />
  <path
     d="M 95.25 36.99 C 93.54 40.56 90.50 43.52 88.25 46.78 C 88.23 48.46 88.33 50.21 88.03 51.86 C 86.62 54.65 84.43 57.07 82.59 59.59 C 71.18 74.15 60.05 88.94 48.79 103.62 C 46.15 106.82 43.83 111.18 38.97 110.43 C 34.33 110.34 31.04 104.32 33.35 100.36 C 35.03 97.22 37.52 94.45 39.65 91.61 C 45.59 83.62 51.83 75.85 57.83 67.91 C 64.11 59.47 70.52 51.13 77.07 42.89 C 78.52 42.74 79.97 42.60 81.42 42.45 C 83.89 39.30 86.03 35.64 88.95 32.90 C 91.62 30.34 96.83 33.28 95.25 36.99 Z"
     fill="#598bc1"
     id="path8" />
  <path
     d="M 132.57 31.17 C 131.27 34.02 129.65 36.68 128.08 39.39 C 129.36 40.37 130.64 41.35 131.92 42.32 C 133.71 39.90 135.54 37.52 137.54 35.27 C 138.48 38.69 135.30 41.03 133.64 43.64 C 135.36 45.07 137.06 46.51 138.75 47.97 C 113.07 81.04 87.45 114.22 62.00 147.46 C 60.42 146.63 58.83 145.71 57.16 145.08 C 55.63 146.65 54.36 148.53 53.07 150.30 C 52.21 150.42 51.36 150.54 50.50 150.65 C 52.09 148.11 53.79 145.64 55.45 143.15 C 54.10 142.17 52.74 141.18 51.39 140.20 C 49.51 142.61 47.60 144.98 45.41 147.12 C 45.30 143.49 47.64 141.63 49.56 138.88 C 47.90 137.52 46.25 136.17 44.60 134.81 C 52.23 124.11 60.80 114.14 68.55 103.52 C 83.61 83.99 98.67 64.33 113.82 44.89 C 116.37 41.40 118.92 37.94 121.89 34.79 C 123.27 35.76 124.66 36.73 126.05 37.69 C 127.93 35.16 129.80 32.79 132.57 31.17 Z"
     fill="#5489c7"
     id="path10" />
  <path
     d="M 90.45 34.11 C 91.52 34.15 92.59 34.19 93.66 34.23 C 92.27 39.35 88.91 42.58 85.79 46.66 C 84.94 45.75 84.12 44.82 83.33 43.87 C 85.17 40.35 88.07 37.29 90.45 34.11 Z"
     fill="#ffffff"
     id="path12" />
  <path
     d="M 122.04 37.66 C 126.83 40.98 131.33 44.71 135.93 48.29 C 134.36 50.05 132.80 51.82 131.24 53.59 C 126.73 50.33 122.07 47.01 117.98 43.23 C 119.30 41.34 120.60 39.46 122.04 37.66 Z"
     fill="#ffffff"
     id="path14" />
  <path
     d="M 80.15 44.09 C 82.44 46.02 84.64 48.06 86.87 50.07 C 81.32 57.40 75.69 64.76 70.15 72.10 C 66.63 77.53 62.08 82.11 58.38 87.40 C 54.06 92.79 50.02 98.36 45.91 103.89 C 44.36 105.69 42.68 108.49 40.01 108.39 C 37.55 108.56 35.07 106.48 34.89 104.00 C 34.53 101.59 35.89 100.04 37.20 98.23 C 40.62 93.88 44.11 89.59 47.33 85.08 C 48.04 86.35 48.75 87.61 49.47 88.87 C 48.54 90.02 47.60 91.17 46.67 92.32 C 45.28 92.10 43.90 91.89 42.52 91.68 C 43.26 92.79 44.00 93.91 44.75 95.02 C 42.38 97.99 39.98 100.52 39.51 104.49 C 42.17 102.32 43.96 99.46 46.28 96.98 C 47.62 96.83 48.97 96.75 50.34 96.73 C 49.68 95.76 49.03 94.79 48.37 93.82 C 49.41 92.55 50.46 91.28 51.52 90.03 C 52.47 90.34 53.43 90.64 54.39 90.92 C 54.26 89.74 54.01 88.58 53.76 87.42 C 54.36 86.31 54.96 85.21 55.57 84.10 C 56.96 84.50 58.35 84.90 59.74 85.29 C 59.25 84.08 58.75 82.86 58.25 81.65 C 58.98 80.57 59.72 79.49 60.46 78.40 C 61.85 78.62 63.25 78.82 64.65 79.02 C 63.86 77.92 63.06 76.82 62.26 75.73 C 63.25 74.49 64.24 73.27 65.25 72.05 C 66.66 72.18 68.08 72.29 69.49 72.38 C 68.77 71.26 68.05 70.14 67.32 69.01 C 68.27 68.04 69.22 67.08 70.18 66.11 C 71.25 66.52 72.32 66.94 73.39 67.35 C 72.88 65.77 72.34 64.20 71.79 62.63 C 73.58 61.10 74.62 60.06 77.21 60.23 C 77.61 59.79 78.02 59.35 78.42 58.91 L 76.58 57.79 C 78.55 55.06 80.34 52.28 81.52 49.10 C 78.93 51.12 76.62 53.43 74.39 55.83 C 73.28 55.40 72.18 54.97 71.07 54.54 C 73.74 51.34 75.84 45.18 80.15 44.09 Z"
     fill="#ffffff"
     id="path16" />
  <path
     d="M 116.15 45.75 C 118.50 46.02 120.73 48.73 122.64 50.08 C 115.21 60.13 107.33 69.84 99.77 79.80 C 86.49 97.14 73.07 114.44 59.72 131.74 C 57.86 130.28 55.32 128.93 54.06 126.90 C 54.10 125.75 55.11 124.68 55.71 123.74 C 61.22 116.28 67.03 109.07 72.74 101.76 C 85.15 85.21 98.01 69.00 110.59 52.58 C 112.33 50.29 114.03 47.67 116.15 45.75 Z"
     fill="#ffffff"
     id="path18" />
  <path
     d="M 124.16 51.59 C 126.19 52.85 128.16 54.26 130.10 55.65 C 109.00 82.83 88.03 110.18 67.01 137.44 C 65.11 136.02 63.23 134.57 61.37 133.11 C 82.20 105.87 103.43 78.91 124.16 51.59 Z"
     fill="#ffffff"
     id="path20" />
  <path
     d="M 70.95 54.69 C 71.45 55.91 72.38 57.28 72.49 58.60 C 72.04 59.84 71.39 61.03 70.80 62.21 C 69.13 61.64 67.45 61.08 65.78 60.47 C 67.46 58.50 69.12 56.53 70.95 54.69 Z"
     fill="#ffffff"
     id="path22" />
  <path
     d="M 66.06 60.90 C 66.65 62.01 67.25 63.10 67.75 64.26 C 67.30 65.57 66.60 66.80 65.98 68.03 C 64.31 67.77 62.63 67.52 60.95 67.27 C 61.87 66.10 62.78 64.92 63.71 63.76 C 64.49 62.80 65.27 61.85 66.06 60.90 Z"
     fill="#ffffff"
     id="path24" />
  <path
     d="M 60.66 67.31 C 61.72 68.10 62.78 68.88 63.84 69.66 C 62.97 71.08 62.10 72.51 61.22 73.93 C 59.68 73.85 58.15 73.78 56.61 73.72 C 57.39 74.51 58.16 75.31 58.94 76.10 C 58.09 77.53 57.22 78.97 56.35 80.40 C 55.01 79.86 53.67 79.32 52.33 78.79 C 52.85 80.26 53.39 81.73 53.93 83.19 C 53.01 84.27 52.09 85.35 51.16 86.42 C 50.00 85.92 48.84 85.42 47.68 84.92 C 51.95 79.01 56.37 73.21 60.66 67.31 Z"
     fill="#ffffff"
     id="path26" />
  <path
     d="M 152.14 91.99 C 152.48 96.56 148.72 99.87 146.38 103.42 C 139.38 113.39 131.73 122.88 124.76 132.86 C 126.18 134.00 127.59 135.15 129.00 136.30 C 126.93 138.21 124.56 140.79 121.83 141.67 C 119.16 142.43 115.92 141.39 113.14 141.37 C 110.13 144.01 107.95 147.72 105.53 150.88 C 101.88 148.32 98.25 145.76 94.82 142.92 C 97.31 139.73 99.75 136.51 101.88 133.06 C 100.45 130.01 98.84 127.44 99.02 123.93 C 99.13 120.93 101.06 118.54 102.62 116.12 C 104.00 117.23 105.38 118.34 106.76 119.45 C 114.20 109.34 121.91 99.44 129.25 89.26 C 131.80 85.86 134.14 82.52 138.49 81.39 C 145.14 79.55 152.29 85.04 152.14 91.99 Z"
     fill="#528cc4"
     id="path28" />
  <path
     d="M 144.94 84.08 C 149.54 86.07 151.67 92.45 148.70 96.64 C 145.33 101.80 141.56 106.83 137.73 111.64 C 132.74 118.34 127.78 125.05 122.66 131.65 C 121.92 130.80 121.22 129.93 120.55 129.03 C 126.80 119.95 134.35 111.66 140.57 102.57 C 142.31 100.10 144.70 97.51 145.58 94.59 C 146.16 90.81 142.82 87.50 139.04 87.98 C 136.34 88.37 135.11 90.80 133.62 92.78 C 130.88 96.92 127.53 100.58 124.74 104.68 C 120.58 111.11 115.51 116.85 111.19 123.17 C 110.24 122.18 109.29 121.19 108.34 120.20 C 115.98 110.52 123.17 100.46 130.62 90.63 C 132.40 88.48 134.22 86.10 136.49 84.45 C 139.08 82.67 142.16 82.89 144.94 84.08 Z"
     fill="#ffffff"
     id="path30" />
  <path
     d="M 141.73 89.84 C 142.48 91.48 143.17 93.15 143.84 94.83 C 135.05 105.66 127.18 117.23 118.56 128.20 C 116.62 126.77 114.70 125.34 112.75 123.92 C 118.43 116.23 124.22 108.63 129.96 100.99 C 132.40 97.79 134.60 94.27 137.40 91.37 C 138.58 90.08 140.12 90.20 141.73 89.84 Z"
     fill="#ffffff"
     id="path32" />
  <path
     d="M 102.58 119.06 C 106.31 121.42 109.63 124.24 113.24 126.78 C 117.70 129.96 122.15 133.09 126.17 136.84 C 123.79 138.36 122.06 140.15 119.01 139.91 C 113.54 139.58 108.11 137.50 102.76 136.33 C 103.37 135.18 103.98 134.03 104.59 132.89 C 103.17 130.45 101.11 127.92 101.09 125.00 C 100.98 122.83 101.80 121.03 102.58 119.06 Z"
     fill="#ffffff"
     id="path34" />
  <path
     d="M 51.81 128.68 C 56.64 131.81 60.97 135.71 65.63 139.10 C 64.42 140.84 63.21 142.71 61.79 144.28 C 59.63 144.01 57.78 142.17 56.06 140.91 C 53.47 138.78 50.58 136.97 48.10 134.70 C 48.68 132.48 50.41 130.46 51.81 128.68 Z"
     fill="#ffffff"
     id="path36" />
  <path
     d="M 100.68 138.45 C 104.09 138.16 107.78 139.62 111.01 140.62 C 110.17 141.63 109.29 142.60 108.36 143.53 C 105.13 143.97 101.46 142.57 98.31 141.88 C 99.07 140.72 99.81 139.52 100.68 138.45 Z"
     fill="#ffffff"
     id="path38" />
  <path
     d="M 102.36 145.20 C 103.60 144.93 105.82 144.78 106.23 146.34 C 105.44 148.69 102.55 147.19 102.36 145.20 Z"
     fill="#ebf2f8"
     id="path40" />
</svg>
