<?xml version="1.0" encoding="UTF-8" standalone="no"?>
<svg
   xmlns:dc="http://purl.org/dc/elements/1.1/"
   xmlns:cc="http://creativecommons.org/ns#"
   xmlns:rdf="http://www.w3.org/1999/02/22-rdf-syntax-ns#"
   xmlns:svg="http://www.w3.org/2000/svg"
   xmlns="http://www.w3.org/2000/svg"
   xmlns:sodipodi="http://sodipodi.sourceforge.net/DTD/sodipodi-0.dtd"
   xmlns:inkscape="http://www.inkscape.org/namespaces/inkscape"
   version="1.1"
   viewBox="0 0 172 180"
   width="172.0pt"
   height="180.0pt"
   id="svg56"
   sodipodi:docname="12-pneus.svg"
   inkscape:export-filename="C:\Users\aretu\OneDrive\Documentos\NetBeansProjects\ReciEco\web\icones\12-pneus.png"
   inkscape:export-xdpi="159.2"
   inkscape:export-ydpi="159.2"
   inkscape:version="0.92.4 (5da689c313, 2019-01-14)">
  <metadata
     id="metadata62">
    <rdf:RDF>
      <cc:Work
         rdf:about="">
        <dc:format>image/svg+xml</dc:format>
        <dc:type
           rdf:resource="http://purl.org/dc/dcmitype/StillImage" />
      </cc:Work>
    </rdf:RDF>
  </metadata>
  <defs
     id="defs60" />
  <sodipodi:namedview
     pagecolor="#ffffff"
     bordercolor="#666666"
     borderopacity="1"
     objecttolerance="10"
     gridtolerance="10"
     guidetolerance="10"
     inkscape:pageopacity="0"
     inkscape:pageshadow="2"
     inkscape:window-width="760"
     inkscape:window-height="480"
     id="namedview58"
     showgrid="false"
     inkscape:zoom="0.98333333"
     inkscape:cx="114.66667"
     inkscape:cy="120"
     inkscape:window-x="0"
     inkscape:window-y="0"
     inkscape:window-maximized="0"
     inkscape:current-layer="svg56" />
  <path
     d="M 110.92 10.29 C 125.86 15.02 139.43 23.40 149.58 35.42 C 155.39 42.02 160.12 49.44 163.52 57.56 C 171.03 74.26 171.98 93.94 167.49 111.59 C 165.06 119.69 162.32 127.39 157.42 134.36 C 148.61 149.02 134.70 160.37 119.10 167.17 C 99.88 175.15 77.37 175.79 57.90 168.36 C 46.25 164.42 36.00 157.42 27.49 148.61 C 15.90 137.20 7.96 121.97 4.95 106.00 C 0.67 84.45 5.45 61.03 18.07 43.01 C 28.74 27.23 44.92 15.81 63.06 10.22 C 78.53 5.66 95.46 5.70 110.92 10.29 Z"
     fill="#6995c7"
     id="path4" />
  <path
     d="M 89.00 9.02 C 102.54 9.24 116.35 13.10 127.93 20.17 C 144.50 29.39 156.92 45.18 163.36 62.89 C 170.83 83.40 169.32 107.04 159.51 126.52 C 156.58 133.26 152.12 138.85 147.33 144.35 C 129.54 164.72 101.26 174.88 74.57 170.52 C 60.09 168.40 46.45 162.13 35.18 152.83 C 29.10 148.14 24.41 142.28 19.84 136.18 C 3.81 113.20 1.03 82.07 12.83 56.64 C 16.08 49.33 20.19 42.55 25.72 36.74 C 41.04 18.52 65.28 8.17 89.00 9.02 Z"
     fill="#ffffff"
     id="path6" />
  <path
     d="M 69.00 30.58 C 82.00 30.68 95.01 30.52 108.00 30.65 C 116.80 30.71 124.61 35.16 130.28 41.67 C 134.44 46.80 138.05 52.31 140.45 58.49 C 146.67 74.47 147.63 92.32 144.32 109.06 C 141.47 120.50 137.45 131.47 128.98 140.00 C 123.64 145.59 116.85 149.44 109.00 149.75 C 100.67 149.95 92.33 149.77 84.00 149.75 C 77.32 149.87 70.60 149.94 63.92 149.66 C 55.16 148.96 47.91 144.17 42.43 137.51 C 34.61 128.40 30.70 116.54 28.55 104.91 C 26.39 89.55 27.33 72.79 33.37 58.35 C 37.21 48.24 44.52 38.10 54.41 33.23 C 59.05 30.84 63.88 30.57 69.00 30.58 Z"
     fill="#6995c7"
     id="path8" />
  <path
     d="M 96.39 33.46 C 93.14 36.16 89.75 35.58 85.88 36.37 C 80.68 37.31 76.19 39.35 71.17 40.86 C 78.00 34.53 87.08 30.34 96.39 33.46 Z"
     fill="#ffffff"
     id="path10" />
  <path
     d="M 62.93 32.69 C 66.03 32.49 69.02 32.53 72.07 33.21 C 69.51 35.17 67.02 37.70 64.06 39.00 C 62.99 37.56 63.30 34.48 62.93 32.69 Z"
     fill="#ffffff"
     id="path12" />
  <path
     d="M 101.53 33.66 C 105.24 32.52 109.03 32.88 112.83 33.16 C 113.23 34.94 113.90 36.59 114.61 38.27 C 115.00 36.92 115.38 35.57 115.75 34.21 C 119.63 35.91 123.97 37.93 126.80 41.19 C 127.00 43.00 125.78 45.03 125.38 46.78 C 126.70 45.91 128.14 45.23 129.55 44.52 C 133.36 48.39 135.95 53.81 138.10 58.75 C 137.51 59.45 135.31 60.43 136.18 61.52 C 137.22 61.60 138.27 61.65 139.31 61.68 C 140.70 65.69 141.78 69.73 142.47 73.93 C 141.28 74.86 140.19 75.74 139.40 77.06 C 140.64 77.12 141.88 77.17 143.11 77.21 C 144.23 83.52 144.14 90.11 143.80 96.48 C 142.75 96.97 141.72 97.49 140.70 98.03 C 141.39 98.87 142.33 99.53 143.54 100.02 C 142.49 107.31 141.10 114.88 138.07 121.64 C 136.77 121.34 135.12 119.93 134.04 121.15 C 134.15 122.46 136.01 123.22 136.82 124.18 C 135.38 128.40 132.51 132.37 129.89 135.96 C 128.92 137.75 127.24 136.16 125.75 136.00 C 125.66 137.65 126.59 139.89 125.00 140.98 C 120.59 144.60 115.38 146.71 109.81 147.81 C 109.02 145.82 109.65 144.04 107.02 143.65 C 107.01 144.92 106.99 146.19 106.99 147.47 C 102.25 147.42 98.29 145.79 94.40 143.24 C 94.64 142.02 94.88 140.80 95.12 139.58 C 93.96 140.09 92.80 140.60 91.65 141.13 C 87.61 138.00 84.29 133.68 81.86 129.20 C 82.95 127.93 83.79 126.68 84.47 125.14 C 83.13 125.38 81.62 126.07 80.26 125.88 C 77.75 121.76 75.48 115.81 74.84 111.04 C 75.91 109.98 77.05 109.03 78.16 108.01 C 77.31 106.00 75.44 107.76 74.21 108.34 C 72.23 101.97 72.07 95.02 72.07 88.39 C 72.93 87.91 73.79 87.43 74.64 86.95 C 73.82 86.24 73.00 85.53 72.18 84.81 C 72.89 78.92 73.46 73.08 75.19 67.37 C 76.47 66.97 77.74 66.57 79.01 66.18 C 78.09 65.54 77.18 64.89 76.27 64.23 C 77.04 59.92 79.47 55.72 81.58 51.91 C 82.69 52.26 83.79 52.61 84.88 52.99 C 85.24 51.66 83.70 50.27 83.13 49.09 C 85.37 45.21 88.73 41.85 91.95 38.77 C 93.09 39.33 94.24 39.90 95.38 40.46 C 95.32 39.08 95.27 37.70 95.20 36.32 C 97.28 35.40 99.37 34.38 101.53 33.66 Z"
     fill="#ffffff"
     id="path14" />
  <path
     d="M 60.18 33.35 C 62.54 38.04 60.73 42.22 58.32 46.37 C 56.19 49.64 54.49 53.15 52.19 56.29 C 50.95 50.50 51.55 44.98 48.44 39.66 C 51.93 36.70 55.73 34.52 60.18 33.35 Z"
     fill="#ffffff"
     id="path16" />
  <path
     d="M 72.75 36.12 C 69.54 39.19 66.27 42.01 63.71 45.69 C 59.78 50.93 58.05 56.62 55.63 62.68 C 51.23 76.40 50.60 90.69 52.53 104.91 C 54.00 115.07 58.04 124.11 62.80 133.11 C 65.33 137.88 69.11 140.84 72.86 144.58 C 67.55 141.68 64.14 137.22 60.10 132.91 C 53.99 125.46 52.29 117.07 49.94 108.00 C 46.66 91.67 47.89 74.54 53.94 58.99 C 55.89 54.06 59.14 49.55 62.27 45.30 C 65.13 41.46 68.60 38.49 72.75 36.12 Z"
     fill="#ffffff"
     id="path18" />
  <path
     d="M 89.35 38.39 C 86.66 40.45 84.67 42.97 82.65 45.65 C 80.87 48.04 77.98 49.07 75.41 50.39 C 69.60 53.07 64.27 56.95 59.11 60.71 C 60.89 54.43 64.46 46.49 71.12 44.20 C 76.54 41.68 83.24 37.87 89.35 38.39 Z"
     fill="#ffffff"
     id="path20" />
  <path
     d="M 46.87 42.01 C 47.83 43.57 48.34 45.30 48.72 47.08 C 50.43 56.93 49.85 66.93 46.60 76.40 C 44.29 71.34 42.48 66.45 39.11 61.97 C 38.12 60.46 36.58 58.89 36.20 57.10 C 38.09 52.67 40.81 48.54 43.65 44.66 C 44.47 43.71 45.46 41.97 46.87 42.01 Z"
     fill="#ffffff"
     id="path22" />
  <path
     d="M 78.68 51.31 C 76.98 55.77 75.27 60.24 73.51 64.67 C 70.74 67.19 67.14 68.79 64.24 71.21 C 60.50 73.80 57.78 77.42 54.18 80.15 C 54.57 75.76 55.47 71.37 56.56 67.10 C 56.84 66.04 57.75 65.26 58.49 64.50 C 64.45 59.02 71.25 54.55 78.68 51.31 Z"
     fill="#ffffff"
     id="path24" />
  <path
     d="M 97.30 52.02 C 95.82 53.94 93.95 55.54 92.41 57.42 C 87.42 63.51 85.11 70.59 83.42 78.16 C 82.56 82.50 82.70 86.88 81.95 91.22 L 80.30 90.74 C 79.71 83.85 81.22 76.64 83.15 70.05 C 85.46 63.62 88.95 56.70 94.24 52.21 C 95.07 51.61 97.49 49.68 97.30 52.02 Z"
     fill="#6995c7"
     id="path26" />
  <path
     d="M 105.34 60.38 C 110.85 58.74 115.89 60.15 119.98 64.08 C 126.37 70.42 129.61 80.09 129.31 89.00 C 129.60 97.65 127.71 106.52 122.48 113.56 C 119.44 117.34 115.02 120.62 110.00 120.82 C 104.05 120.80 99.05 116.88 95.87 112.12 C 91.76 105.66 89.90 97.61 89.92 90.00 C 90.33 84.04 90.78 77.85 93.64 72.52 C 96.37 67.20 99.45 62.52 105.34 60.38 Z"
     fill="#6995c7"
     id="path28" />
  <path
     d="M 35.18 61.05 C 35.77 61.39 36.27 61.81 36.70 62.31 C 40.97 67.76 43.35 73.82 45.61 80.28 C 46.53 82.83 46.18 85.34 46.14 88.00 C 45.96 92.19 46.44 96.33 46.38 100.51 C 42.76 97.48 40.15 93.58 36.77 90.22 C 34.71 88.00 32.09 86.28 30.19 83.94 C 29.85 79.63 30.78 75.14 31.67 70.93 C 32.53 67.48 33.02 63.95 35.18 61.05 Z"
     fill="#ffffff"
     id="path30" />
  <path
     d="M 106.12 62.28 C 107.62 62.15 109.10 62.12 110.60 62.07 C 112.99 71.62 114.91 81.11 114.96 91.00 C 114.56 100.44 113.33 109.66 110.08 118.58 C 108.69 118.35 107.31 118.11 105.92 117.88 C 110.15 103.80 111.39 88.98 108.74 74.48 C 108.27 70.30 106.62 66.43 106.12 62.28 Z"
     fill="#ffffff"
     id="path32" />
  <path
     d="M 113.18 62.63 C 114.69 63.27 116.63 63.94 117.67 65.25 C 120.63 73.39 121.19 81.44 121.58 90.00 C 121.73 98.82 120.03 107.33 117.80 115.81 C 116.19 116.42 114.58 117.05 112.97 117.68 C 115.74 109.04 116.85 100.04 117.10 91.00 C 117.26 81.30 115.34 72.02 113.18 62.63 Z"
     fill="#ffffff"
     id="path34" />
  <path
     d="M 103.76 63.81 C 106.03 69.22 106.56 74.77 107.34 80.51 C 108.96 90.49 107.51 101.30 105.41 111.12 C 105.00 113.31 104.38 114.95 103.16 116.82 C 102.31 115.94 101.50 115.02 100.74 114.07 C 101.12 110.68 102.28 107.40 102.73 104.00 C 103.87 95.04 103.86 85.96 102.81 77.00 C 102.33 73.28 101.13 69.66 100.77 65.94 C 101.40 64.61 102.52 64.35 103.76 63.81 Z"
     fill="#ffffff"
     id="path36" />
  <path
     d="M 98.52 68.60 L 98.52 68.66 L 98.53 68.87 C 101.08 74.39 101.23 81.95 101.43 88.00 C 101.33 95.23 101.28 102.90 99.27 109.89 C 99.14 110.64 98.72 111.09 98.02 111.26 C 92.72 103.55 91.33 93.05 92.47 83.93 C 93.40 78.71 94.91 72.87 98.41 68.74 L 98.52 68.60 Z"
     fill="#ffffff"
     id="path38" />
  <path
     d="M 72.12 68.72 C 71.49 74.48 70.44 80.18 69.73 85.94 C 67.75 88.41 64.71 90.11 62.66 92.64 C 59.43 95.82 57.79 100.15 54.43 103.13 C 53.60 97.82 53.64 92.35 53.74 86.99 C 53.71 84.96 54.73 83.49 55.96 82.00 C 60.66 76.67 65.63 71.83 72.12 68.72 Z"
     fill="#ffffff"
     id="path40" />
  <path
     d="M 122.31 71.04 C 124.49 75.14 126.28 79.35 126.84 84.00 C 127.88 92.87 126.92 102.10 122.25 109.87 C 122.33 105.21 123.27 100.66 123.53 96.01 C 124.33 87.80 122.96 79.25 122.31 71.04 Z"
     fill="#ffffff"
     id="path42" />
  <path
     d="M 29.73 86.79 C 35.62 91.32 40.60 97.09 45.13 102.94 C 47.08 105.35 47.90 108.11 48.54 111.09 C 49.41 115.26 50.92 119.19 52.09 123.27 C 46.06 119.91 41.51 114.81 35.50 111.45 C 33.70 110.17 31.29 109.56 31.12 107.02 C 29.88 100.39 29.50 93.53 29.73 86.79 Z"
     fill="#ffffff"
     id="path44" />
  <path
     d="M 69.84 89.49 C 70.08 94.04 70.04 98.51 70.93 103.00 C 71.25 105.19 71.94 107.58 71.68 109.79 C 70.35 112.00 68.56 113.91 67.24 116.13 C 65.30 119.19 64.06 122.54 62.38 125.72 L 61.26 125.77 C 59.11 121.99 57.91 117.62 56.58 113.50 C 56.07 111.16 54.85 108.32 56.17 106.10 C 58.80 100.73 62.40 95.82 66.60 91.57 C 67.52 90.61 68.67 90.09 69.84 89.49 Z"
     fill="#ffffff"
     id="path46" />
  <path
     d="M 32.99 112.86 C 35.15 113.10 37.12 114.99 38.86 116.18 C 43.00 119.39 47.26 122.41 51.48 125.51 C 56.04 129.00 58.16 133.74 61.09 138.53 C 56.35 137.51 51.82 135.88 46.97 135.29 C 44.66 134.71 42.49 135.24 41.27 132.80 C 37.77 126.87 33.44 119.85 32.99 112.86 Z"
     fill="#ffffff"
     id="path48" />
  <path
     d="M 72.73 113.13 C 74.61 118.52 76.48 123.71 78.89 128.90 C 76.92 133.80 76.34 137.96 76.68 143.24 C 75.27 142.65 73.86 142.34 72.76 141.31 C 69.12 137.97 66.10 134.13 63.36 130.04 C 64.72 124.65 67.32 119.86 70.19 115.14 C 70.79 114.47 71.63 112.53 72.73 113.13 Z"
     fill="#ffffff"
     id="path50" />
  <path
     d="M 79.52 131.95 C 80.11 132.19 80.71 132.40 81.31 132.57 C 83.42 135.19 85.29 137.94 87.67 140.34 C 90.33 143.25 93.48 145.15 96.62 147.47 C 91.59 147.65 83.81 148.62 79.70 145.13 C 77.61 140.89 78.85 136.36 79.52 131.95 Z"
     fill="#ffffff"
     id="path52" />
  <path
     d="M 46.06 137.23 C 55.64 138.45 64.60 142.26 72.79 147.27 C 68.93 147.62 64.73 147.87 60.90 147.15 C 55.85 146.10 51.10 143.06 47.22 139.72 C 46.46 139.17 46.07 138.34 46.06 137.23 Z"
     fill="#ffffff"
     id="path54" />
</svg>
