<?xml version="1.0" encoding="UTF-8" standalone="no"?>
<svg
   xmlns:dc="http://purl.org/dc/elements/1.1/"
   xmlns:cc="http://creativecommons.org/ns#"
   xmlns:rdf="http://www.w3.org/1999/02/22-rdf-syntax-ns#"
   xmlns:svg="http://www.w3.org/2000/svg"
   xmlns="http://www.w3.org/2000/svg"
   xmlns:sodipodi="http://sodipodi.sourceforge.net/DTD/sodipodi-0.dtd"
   xmlns:inkscape="http://www.inkscape.org/namespaces/inkscape"
   version="1.1"
   viewBox="0 0 186 185"
   width="186.0pt"
   height="185.0pt"
   id="svg44"
   sodipodi:docname="9-vidros.svg"
   inkscape:export-filename="C:\Users\aretu\OneDrive\Documentos\NetBeansProjects\ReciEco\web\icones\9-vidros.png"
   inkscape:export-xdpi="154.83871"
   inkscape:export-ydpi="154.83871"
   inkscape:version="0.92.4 (5da689c313, 2019-01-14)">
  <metadata
     id="metadata50">
    <rdf:RDF>
      <cc:Work
         rdf:about="">
        <dc:format>image/svg+xml</dc:format>
        <dc:type
           rdf:resource="http://purl.org/dc/dcmitype/StillImage" />
      </cc:Work>
    </rdf:RDF>
  </metadata>
  <defs
     id="defs48" />
  <sodipodi:namedview
     pagecolor="#ffffff"
     bordercolor="#666666"
     borderopacity="1"
     objecttolerance="10"
     gridtolerance="10"
     guidetolerance="10"
     inkscape:pageopacity="0"
     inkscape:pageshadow="2"
     inkscape:window-width="1024"
     inkscape:window-height="705"
     id="namedview46"
     showgrid="false"
     inkscape:zoom="0.95675676"
     inkscape:cx="124"
     inkscape:cy="123.33333"
     inkscape:window-x="-8"
     inkscape:window-y="-8"
     inkscape:window-maximized="1"
     inkscape:current-layer="svg44" />
  <path
     d="M 128.59 18.33 C 139.32 24.35 149.16 32.64 156.28 42.71 C 169.41 60.02 174.34 82.41 171.43 103.79 C 168.75 121.74 160.06 139.27 146.71 151.66 C 142.66 156.21 137.68 159.34 132.63 162.64 C 117.86 171.83 100.35 176.09 83.01 174.91 C 70.13 173.90 57.68 169.98 46.48 163.55 C 28.74 152.83 15.03 135.73 9.10 115.80 C 7.36 109.20 5.75 102.88 5.73 96.00 C 5.37 87.59 5.92 79.22 8.17 71.07 C 12.52 52.80 23.69 36.89 38.35 25.35 C 48.03 17.97 59.26 12.99 71.06 10.14 C 90.53 6.17 111.09 8.81 128.59 18.33 Z"
     fill="#6995c7"
     id="path4" />
  <path
     d="M 98.99 11.17 C 123.19 13.86 146.08 28.58 158.36 49.67 C 165.97 61.98 170.18 76.52 170.06 91.01 C 170.47 106.00 166.15 120.70 158.55 133.55 C 147.76 150.97 130.91 164.39 111.08 169.94 C 97.82 173.26 84.37 174.30 71.00 170.97 C 52.92 166.79 36.46 156.64 25.15 141.86 C 13.34 127.10 6.99 107.89 7.77 88.99 C 8.09 74.08 13.00 59.51 21.03 47.00 C 27.54 37.01 36.34 28.80 46.35 22.39 C 61.84 13.09 81.03 8.50 98.99 11.17 Z"
     fill="#ffffff"
     id="path6" />
  <path
     d="M 97.50 35.48 C 98.01 36.06 98.53 36.63 99.04 37.21 C 99.15 38.47 99.26 39.73 99.37 40.99 C 99.98 42.20 101.23 43.60 101.09 44.98 C 100.37 47.40 99.10 49.33 99.26 51.96 C 99.39 57.92 99.21 64.08 101.27 69.73 C 103.49 75.88 106.15 81.46 107.41 87.98 C 108.75 94.10 108.23 99.81 108.25 106.00 C 108.23 119.42 108.33 132.84 108.23 146.26 C 100.92 148.34 93.55 148.14 85.99 147.99 C 82.56 147.91 79.25 147.17 75.98 146.20 C 75.81 129.13 75.96 112.07 75.88 95.00 C 75.72 84.80 82.33 74.23 84.34 65.21 C 85.17 58.55 85.40 51.45 83.51 44.95 C 84.19 42.16 84.69 38.51 86.22 36.13 C 89.46 34.70 93.99 35.47 97.50 35.48 Z"
     fill="#6995c7"
     id="path8" />
  <path
     d="M 87.48 38.09 C 90.36 37.05 94.01 37.79 97.01 38.04 C 96.97 39.06 96.93 40.07 96.90 41.09 C 93.54 41.13 90.21 41.05 86.86 40.84 C 87.05 39.92 87.25 39.00 87.48 38.09 Z"
     fill="#ffffff"
     id="path10" />
  <path
     d="M 86.17 43.46 C 90.23 42.90 94.45 43.21 98.54 43.25 C 98.74 44.12 98.94 44.99 99.14 45.85 C 95.20 47.35 90.43 46.72 86.31 46.35 C 85.07 45.65 85.02 44.69 86.17 43.46 Z"
     fill="#ffffff"
     id="path12" />
  <path
     d="M 87.11 48.59 C 90.56 48.76 94.01 48.89 97.47 48.93 C 97.35 55.46 96.74 62.82 98.78 69.09 C 101.70 78.27 106.39 85.56 106.08 95.65 C 96.63 96.79 87.41 97.27 77.98 95.54 C 78.23 86.78 81.63 79.53 84.72 71.54 C 87.67 63.81 86.84 56.64 87.11 48.59 Z"
     fill="#ffffff"
     id="path14" />
  <path
     d="M 116.68 68.07 C 125.96 67.97 135.31 67.80 144.58 68.22 C 145.27 73.17 144.95 78.06 144.29 82.99 C 143.55 89.43 142.30 95.94 137.79 100.89 C 136.10 102.76 133.94 103.22 131.68 104.08 C 132.00 117.99 131.79 131.94 131.88 145.86 C 134.61 145.90 137.34 145.93 140.06 146.02 L 139.25 147.88 C 133.56 148.25 127.38 148.26 121.69 147.87 L 120.74 146.01 C 123.71 145.93 126.69 145.91 129.66 145.85 C 129.58 132.09 129.80 118.11 129.63 104.38 C 126.75 102.67 123.88 102.08 122.02 99.00 C 116.27 90.66 116.51 77.80 116.68 68.07 Z"
     fill="#6995c7"
     id="path16" />
  <path
     d="M 118.92 70.07 C 126.81 70.17 134.70 70.07 142.60 70.07 C 142.81 73.76 142.70 77.31 142.24 80.98 C 141.68 86.64 140.85 92.80 137.59 97.62 C 135.95 100.15 133.14 102.00 130.06 101.90 C 126.49 101.32 123.92 98.77 122.46 95.57 C 118.89 87.47 118.59 78.78 118.92 70.07 Z"
     fill="#ffffff"
     id="path18" />
  <path
     d="M 122.87 73.90 L 124.94 74.53 C 125.03 81.18 124.63 87.68 126.14 94.23 C 124.70 93.90 123.89 93.18 123.72 92.07 C 122.20 86.31 122.66 79.82 122.87 73.90 Z"
     fill="#6995c7"
     id="path20" />
  <path
     d="M 39.57 87.04 C 46.07 86.93 52.58 86.88 59.08 87.06 C 59.11 89.61 59.14 92.15 59.21 94.70 C 62.13 97.06 65.00 98.81 65.32 102.95 C 66.08 117.79 65.49 132.78 65.62 147.65 C 57.13 148.21 48.52 147.92 40.00 148.01 C 37.56 148.06 35.25 147.85 32.86 147.39 C 33.15 132.94 32.74 118.42 33.06 103.98 C 33.35 99.45 35.79 97.01 39.48 94.81 C 39.43 92.21 39.45 89.64 39.57 87.04 Z"
     fill="#6995c7"
     id="path22" />
  <path
     d="M 41.68 89.06 C 46.75 89.04 51.82 89.02 56.88 89.06 C 56.91 90.79 56.93 92.52 56.95 94.25 C 51.95 94.35 46.95 94.31 41.95 94.47 C 41.86 92.67 41.77 90.87 41.68 89.06 Z"
     fill="#ffffff"
     id="path24" />
  <path
     d="M 49.00 96.78 C 52.65 97.07 58.47 95.82 61.13 98.86 C 63.48 101.10 63.21 104.04 63.38 107.04 C 63.56 119.87 63.48 132.72 63.52 145.55 C 54.09 145.82 44.63 145.72 35.20 145.57 C 35.00 133.05 35.24 120.52 35.07 108.00 C 35.14 104.89 34.85 101.60 37.13 99.14 C 39.77 95.87 45.27 97.00 49.00 96.78 Z"
     fill="#ffffff"
     id="path26" />
  <path
     d="M 78.12 97.91 C 82.08 98.16 86.02 98.64 89.98 98.87 C 95.51 99.17 100.60 98.22 106.07 97.54 C 106.09 107.37 106.02 117.19 106.12 127.01 C 106.04 128.37 106.23 130.04 105.64 131.29 C 96.65 133.00 87.17 132.81 78.15 131.36 C 78.00 120.21 78.10 109.06 78.12 97.91 Z"
     fill="#ffffff"
     id="path28" />
  <path
     d="M 47.98 101.60 C 46.34 102.64 44.25 103.48 42.94 104.96 C 41.24 107.21 42.95 111.33 39.35 111.79 C 39.38 107.95 39.87 104.49 43.00 101.93 C 44.59 101.09 46.43 100.10 47.98 101.60 Z"
     fill="#6995c7"
     id="path30" />
  <path
     d="M 81.08 101.21 C 84.67 100.78 88.39 101.05 92.00 101.05 C 96.16 101.16 100.01 100.57 104.10 101.65 C 103.96 104.18 103.79 106.71 103.51 109.24 C 95.86 108.81 88.11 109.65 80.50 108.73 C 80.61 106.29 80.31 103.55 81.08 101.21 Z"
     fill="#6995c7"
     id="path32" />
  <path
     d="M 82.92 103.29 C 88.60 103.36 94.31 103.11 99.99 103.35 C 101.81 103.09 101.42 105.68 101.87 106.80 C 95.46 107.07 89.07 106.96 82.65 106.95 C 82.74 105.73 82.83 104.51 82.92 103.29 Z"
     fill="#ffffff"
     id="path34" />
  <path
     d="M 83.63 113.42 C 89.45 113.69 95.26 113.51 101.09 113.59 C 101.07 118.37 101.09 123.14 100.88 127.92 C 95.15 128.58 89.44 128.39 83.70 128.20 C 83.04 123.27 83.21 118.35 83.63 113.42 Z"
     fill="#6995c7"
     id="path36" />
  <path
     d="M 98.84 115.43 C 98.95 119.02 98.99 122.61 98.97 126.20 C 94.43 126.38 89.91 126.39 85.37 126.16 C 85.34 122.77 85.25 119.39 85.31 116.00 C 89.68 115.05 94.37 115.83 98.84 115.43 Z"
     fill="#ffffff"
     id="path38" />
  <path
     d="M 39.79 116.90 C 41.22 117.23 41.84 117.95 41.65 119.07 C 41.64 126.05 41.99 133.12 41.28 140.06 L 39.83 138.95 C 39.28 131.78 39.24 124.08 39.79 116.90 Z"
     fill="#6995c7"
     id="path40" />
  <path
     d="M 78.09 133.61 C 87.42 134.75 96.81 135.01 106.12 133.50 C 106.16 137.35 106.21 141.20 106.18 145.05 C 96.93 146.17 87.37 146.30 78.13 144.94 C 78.04 141.16 78.04 137.39 78.09 133.61 Z"
     fill="#ffffff"
     id="path42" />
</svg>
