<?xml version="1.0" encoding="UTF-8" standalone="no"?>
<svg
   xmlns:dc="http://purl.org/dc/elements/1.1/"
   xmlns:cc="http://creativecommons.org/ns#"
   xmlns:rdf="http://www.w3.org/1999/02/22-rdf-syntax-ns#"
   xmlns:svg="http://www.w3.org/2000/svg"
   xmlns="http://www.w3.org/2000/svg"
   xmlns:sodipodi="http://sodipodi.sourceforge.net/DTD/sodipodi-0.dtd"
   xmlns:inkscape="http://www.inkscape.org/namespaces/inkscape"
   inkscape:export-ydpi="96"
   inkscape:export-xdpi="96"
   inkscape:export-filename="/home/solucaocriativa/Development/ECO - Henrique/ReciEco-front/src/assets/icon-map.png"
   sodipodi:docname="icon-map.svg"
   width="34"
   height="34"
   viewBox="0 0 8.9958331 8.9958336"
   version="1.1"
   id="svg8"
   inkscape:version="1.0 (b51213c273, 2020-08-10)">
  <defs
     id="defs2" />
  <sodipodi:namedview
     inkscape:window-maximized="1"
     inkscape:window-y="26"
     inkscape:window-x="0"
     inkscape:window-height="690"
     inkscape:window-width="1366"
     id="base"
     pagecolor="#3c3c3c"
     bordercolor="#666666"
     borderopacity="1.0"
     inkscape:pageopacity="0"
     inkscape:pageshadow="2"
     inkscape:zoom="7.919596"
     inkscape:cx="20.90006"
     inkscape:cy="12.397003"
     inkscape:document-units="px"
     inkscape:current-layer="layer1"
     inkscape:document-rotation="0"
     showgrid="false"
     units="px"
     inkscape:showpageshadow="false" />
  <metadata
     id="metadata5">
    <rdf:RDF>
      <cc:Work
         rdf:about="">
        <dc:format>image/svg+xml</dc:format>
        <dc:type
           rdf:resource="http://purl.org/dc/dcmitype/StillImage" />
        <dc:title />
      </cc:Work>
    </rdf:RDF>
  </metadata>
  <g
     transform="translate(54.632427,-47.96983)"
     inkscape:label="Layer 1"
     inkscape:groupmode="layer"
     id="layer1">
    <path
       sodipodi:nodetypes="scsss"
       d="m -47.262479,50.897733 c 0,1.586179 -2.872031,6.01206 -2.872031,6.01206 0,0 -2.872031,-4.425881 -2.872031,-6.01206 0,-1.586179 1.285852,-2.872032 2.872031,-2.872032 1.586179,0 2.872031,1.285853 2.872031,2.872032 z"
       style="fill:#000000;stroke-width:0.170648;stroke-linecap:round;stroke-linejoin:round"
       id="path10" />
    <rect
       inkscape:transform-center-y="-24.474778"
       inkscape:transform-center-x="47.513435"
       y="46.994427"
       x="34.120888"
       height="79.375"
       width="79.375"
       id="rect23"
       style="fill:#ffffff;stroke-width:0.274712;stroke-linecap:round;stroke-linejoin:round" />
    <path
       sodipodi:nodetypes="cssssssssscccccsssccscssccscssscccccsssscssssscccscsssscsssssssczsscscscssssccssscssscscc"
       id="path860"
       d="m 81.351349,116.50421 c -2.25352,-3.86471 -4.12907,-7.15567 -4.16787,-7.31325 -0.06,-0.24353 7.45363,-13.649552 7.92711,-14.143842 0.0907,-0.0947 0.28062,0.96857 0.42197,2.36288 0.14136,1.39429 0.28455,2.56262 0.3182,2.596272 0.0337,0.0337 4.04096,0.14878 8.90512,0.25584 9.592181,0.21115 10.378131,0.15818 12.469491,-0.840372 0.70953,-0.33877 1.3086,-0.59739 1.33129,-0.57472 0.0226,0.0226 -1.93136,3.666002 -4.34229,8.096262 -4.506671,8.28132 -5.228151,9.34872 -6.905011,10.21555 -1.66723,0.86187 -2.81954,1.02185 -7.37952,1.02453 l -4.36045,0.003 -0.0603,2.67251 -0.0603,2.67252 z m -24.7996,1.26144 c -3.69469,-0.13575 -3.98979,-0.23762 -5.88738,-2.03229 -3.35531,-3.17331 -3.34084,-7.42579 0.0445,-13.07415 l 1.09861,-1.83302 2.37214,-0.13728 c 1.30468,-0.0755 5.65609,-0.1932 9.66981,-0.26155 l 7.29768,-0.12428 -0.13135,5.76061 c -0.0722,3.16832 -0.18816,7.14344 -0.25759,8.83359 l -0.12626,3.07299 -5.42271,-0.0429 c -2.98249,-0.0236 -6.87834,-0.0964 -8.65744,-0.16175 z m -15.31106,-15.80451 c -2.609349,-4.247432 -4.909847,-8.181212 -5.112219,-8.741752 -0.516002,-1.42923 -0.474802,-3.32036 0.109117,-5.00864 0.266643,-0.77094 1.372808,-2.92624 2.458142,-4.78954 l 1.973335,-3.38782 -2.409797,-1.40721 -2.409797,-1.40722 8.553479,-0.003 8.55348,-0.003 0.82724,1.45062 c 0.45498,0.79784 0.9728,1.71535 1.15071,2.03891 0.55848,1.01568 4.77841,8.22684 5.27733,9.01809 0.26176,0.41513 0.59058,0.97054 0.73073,1.23426 l 0.2548,0.47949 -0.92102,-0.40255 c -0.50657,-0.2214 -1.59227,-0.70724 -2.41266,-1.07965 -0.8204,-0.37241 -1.56483,-0.60111 -1.65429,-0.50824 -0.49579,0.51471 -8.98094,14.817542 -9.4104,15.862482 -0.28146,0.68483 -0.57974,1.94995 -0.66283,2.8114 l -0.15108,1.56626 -4.74427,-7.72261 z m 57.63762,-3.762512 -1.01884,-0.0912 -2.75502,-4.56559 c -1.51526,-2.51107 -2.99761,-4.98069 -3.29413,-5.48805 -0.29652,-0.50736 -1.24268,-2.07911 -2.10257,-3.49279 -0.85991,-1.41369 -1.56346,-2.65869 -1.56346,-2.76668 0,-0.17917 14.659111,-8.29055 15.189611,-8.40492 0.1261,-0.0272 2.07308,3.22371 4.3266,7.22423 3.81479,6.77209 4.10235,7.35883 4.17015,8.50879 0.25245,4.28171 -2.24008,7.52115 -6.65915,8.65466 -1.31615,0.3376 -4.69954,0.56424 -6.293191,0.42157 z m -44.05175,-26.41332 c -4.03263,-2.50718 -7.36109,-4.58078 -7.39657,-4.60799 -0.0355,-0.0272 1.91892,-3.33603 4.34312,-7.35295 l 4.40762,-7.30349 c 2.15742,-1.2852 3.0514,-1.52425 5.02793,-1.70005 1.97653,-0.1758 2.78216,0.0315 3.84339,0.58998 2.25809,1.18832 4.27322,3.49514 5.931,6.78949 l 0.79613,1.5821 -4.66975,8.28383 c -2.56837,4.55611 -4.733,8.28244 -4.81029,8.28072 -0.0773,-0.002 -3.43995,-2.05445 -7.47258,-4.56164 z m 20.37881,0.61145 c 0,-0.0422 0.92189,-0.73026 2.04866,-1.52898 1.12677,-0.79873 2.04866,-1.533 2.04866,-1.63171 0,-0.0987 -1.89869,-3.70594 -4.21931,-8.01604 -4.42623,-8.22085 -5.09583,-9.20074 -7.21007,-10.5511 l -0.97042,-0.61981 1.61737,-0.005 c 0.88955,-0.003 5.20791,-0.0649 9.59636,-0.13801 7.86749,-0.13103 7.99644,-0.12624 9.22644,0.34277 2.17096,0.82781 3.39919,2.20266 5.85352,6.55223 l 2.14103,3.79435 0.6624,-0.39989 c 1.54604,-0.93336 3.85431,-2.18242 3.91709,-2.11964 0.0374,0.0374 -1.79773,3.26671 -4.07798,7.17634 l -4.14592,7.1084 -8.24392,0.0565 c -4.53415,0.031 -8.24391,0.0219 -8.24391,-0.0203 z"
       style="fill:#00b206;fill-opacity:1;stroke-width:0.215649" />
    <path
       style="fill:#ffffff;fill-opacity:1;stroke-width:0.0110133"
       d="m -49.749288,52.563707 c -0.115088,-0.197372 -0.210873,-0.365443 -0.212855,-0.373491 -0.0031,-0.01244 0.38066,-0.697088 0.404841,-0.722332 0.0046,-0.0048 0.01433,0.04947 0.02155,0.120673 0.0072,0.07121 0.01453,0.130874 0.01625,0.132593 0.0017,0.0017 0.206374,0.0076 0.454788,0.01307 0.489877,0.01078 0.530016,0.0081 0.636823,-0.04292 0.03623,-0.0173 0.06683,-0.03051 0.06799,-0.02935 0.0012,0.0012 -0.09864,0.187224 -0.221762,0.413479 -0.230158,0.422931 -0.267004,0.477443 -0.352642,0.521713 -0.08515,0.04402 -0.143995,0.05219 -0.376876,0.05232 l -0.22269,1.53e-4 -0.0031,0.136487 -0.0031,0.136486 z m -1.266526,0.06442 c -0.18869,-0.0069 -0.203761,-0.01214 -0.300671,-0.103789 -0.171358,-0.162063 -0.170619,-0.379239 0.0023,-0.667703 l 0.05611,-0.09361 0.121147,-0.007 c 0.06663,-0.0039 0.288858,-0.0099 0.493841,-0.01336 l 0.372696,-0.0063 -0.0067,0.294197 c -0.0037,0.161807 -0.0096,0.364819 -0.01315,0.451135 l -0.0064,0.156939 -0.27694,-0.0022 c -0.152318,-0.0012 -0.35128,-0.0049 -0.44214,-0.0083 z m -0.781943,-0.807143 c -0.133261,-0.216918 -0.250748,-0.417818 -0.261083,-0.446445 -0.02635,-0.07299 -0.02425,-0.169572 0.0056,-0.255793 0.01362,-0.03937 0.07011,-0.149445 0.125539,-0.244604 l 0.100778,-0.173018 -0.123069,-0.07187 -0.123069,-0.07187 0.43683,-1.53e-4 0.43683,-1.53e-4 0.04225,0.07408 c 0.02323,0.04075 0.04968,0.0876 0.05877,0.104128 0.02852,0.05187 0.244035,0.420148 0.269516,0.460558 0.01337,0.0212 0.03016,0.04957 0.03732,0.06303 l 0.01301,0.02449 -0.04704,-0.02056 c -0.02587,-0.01131 -0.08132,-0.03612 -0.123216,-0.05514 -0.0419,-0.01902 -0.07992,-0.0307 -0.08449,-0.02596 -0.02532,0.02629 -0.45866,0.756738 -0.480593,0.810103 -0.01438,0.03497 -0.02961,0.09958 -0.03385,0.14358 l -0.0077,0.07999 -0.242292,-0.394397 z m 2.943578,-0.192153 -0.05203,-0.0047 -0.1407,-0.233167 c -0.07738,-0.128241 -0.153089,-0.254366 -0.168233,-0.280277 -0.01514,-0.02591 -0.06346,-0.106181 -0.107379,-0.178379 -0.04392,-0.0722 -0.07985,-0.13578 -0.07985,-0.141295 0,-0.0092 0.748648,-0.423402 0.77574,-0.429243 0.0064,-0.0014 0.105874,0.164637 0.220962,0.368945 0.194823,0.345853 0.209509,0.375819 0.212971,0.434547 0.01289,0.218669 -0.114402,0.384109 -0.340085,0.441998 -0.06722,0.01724 -0.240008,0.02882 -0.321397,0.02153 z m -2.249741,-1.34894 c -0.205949,-0.128042 -0.375935,-0.233942 -0.377747,-0.235332 -0.0018,-0.0014 0.098,-0.170372 0.221805,-0.375518 l 0.225099,-0.372992 c 0.110181,-0.06564 0.155837,-0.07784 0.256779,-0.08682 0.100942,-0.009 0.142086,0.0016 0.196283,0.03013 0.115322,0.06069 0.218236,0.178498 0.302899,0.346742 l 0.04066,0.0808 -0.238486,0.423058 c -0.131168,0.232683 -0.241717,0.422988 -0.245664,0.422901 -0.004,-1.03e-4 -0.17568,-0.104922 -0.381628,-0.232965 z m 1.040754,0.03123 c 0,-0.0022 0.04708,-0.03729 0.104626,-0.07809 0.05754,-0.04079 0.104626,-0.07829 0.104626,-0.08333 0,-0.005 -0.09697,-0.189263 -0.215482,-0.409382 -0.22605,-0.419843 -0.260246,-0.469886 -0.368222,-0.53885 l -0.04956,-0.03165 0.0826,-2.56e-4 c 0.04543,-1.53e-4 0.26597,-0.0033 0.49009,-0.007 0.401796,-0.0067 0.408382,-0.0064 0.471198,0.01751 0.110872,0.04228 0.173598,0.112491 0.298942,0.334625 l 0.109343,0.193779 0.03383,-0.02042 c 0.07896,-0.04767 0.196841,-0.111457 0.200047,-0.108251 0.0019,0.0019 -0.09181,0.166832 -0.208264,0.366499 l -0.211734,0.363029 -0.421021,0.0029 c -0.231561,0.0016 -0.42102,0.0011 -0.42102,-10e-4 z"
       id="path876"
       sodipodi:nodetypes="cssssssssscccccsssccscssccscssscccccsssscssssscccscsssscsssssssczsscscscssssccssscssscscc" />
  </g>
</svg>
