<?xml version="1.0" encoding="UTF-8" standalone="no"?>
<svg
   xmlns:dc="http://purl.org/dc/elements/1.1/"
   xmlns:cc="http://creativecommons.org/ns#"
   xmlns:rdf="http://www.w3.org/1999/02/22-rdf-syntax-ns#"
   xmlns:svg="http://www.w3.org/2000/svg"
   xmlns="http://www.w3.org/2000/svg"
   xmlns:sodipodi="http://sodipodi.sourceforge.net/DTD/sodipodi-0.dtd"
   xmlns:inkscape="http://www.inkscape.org/namespaces/inkscape"
   inkscape:export-ydpi="96"
   inkscape:export-xdpi="96"
   inkscape:export-filename="/home/solucaocriativa/Development/ECO - Henrique/recieco-frontend/public/favicon.png"
   sodipodi:docname="icon-header.svg"
   width="20"
   height="20"
   viewBox="0 0 5.2916665 5.2916668"
   version="1.1"
   id="svg8"
   inkscape:version="1.0 (6e3e5246a0, 2020-05-07)">
  <defs
     id="defs2" />
  <sodipodi:namedview
     inkscape:window-maximized="1"
     inkscape:window-y="26"
     inkscape:window-x="0"
     inkscape:window-height="690"
     inkscape:window-width="1366"
     id="base"
     pagecolor="#3c3c3c"
     bordercolor="#666666"
     borderopacity="1.0"
     inkscape:pageopacity="0"
     inkscape:pageshadow="2"
     inkscape:zoom="22.627417"
     inkscape:cx="13.621446"
     inkscape:cy="12.541438"
     inkscape:document-units="px"
     inkscape:current-layer="layer1"
     inkscape:document-rotation="0"
     showgrid="false"
     units="px"
     inkscape:showpageshadow="false" />
  <metadata
     id="metadata5">
    <rdf:RDF>
      <cc:Work
         rdf:about="">
        <dc:format>image/svg+xml</dc:format>
        <dc:type
           rdf:resource="http://purl.org/dc/dcmitype/StillImage" />
        <dc:title />
      </cc:Work>
    </rdf:RDF>
  </metadata>
  <g
     transform="translate(53.148651,-49.455822)"
     inkscape:label="Layer 1"
     inkscape:groupmode="layer"
     id="layer1">
    <path
       id="path10"
       style="fill:#ffffff;stroke-width:0.10136;stroke-linecap:round;stroke-linejoin:round"
       d="m -50.502818,49.463188 c -0.942138,0 -1.705981,0.76384 -1.705981,1.705979 0,0.94214 1.705981,3.570956 1.705981,3.570956 0,0 1.705981,-2.628816 1.705981,-3.570956 0,-0.942139 -0.763842,-1.705979 -1.705981,-1.705979 z m 0.34623,0.673736 c 0.03548,0.0014 0.0458,0.0049 0.06446,0.01196 0.06586,0.0251 0.102962,0.06696 0.177412,0.198898 l 0.06507,0.114796 0.01995,-0.01196 c 0.0469,-0.02831 0.116882,-0.06636 0.118785,-0.06446 0.0012,0.0012 -0.05452,0.09933 -0.123696,0.217928 l -0.125538,0.215473 -0.250158,0.0018 c -0.13754,9.95e-4 -0.250157,6.53e-4 -0.250157,-5.95e-4 0,-0.0014 0.02813,-0.02211 0.06231,-0.04635 0.03418,-0.02423 0.062,-0.04673 0.062,-0.04973 0,-0.003 -0.0576,-0.112353 -0.127995,-0.243097 -0.134266,-0.249373 -0.154715,-0.279177 -0.218849,-0.320139 l -0.02916,-0.01873 h 0.04881 c 0.02699,-9.1e-5 0.158168,-0.0021 0.291287,-0.0043 0.119327,-0.002 0.18,-0.0029 0.215473,-0.0015 z m -0.728372,0.02915 c 0.05996,-0.0053 0.08445,0.0012 0.116637,0.0181 0.0685,0.03605 0.129581,0.106026 0.179868,0.205957 l 0.02394,0.04789 -0.1415,0.251385 c -0.07791,0.138206 -0.143453,0.251129 -0.145798,0.251078 -0.0024,-6.1e-5 -0.104502,-0.06238 -0.226829,-0.13843 -0.122327,-0.07605 -0.223298,-0.138832 -0.224374,-0.139659 -0.0011,-8.31e-4 0.05815,-0.101296 0.131678,-0.223146 l 0.133826,-0.221611 c 0.06545,-0.03898 0.09259,-0.04624 0.15255,-0.05156 z m 1.277797,0.684786 c 0.0038,-8.32e-4 0.06301,0.09781 0.131371,0.219157 0.115718,0.205425 0.124403,0.223256 0.12646,0.258138 0.0077,0.129882 -0.06791,0.228051 -0.201968,0.262435 -0.03993,0.01024 -0.142574,0.01722 -0.190917,0.01289 l -0.031,-0.0028 -0.08349,-0.138738 c -0.04597,-0.07617 -0.09107,-0.150972 -0.100062,-0.166362 -0.009,-0.01539 -0.03776,-0.06301 -0.06385,-0.105894 -0.02609,-0.04288 -0.04727,-0.08083 -0.04727,-0.0841 0,-0.0055 0.444628,-0.251293 0.460719,-0.254762 z m -2.046992,0.116024 h 0.259366 0.259365 l 0.02516,0.0439 c 0.0138,0.0242 0.02959,0.05188 0.03499,0.06169 0.01694,0.03081 0.144782,0.24979 0.159916,0.273792 0.0079,0.0126 0.01815,0.02946 0.0224,0.03745 l 0.0077,0.01442 -0.02793,-0.01228 c -0.01536,-0.0068 -0.04847,-0.02124 -0.07336,-0.03254 -0.02489,-0.0113 -0.04731,-0.01847 -0.05003,-0.01565 -0.01504,0.01562 -0.272428,0.449587 -0.285456,0.481284 -0.0085,0.02077 -0.01774,0.0592 -0.02027,0.08533 l -0.0047,0.04758 -0.143649,-0.234502 h -3.14e-4 c -0.07915,-0.128843 -0.14886,-0.247887 -0.154997,-0.264891 -0.01565,-0.04336 -0.01436,-0.100722 0.0034,-0.151936 0.008,-0.02339 0.04166,-0.08897 0.07459,-0.145489 l 0.05986,-0.102826 -0.07305,-0.04267 z m 1.49419,0.540832 c 0.0027,-0.0029 0.0086,0.02954 0.0129,0.07183 0.0043,0.0423 0.0084,0.07755 0.0095,0.07858 9.95e-4,9.95e-4 0.122559,0.0048 0.270109,0.008 0.29097,0.0064 0.315019,0.0045 0.378459,-0.02578 0.02152,-0.01027 0.03952,-0.01788 0.04021,-0.01719 7.13e-4,7.13e-4 -0.05855,0.111165 -0.131678,0.245553 -0.136707,0.251208 -0.158468,0.28341 -0.209334,0.309704 -0.05058,0.02615 -0.08575,0.03123 -0.224067,0.03131 h -0.132292 l -0.0018,0.08104 -0.0018,0.08103 -0.12431,-0.213016 c -0.06836,-0.117233 -0.124976,-0.217138 -0.126154,-0.221919 -0.0018,-0.0074 0.225973,-0.414109 0.240336,-0.429103 z m -0.423578,0.159609 -0.004,0.17465 c -0.0022,0.09611 -0.0056,0.216691 -0.0077,0.267958 l -0.004,0.09331 -0.16452,-0.0015 c -0.09047,-7.13e-4 -0.208467,-0.0029 -0.262435,-0.005 -0.112075,-0.0042 -0.121079,-0.007 -0.17864,-0.06139 -0.101781,-0.09626 -0.10148,-0.225537 0.0013,-0.396875 l 0.03346,-0.05556 0.07183,-0.004 c 0.03957,-0.0024 0.171683,-0.006 0.293436,-0.008 z" />
    <rect
       inkscape:transform-center-y="-24.474778"
       inkscape:transform-center-x="47.513435"
       y="46.994427"
       x="34.120888"
       height="79.375"
       width="79.375"
       id="rect23"
       style="fill:#ffffff;stroke-width:0.274712;stroke-linecap:round;stroke-linejoin:round" />
    <path
       sodipodi:nodetypes="cssssssssscccccsssccscssccscssscccccsssscssssscccscsssscsssssssczsscscscssssccssscssscscc"
       id="path860"
       d="m 81.351349,116.50421 c -2.25352,-3.86471 -4.12907,-7.15567 -4.16787,-7.31325 -0.06,-0.24353 7.45363,-13.649552 7.92711,-14.143842 0.0907,-0.0947 0.28062,0.96857 0.42197,2.36288 0.14136,1.39429 0.28455,2.56262 0.3182,2.596272 0.0337,0.0337 4.04096,0.14878 8.90512,0.25584 9.592181,0.21115 10.378131,0.15818 12.469491,-0.840372 0.70953,-0.33877 1.3086,-0.59739 1.33129,-0.57472 0.0226,0.0226 -1.93136,3.666002 -4.34229,8.096262 -4.506671,8.28132 -5.228151,9.34872 -6.905011,10.21555 -1.66723,0.86187 -2.81954,1.02185 -7.37952,1.02453 l -4.36045,0.003 -0.0603,2.67251 -0.0603,2.67252 z m -24.7996,1.26144 c -3.69469,-0.13575 -3.98979,-0.23762 -5.88738,-2.03229 -3.35531,-3.17331 -3.34084,-7.42579 0.0445,-13.07415 l 1.09861,-1.83302 2.37214,-0.13728 c 1.30468,-0.0755 5.65609,-0.1932 9.66981,-0.26155 l 7.29768,-0.12428 -0.13135,5.76061 c -0.0722,3.16832 -0.18816,7.14344 -0.25759,8.83359 l -0.12626,3.07299 -5.42271,-0.0429 c -2.98249,-0.0236 -6.87834,-0.0964 -8.65744,-0.16175 z m -15.31106,-15.80451 c -2.609349,-4.247432 -4.909847,-8.181212 -5.112219,-8.741752 -0.516002,-1.42923 -0.474802,-3.32036 0.109117,-5.00864 0.266643,-0.77094 1.372808,-2.92624 2.458142,-4.78954 l 1.973335,-3.38782 -2.409797,-1.40721 -2.409797,-1.40722 8.553479,-0.003 8.55348,-0.003 0.82724,1.45062 c 0.45498,0.79784 0.9728,1.71535 1.15071,2.03891 0.55848,1.01568 4.77841,8.22684 5.27733,9.01809 0.26176,0.41513 0.59058,0.97054 0.73073,1.23426 l 0.2548,0.47949 -0.92102,-0.40255 c -0.50657,-0.2214 -1.59227,-0.70724 -2.41266,-1.07965 -0.8204,-0.37241 -1.56483,-0.60111 -1.65429,-0.50824 -0.49579,0.51471 -8.98094,14.817542 -9.4104,15.862482 -0.28146,0.68483 -0.57974,1.94995 -0.66283,2.8114 l -0.15108,1.56626 -4.74427,-7.72261 z m 57.63762,-3.762512 -1.01884,-0.0912 -2.75502,-4.56559 c -1.51526,-2.51107 -2.99761,-4.98069 -3.29413,-5.48805 -0.29652,-0.50736 -1.24268,-2.07911 -2.10257,-3.49279 -0.85991,-1.41369 -1.56346,-2.65869 -1.56346,-2.76668 0,-0.17917 14.659111,-8.29055 15.189611,-8.40492 0.1261,-0.0272 2.07308,3.22371 4.3266,7.22423 3.81479,6.77209 4.10235,7.35883 4.17015,8.50879 0.25245,4.28171 -2.24008,7.52115 -6.65915,8.65466 -1.31615,0.3376 -4.69954,0.56424 -6.293191,0.42157 z m -44.05175,-26.41332 c -4.03263,-2.50718 -7.36109,-4.58078 -7.39657,-4.60799 -0.0355,-0.0272 1.91892,-3.33603 4.34312,-7.35295 l 4.40762,-7.30349 c 2.15742,-1.2852 3.0514,-1.52425 5.02793,-1.70005 1.97653,-0.1758 2.78216,0.0315 3.84339,0.58998 2.25809,1.18832 4.27322,3.49514 5.931,6.78949 l 0.79613,1.5821 -4.66975,8.28383 c -2.56837,4.55611 -4.733,8.28244 -4.81029,8.28072 -0.0773,-0.002 -3.43995,-2.05445 -7.47258,-4.56164 z m 20.37881,0.61145 c 0,-0.0422 0.92189,-0.73026 2.04866,-1.52898 1.12677,-0.79873 2.04866,-1.533 2.04866,-1.63171 0,-0.0987 -1.89869,-3.70594 -4.21931,-8.01604 -4.42623,-8.22085 -5.09583,-9.20074 -7.21007,-10.5511 l -0.97042,-0.61981 1.61737,-0.005 c 0.88955,-0.003 5.20791,-0.0649 9.59636,-0.13801 7.86749,-0.13103 7.99644,-0.12624 9.22644,0.34277 2.17096,0.82781 3.39919,2.20266 5.85352,6.55223 l 2.14103,3.79435 0.6624,-0.39989 c 1.54604,-0.93336 3.85431,-2.18242 3.91709,-2.11964 0.0374,0.0374 -1.79773,3.26671 -4.07798,7.17634 l -4.14592,7.1084 -8.24392,0.0565 c -4.53415,0.031 -8.24391,0.0219 -8.24391,-0.0203 z"
       style="fill:#00b206;fill-opacity:1;stroke-width:0.215649" />
  </g>
</svg>
