<?xml version="1.0" encoding="UTF-8" standalone="no"?>
<svg
   xmlns:dc="http://purl.org/dc/elements/1.1/"
   xmlns:cc="http://creativecommons.org/ns#"
   xmlns:rdf="http://www.w3.org/1999/02/22-rdf-syntax-ns#"
   xmlns:svg="http://www.w3.org/2000/svg"
   xmlns="http://www.w3.org/2000/svg"
   xmlns:sodipodi="http://sodipodi.sourceforge.net/DTD/sodipodi-0.dtd"
   xmlns:inkscape="http://www.inkscape.org/namespaces/inkscape"
   inkscape:version="1.0 (6e3e5246a0, 2020-05-07)"
   id="svg8"
   version="1.1"
   viewBox="0 0 8.9958331 8.9958336"
   height="34"
   width="34"
   sodipodi:docname="logo-blank.svg"
   inkscape:export-filename="/home/solucaocriativa/Development/ECO - Henrique/recieco-frontend/public/favicon.png"
   inkscape:export-xdpi="96"
   inkscape:export-ydpi="96">
  <defs
     id="defs2" />
  <sodipodi:namedview
     inkscape:showpageshadow="false"
     units="px"
     showgrid="false"
     inkscape:document-rotation="0"
     inkscape:current-layer="layer1"
     inkscape:document-units="px"
     inkscape:cy="10.803833"
     inkscape:cx="17.919798"
     inkscape:zoom="11.2"
     inkscape:pageshadow="2"
     inkscape:pageopacity="0"
     borderopacity="1.0"
     bordercolor="#666666"
     pagecolor="#3c3c3c"
     id="base"
     inkscape:window-width="1366"
     inkscape:window-height="690"
     inkscape:window-x="0"
     inkscape:window-y="26"
     inkscape:window-maximized="1" />
  <metadata
     id="metadata5">
    <rdf:RDF>
      <cc:Work
         rdf:about="">
        <dc:format>image/svg+xml</dc:format>
        <dc:type
           rdf:resource="http://purl.org/dc/dcmitype/StillImage" />
        <dc:title />
      </cc:Work>
    </rdf:RDF>
  </metadata>
  <g
     id="layer1"
     inkscape:groupmode="layer"
     inkscape:label="Layer 1"
     transform="translate(54.632427,-47.96983)">
    <rect
       style="fill:#ffffff;stroke-width:0.274712;stroke-linecap:round;stroke-linejoin:round"
       id="rect23"
       width="79.375"
       height="79.375"
       x="34.120888"
       y="46.994427"
       inkscape:transform-center-x="47.513435"
       inkscape:transform-center-y="-24.474778" />
    <path
       style="fill:#00b206;fill-opacity:1;stroke-width:0.215649"
       d="m 81.351349,116.50421 c -2.25352,-3.86471 -4.12907,-7.15567 -4.16787,-7.31325 -0.06,-0.24353 7.45363,-13.649552 7.92711,-14.143842 0.0907,-0.0947 0.28062,0.96857 0.42197,2.36288 0.14136,1.39429 0.28455,2.56262 0.3182,2.596272 0.0337,0.0337 4.04096,0.14878 8.90512,0.25584 9.592181,0.21115 10.378131,0.15818 12.469491,-0.840372 0.70953,-0.33877 1.3086,-0.59739 1.33129,-0.57472 0.0226,0.0226 -1.93136,3.666002 -4.34229,8.096262 -4.506671,8.28132 -5.228151,9.34872 -6.905011,10.21555 -1.66723,0.86187 -2.81954,1.02185 -7.37952,1.02453 l -4.36045,0.003 -0.0603,2.67251 -0.0603,2.67252 z m -24.7996,1.26144 c -3.69469,-0.13575 -3.98979,-0.23762 -5.88738,-2.03229 -3.35531,-3.17331 -3.34084,-7.42579 0.0445,-13.07415 l 1.09861,-1.83302 2.37214,-0.13728 c 1.30468,-0.0755 5.65609,-0.1932 9.66981,-0.26155 l 7.29768,-0.12428 -0.13135,5.76061 c -0.0722,3.16832 -0.18816,7.14344 -0.25759,8.83359 l -0.12626,3.07299 -5.42271,-0.0429 c -2.98249,-0.0236 -6.87834,-0.0964 -8.65744,-0.16175 z m -15.31106,-15.80451 c -2.609349,-4.247432 -4.909847,-8.181212 -5.112219,-8.741752 -0.516002,-1.42923 -0.474802,-3.32036 0.109117,-5.00864 0.266643,-0.77094 1.372808,-2.92624 2.458142,-4.78954 l 1.973335,-3.38782 -2.409797,-1.40721 -2.409797,-1.40722 8.553479,-0.003 8.55348,-0.003 0.82724,1.45062 c 0.45498,0.79784 0.9728,1.71535 1.15071,2.03891 0.55848,1.01568 4.77841,8.22684 5.27733,9.01809 0.26176,0.41513 0.59058,0.97054 0.73073,1.23426 l 0.2548,0.47949 -0.92102,-0.40255 c -0.50657,-0.2214 -1.59227,-0.70724 -2.41266,-1.07965 -0.8204,-0.37241 -1.56483,-0.60111 -1.65429,-0.50824 -0.49579,0.51471 -8.98094,14.817542 -9.4104,15.862482 -0.28146,0.68483 -0.57974,1.94995 -0.66283,2.8114 l -0.15108,1.56626 -4.74427,-7.72261 z m 57.63762,-3.762512 -1.01884,-0.0912 -2.75502,-4.56559 c -1.51526,-2.51107 -2.99761,-4.98069 -3.29413,-5.48805 -0.29652,-0.50736 -1.24268,-2.07911 -2.10257,-3.49279 -0.85991,-1.41369 -1.56346,-2.65869 -1.56346,-2.76668 0,-0.17917 14.659111,-8.29055 15.189611,-8.40492 0.1261,-0.0272 2.07308,3.22371 4.3266,7.22423 3.81479,6.77209 4.10235,7.35883 4.17015,8.50879 0.25245,4.28171 -2.24008,7.52115 -6.65915,8.65466 -1.31615,0.3376 -4.69954,0.56424 -6.293191,0.42157 z m -44.05175,-26.41332 c -4.03263,-2.50718 -7.36109,-4.58078 -7.39657,-4.60799 -0.0355,-0.0272 1.91892,-3.33603 4.34312,-7.35295 l 4.40762,-7.30349 c 2.15742,-1.2852 3.0514,-1.52425 5.02793,-1.70005 1.97653,-0.1758 2.78216,0.0315 3.84339,0.58998 2.25809,1.18832 4.27322,3.49514 5.931,6.78949 l 0.79613,1.5821 -4.66975,8.28383 c -2.56837,4.55611 -4.733,8.28244 -4.81029,8.28072 -0.0773,-0.002 -3.43995,-2.05445 -7.47258,-4.56164 z m 20.37881,0.61145 c 0,-0.0422 0.92189,-0.73026 2.04866,-1.52898 1.12677,-0.79873 2.04866,-1.533 2.04866,-1.63171 0,-0.0987 -1.89869,-3.70594 -4.21931,-8.01604 -4.42623,-8.22085 -5.09583,-9.20074 -7.21007,-10.5511 l -0.97042,-0.61981 1.61737,-0.005 c 0.88955,-0.003 5.20791,-0.0649 9.59636,-0.13801 7.86749,-0.13103 7.99644,-0.12624 9.22644,0.34277 2.17096,0.82781 3.39919,2.20266 5.85352,6.55223 l 2.14103,3.79435 0.6624,-0.39989 c 1.54604,-0.93336 3.85431,-2.18242 3.91709,-2.11964 0.0374,0.0374 -1.79773,3.26671 -4.07798,7.17634 l -4.14592,7.1084 -8.24392,0.0565 c -4.53415,0.031 -8.24391,0.0219 -8.24391,-0.0203 z"
       id="path860"
       sodipodi:nodetypes="cssssssssscccccsssccscssccscssscccccsssscssssscccscsssscsssssssczsscscscssssccssscssscscc" />
    <path
       sodipodi:nodetypes="cssssssssscccccsssccscssccscssscccccsssscssssscccscsssscsssssssczsscscscssssccssscssscscc"
       id="path876"
       d="m -49.279642,55.847605 c -0.255399,-0.438001 -0.467961,-0.810976 -0.472358,-0.828835 -0.0068,-0.0276 0.844745,-1.546949 0.898406,-1.602969 0.01028,-0.01073 0.0318,0.109772 0.04782,0.267793 0.01602,0.15802 0.03225,0.29043 0.03606,0.294244 0.0038,0.0038 0.457975,0.01686 1.009246,0.029 1.087114,0.02393 1.176189,0.01793 1.413209,-0.09524 0.08041,-0.03839 0.148308,-0.0677 0.15088,-0.06513 0.0026,0.0026 -0.218887,0.415479 -0.492126,0.917576 -0.510756,0.938549 -0.592524,1.059521 -0.782568,1.157762 -0.188953,0.09768 -0.319548,0.11581 -0.836346,0.116113 l -0.494184,3.4e-4 -0.0068,0.302885 -0.0068,0.302885 z m -2.810621,0.142963 c -0.418731,-0.01539 -0.452176,-0.02693 -0.667236,-0.230326 -0.380269,-0.359642 -0.378629,-0.84159 0.005,-1.481737 l 0.124509,-0.207743 0.268843,-0.01556 c 0.147863,-0.0086 0.641023,-0.0219 1.095911,-0.02964 l 0.827071,-0.01409 -0.01489,0.652869 c -0.0082,0.359076 -0.02132,0.80959 -0.02919,1.00114 l -0.01431,0.348272 -0.614574,-0.0049 c -0.338016,-0.0027 -0.779545,-0.01093 -0.981177,-0.01833 z m -1.735253,-1.791178 c -0.295727,-0.481375 -0.55645,-0.927203 -0.579385,-0.990731 -0.05848,-0.16198 -0.05381,-0.376308 0.01237,-0.567646 0.03022,-0.08737 0.155585,-0.331641 0.27859,-0.542815 l 0.223644,-0.383953 -0.27311,-0.159483 -0.27311,-0.159485 0.969394,-3.4e-4 0.969394,-3.4e-4 0.09375,0.164403 c 0.05156,0.09042 0.110251,0.194407 0.130414,0.231077 0.06329,0.11511 0.541553,0.932375 0.598098,1.02205 0.02967,0.04705 0.06693,0.109994 0.08282,0.139883 l 0.02888,0.05434 -0.104382,-0.04562 c -0.05741,-0.02509 -0.180458,-0.08015 -0.273435,-0.122361 -0.09298,-0.04221 -0.177348,-0.06813 -0.187486,-0.0576 -0.05619,0.05833 -1.01784,1.679321 -1.066512,1.797747 -0.0319,0.07761 -0.0657,0.220994 -0.07512,0.318625 l -0.01712,0.17751 -0.537684,-0.875229 z m 6.532263,-0.426417 -0.115468,-0.01034 -0.312236,-0.517434 c -0.171729,-0.284588 -0.339729,-0.564478 -0.373335,-0.621979 -0.0336,-0.0575 -0.140837,-0.235632 -0.238291,-0.39585 -0.09746,-0.160218 -0.177192,-0.301318 -0.177192,-0.313557 0,-0.02031 1.661366,-0.939595 1.721489,-0.952557 0.01429,-0.0031 0.234949,0.365354 0.490348,0.818746 0.432343,0.767503 0.464933,0.834001 0.472617,0.964329 0.02861,0.485261 -0.253876,0.852397 -0.754703,0.980862 -0.149164,0.03826 -0.532615,0.06395 -0.713229,0.04778 z m -4.992531,-2.99351 c -0.457032,-0.284147 -0.834257,-0.519155 -0.838278,-0.522239 -0.004,-0.0031 0.217477,-0.378083 0.49222,-0.833334 l 0.49953,-0.827729 c 0.244508,-0.145656 0.345825,-0.172748 0.569832,-0.192672 0.224007,-0.01992 0.315312,0.0036 0.435584,0.06686 0.255917,0.134676 0.484299,0.396116 0.67218,0.769475 l 0.09023,0.179305 -0.529238,0.938834 c -0.291082,0.516359 -0.536407,0.938677 -0.545166,0.938482 -0.0088,-2.27e-4 -0.389861,-0.232838 -0.846892,-0.516986 z m 2.309598,0.0693 c 0,-0.0048 0.104481,-0.08276 0.232181,-0.173285 0.127701,-0.09052 0.232182,-0.17374 0.232182,-0.184927 0,-0.01119 -0.215185,-0.420006 -0.478189,-0.908484 -0.501639,-0.931697 -0.577527,-1.042751 -0.817141,-1.195792 l -0.109981,-0.07024 0.183302,-5.67e-4 c 0.100816,-3.4e-4 0.59023,-0.0074 1.087588,-0.01564 0.891649,-0.01485 0.906263,-0.01431 1.045663,0.03885 0.246042,0.09382 0.385241,0.249634 0.663399,0.742586 l 0.24265,0.430026 0.07507,-0.04532 c 0.175218,-0.105781 0.436822,-0.247341 0.443937,-0.240226 0.0042,0.0042 -0.203743,0.370227 -0.462171,0.813319 l -0.469871,0.805618 -0.934311,0.0064 c -0.513871,0.0035 -0.93431,0.0025 -0.93431,-0.0023 z"
       style="fill:#ffffff;fill-opacity:1;stroke-width:0.0244402" />
  </g>
</svg>
